<svg width="132" height="75" viewBox="0 0 132 75" fill="none" xmlns="http://www.w3.org/2000/svg">
<path fill-rule="evenodd" clip-rule="evenodd" d="M37.1692 26.9736L37.3617 27.031L37.5526 27.116L37.7383 27.2334L37.9113 27.3874L38.0626 27.5764L38.1809 27.7913L38.264 28.0211L38.3127 28.2551L38.3322 28.4882L38.3277 28.718L38.3045 28.9462L38.2663 29.1602L35.9793 40.1989L35.9613 40.2638L35.9576 40.283L35.9493 40.3354L35.9359 40.4195L35.9141 40.5328L35.8774 40.676L35.816 40.8433L35.7202 41.0232L35.5854 41.1981L35.4147 41.3479L35.2244 41.4595L35.0253 41.532L34.8238 41.5736L34.6164 41.5911L34.4 41.5894L34.2337 41.5744L30.9605 41.7235L30.8302 41.7335L30.6827 41.7385L30.5366 41.7343L30.3891 41.7176L30.2364 41.686L30.0739 41.6302L29.9016 41.5361L29.7316 41.3921L29.5871 41.1981L29.489 40.9757L29.4411 40.7551L29.4298 40.5544L29.4433 40.3762L29.4703 40.2188L29.5062 40.0723L29.5317 39.9899L29.8799 38.3237V38.3204L29.8604 38.1971L29.8365 38.0814L29.808 37.9715L29.7758 37.8674L29.7391 37.7691L29.6994 37.6759L29.6552 37.5868L29.6073 37.5027L29.5556 37.4219L29.5002 37.3445L29.4411 37.2704L29.3774 37.2004L29.31 37.1313L29.2381 37.0664L29.1625 37.0039L29.0816 36.9448L28.9963 36.8882L28.9064 36.834L28.8135 36.7832L28.7162 36.735L28.6136 36.69L28.508 36.6484L28.3979 36.6101L28.2848 36.5759L28.1688 36.5443L28.0482 36.516L27.9254 36.4918L27.8003 36.4718L27.6723 36.4543L27.542 36.4402L27.4102 36.431L27.3009 36.426L27.1878 36.4227H27.074L26.9601 36.4252L26.8478 36.431L26.7355 36.4394L26.6246 36.4519L26.5153 36.4677L26.409 36.4868L26.3034 36.5093L26.2015 36.5359L26.1027 36.5659L26.0076 36.5992L25.9147 36.6375L25.8271 36.6792L25.7425 36.7241L25.6624 36.7733L25.5852 36.8265L25.5119 36.884L25.443 36.9456L25.3771 37.0114L25.3142 37.0838L25.255 37.1613L25.1981 37.2445L25.1442 37.337L25.0932 37.4369L25.0453 37.5468L25.0011 37.6659L24.9607 37.7958L24.9247 37.9382L24.8933 38.093L24.8596 38.3062L19.9037 61.8957L19.8678 62.1289L19.8348 62.3678L19.8079 62.5927L19.7876 62.805L19.7734 63.0032L19.7659 63.188L19.7644 63.3595L19.7682 63.5153L19.7787 63.6576L19.7936 63.785L19.8131 63.8991L19.8371 63.999L19.864 64.0865L19.8932 64.1622L19.9254 64.228L19.9599 64.2871L19.9981 64.3404L20.0415 64.3921L20.0917 64.4404L20.1508 64.4886L20.2205 64.5361L20.3028 64.5836L20.3987 64.6294L20.508 64.6727L20.6323 64.7135L20.7724 64.7509L20.9274 64.7842L21.0966 64.8142L21.2808 64.8392L21.4808 64.8584L21.6957 64.8733L21.9256 64.8833L22.157 64.8875L22.3682 64.8933L22.5569 64.9025L22.7314 64.9175L22.9044 64.9433L23.0908 64.9916L23.3095 65.0932L23.5409 65.2947L23.7086 65.5928L23.7693 65.8925L23.7663 66.124L23.7416 66.3022L23.7124 66.4504L23.6802 66.5886L23.648 66.7294L23.6143 66.8851L22.9208 70.1974L22.8662 70.4256L22.8092 70.6337L22.7448 70.8303L22.6692 71.0218L22.5741 71.2075L22.4543 71.389L22.3053 71.553L22.1323 71.6887L21.9503 71.7878L21.7728 71.8511L21.6051 71.8911L21.4463 71.9136L21.2928 71.9269L21.1386 71.9352L20.9798 71.9427L20.7866 71.9519L2.56931 71.6554L2.37386 71.6779L2.14096 71.6912L1.91706 71.6871L1.69315 71.6579L1.46026 71.5896L1.21913 71.4581L1.00047 71.2474L0.843206 70.9776L0.763079 70.702L0.736869 70.4539L0.741363 70.2324L0.762331 70.0309L0.792285 69.836L0.828978 69.6412L0.870914 69.443L0.914347 69.2315L0.917343 69.2215L0.921835 69.1966L0.930822 69.1549L0.942803 69.0983L0.957031 69.0284L0.974255 68.9468L0.993726 68.8543L1.01469 68.7511L1.03866 68.6395L1.06337 68.5204L1.08958 68.3947L1.11729 68.2631L1.15548 68.0799L1.20415 67.846L1.23411 67.7028L1.26406 67.5595L1.29401 67.418L1.32322 67.2781L1.35243 67.1399L1.38013 67.0058L1.40709 66.8784L1.43255 66.7568L1.45652 66.6419L1.47898 66.5354L1.49845 66.4388L1.51717 66.353L1.53215 66.2781L1.54488 66.2164L1.55536 66.1698L1.56135 66.1382L1.56435 66.124L1.60853 65.91L1.65047 65.7127L1.71187 65.4887L1.84292 65.1989L2.14096 64.8908L2.54385 64.7817L2.85612 64.8292L2.97593 64.875L3.21107 64.9058L3.49938 64.9316L3.77196 64.9458L4.02657 64.9474L4.26695 64.9375L4.49161 64.9166L4.70129 64.8858L4.89674 64.845L5.07871 64.7959L5.2472 64.7384L5.40446 64.6735L5.54973 64.6019L5.68603 64.5228L5.81258 64.4362L5.93165 64.3446L6.04398 64.2447L6.14882 64.1381L6.24916 64.0232L6.34426 63.9016L6.43488 63.7717L6.52099 63.6327L6.60337 63.4853L6.68125 63.3287L6.75538 63.1647L6.82578 62.9923L6.89242 62.8116L6.95533 62.6243L7.01523 62.4278L7.07215 62.2254L7.12532 62.0164L7.17549 61.8008L7.22491 61.5768L12.1808 37.9856L12.1568 37.8599L12.1284 37.7392L12.0954 37.6267L12.0587 37.5218L12.0198 37.4252L11.9764 37.3345L11.9299 37.2487L11.8798 37.1679L11.8274 37.0922L11.7712 37.0206L11.7105 36.9515L11.6469 36.8865L11.5795 36.8241L11.5083 36.7641L11.4327 36.7075L11.3541 36.6534L11.2695 36.6017L11.1826 36.5534L11.0912 36.5068L10.9961 36.4635L10.898 36.4227L10.7962 36.3844L10.6921 36.3494L10.585 36.3161L10.4757 36.2861L10.3633 36.2578L10.2495 36.232L10.1349 36.2095L10.0174 36.1887L9.89981 36.1696L9.78074 36.1529L9.67291 36.1396L9.56432 36.1288L9.44975 36.1221L9.33068 36.1171L9.20712 36.1155L9.08206 36.1163L8.95551 36.1204L8.82895 36.1263L8.70464 36.1363L8.58183 36.1479L8.46276 36.1621L8.34819 36.1779L8.24035 36.1962L8.14076 36.2154L8.0479 36.237L7.98724 36.2528L7.86443 36.2986L7.74761 36.3553L7.63828 36.4202L7.53494 36.4926L7.43834 36.5718L7.34847 36.6559L7.26685 36.7441L7.19196 36.8324L7.12532 36.9215L7.06691 37.0064L7.01823 37.0863L6.97929 37.1571L6.95083 37.2162L6.93286 37.2562L6.93062 37.2629L6.4873 39.3837L6.45584 39.5336L6.42364 39.6826L6.3892 39.8333L6.35101 39.9824L6.30832 40.1339L6.25815 40.2871L6.19674 40.4428L6.12186 40.5994L6.026 40.7592L5.90244 40.9158L5.74968 41.0615L5.56621 41.1822L5.36327 41.2638L5.15135 41.3046L4.94466 41.3071L4.8211 41.2897L1.18019 41.0965L0.973506 41.0424L0.809508 40.9816L0.650003 40.8983L0.49574 40.7892L0.354207 40.6543L0.232144 40.4945L0.13704 40.3196L0.0696434 40.1389L0.0284564 39.9632L0.00673953 39.7983L0 39.6435L0.0029959 39.4994L0.0134798 39.3637L0.0284564 39.2355L0.0456798 39.1131L0.0673967 38.9782L2.26003 28.708L2.32518 28.3858L2.40157 28.0752L2.49143 27.7904L2.59926 27.524L2.73405 27.2767L2.90329 27.0494L3.10923 26.8578L3.33838 26.7146L3.57277 26.623L3.79817 26.5747L4.01159 26.5531L4.21678 26.5498L4.41897 26.5547L4.62266 26.5656L4.83383 26.5764L5.05325 26.5847L36.4174 26.922L36.5836 26.9153L36.7813 26.9186L36.9753 26.9378L37.1692 26.9736ZM82.602 28.8746L82.6619 29.0711L82.6926 29.2576L82.7009 29.4283L82.6971 29.5832L82.6836 29.728L82.6649 29.8638L82.6424 29.9928L82.6192 30.1186L82.5945 30.2393L79.173 46.6828L82.2785 42.6253L83.3359 37.9207L96.5561 38.168L96.7725 38.1655L97.0578 38.2229L97.3326 38.3562L97.5685 38.5627L97.7393 38.8158L97.8449 39.0756L97.9033 39.3246L97.928 39.5577L97.931 39.7759L97.9212 39.9807L97.8988 40.1772L97.8726 40.3621L97.8419 40.5369L97.8097 40.7001L97.779 40.8475L97.7513 40.9799L97.2712 43.2747L97.2248 43.4971L97.1776 43.7019L97.1312 43.8951L97.0788 44.0799L97.0144 44.2648L96.9275 44.4538L96.8077 44.647L96.6452 44.8277L96.4468 44.9709L96.2363 45.0616L96.0341 45.1058L95.8469 45.1191L95.6717 45.1141L95.5002 45.0991L95.3235 45.0758L95.1842 45.0533L93.712 45.0208L93.6558 45.025L93.5592 45.0325L93.4618 45.04L93.3622 45.0475L93.2611 45.055L93.1571 45.065L93.0522 45.0766L92.9436 45.0891L92.8358 45.1041L92.7242 45.1208L92.6134 45.1416L92.5003 45.1641L92.3865 45.1907L92.2712 45.2207L92.1551 45.2548L92.0398 45.2931L91.9214 45.3364L91.8046 45.3839L91.687 45.4372L91.5687 45.4955L91.4504 45.5604L91.3321 45.6312L91.2153 45.707L91.0962 45.7919L90.9779 45.8843L90.8611 45.9834L90.7428 46.0917L90.6252 46.2099L90.5084 46.3365L90.3915 46.473L90.2762 46.6204L90.1519 46.7919L85.5225 53.171L93.6708 65.0132L93.7831 65.1523L93.9104 65.293L94.0422 65.4254L94.177 65.5495L94.317 65.6652L94.4608 65.7735L94.6083 65.8742L94.7603 65.9675L94.9154 66.0549L95.0734 66.1348L95.2344 66.2073L95.3976 66.2747L95.5646 66.3347L95.7331 66.388L95.9023 66.4363L96.0738 66.4779L96.2461 66.5145L96.419 66.5445L96.5913 66.5687L96.7658 66.5886L96.9365 66.6036L97.1095 66.6136L97.2787 66.6186L97.4472 66.6195L97.6127 66.6161L97.7745 66.6086L97.9355 66.597L98.092 66.5836L98.244 66.5645L98.3923 66.5445L98.5353 66.5204L98.864 66.4604L99.3044 66.6195L99.5388 66.9534L99.556 66.9991L99.9836 67.0799L99.2025 71.3265L99.2063 71.4098L99.1995 71.6229L99.1741 71.8345L99.1306 72.0418L99.0662 72.2425L98.9831 72.4323L98.879 72.6072L98.7592 72.7645L98.6259 72.9019L98.4859 73.0193L98.3376 73.1168L98.1886 73.1984L98.0381 73.2633L97.8875 73.3158L97.737 73.3566L97.5857 73.3882L97.4337 73.4132L97.2832 73.4307L97.1312 73.4432L96.9807 73.4507L96.8287 73.454H96.6774L96.5254 73.4507L96.3764 73.4448L96.2243 73.4373L96.0768 73.429L95.9285 73.4199L95.7825 73.4099L95.638 73.3999L95.4957 73.3907L95.3587 73.3832L95.2314 73.3765L80.1241 73.1484L79.8065 73.0768L79.498 72.8928L79.2629 72.6272L79.1146 72.3332L79.036 72.0451L79.0038 71.7737L79.0053 71.5172L79.0315 71.2707L79.9121 67.1582L76.0683 61.3919L75.5928 63.6068L75.5358 63.9174L75.4977 64.1964L75.4744 64.4487L75.4654 64.676L75.4684 64.8767L75.4849 65.0524L75.5081 65.2056L75.5388 65.3388L75.5755 65.4529L75.616 65.5511L75.6631 65.6377L75.7126 65.716L75.7687 65.7859L75.8316 65.8517L75.9028 65.9142L75.9822 65.9741L76.0698 66.0307L76.1664 66.084L76.2712 66.1348L76.3858 66.1823L76.5086 66.2273L76.6359 66.2689L76.7692 66.308L76.9077 66.3447L77.0508 66.3796L77.196 66.4146L77.3451 66.4488L77.4956 66.4846L77.6461 66.5212L77.7996 66.5612L77.9539 66.6061L78.7829 66.8784L77.4214 73.1151L61.5226 72.9153L61.2949 72.9119H61.0793L60.8629 72.9128L60.6449 72.9086L60.4225 72.8944L60.1911 72.862L59.9478 72.7979L59.6917 72.6813L59.44 72.4906L59.2266 72.2258L59.0784 71.9086L58.999 71.5738L58.9713 71.2333L58.984 70.8827L59.0289 70.5097L59.1008 70.115L59.9126 66.2348L62.5702 65.9L62.7949 65.8917L62.9596 65.8759L63.1124 65.8534L63.2524 65.8234L63.3812 65.7876L63.5003 65.7451L63.6089 65.6969L63.71 65.6452L63.8028 65.5878L63.8897 65.5262L63.9706 65.4595L64.0477 65.3871L64.1204 65.3097L64.19 65.2264L64.2574 65.1356L64.3218 65.039L64.384 64.935L64.4431 64.8234L64.5 64.706L64.5547 64.5802L64.6079 64.4487L64.658 64.3113L64.7067 64.1672L64.7531 64.0173L64.7981 63.8616L64.8408 63.7018L64.8819 63.5361L64.9231 63.367L64.9621 63.1947L65.001 63.0181L65.0392 62.8391L65.0781 62.6568L69.8101 40.0332L69.8303 39.9341L69.8491 39.84L69.8685 39.7509L69.8858 39.6668L69.9037 39.5868L69.9195 39.5086L69.9359 39.4336L69.9502 39.3612L69.9651 39.2896L69.9809 39.218L69.9958 39.148L70.0101 39.0781L70.025 39.0065L70.0408 38.934L70.0573 38.8591L70.073 38.7817L70.0909 38.7026L70.1097 38.6185L70.1284 38.5302L70.1494 38.4369L70.1696 38.3387L70.1928 38.2346L70.2168 38.123L70.243 38.0056L70.2707 37.8807L70.2999 37.7467L70.3306 37.6043L70.3643 37.4519L70.3995 37.2895L70.4369 37.1172L70.4781 36.9331L70.5073 36.7982L70.5268 36.5701L70.532 36.3303L70.5253 36.1163L70.5058 35.9264L70.4766 35.7599L70.4384 35.6142L70.395 35.4868L70.3448 35.376L70.2909 35.2778L70.231 35.1904L70.1651 35.1104L70.0932 35.0363L70.0146 34.9689L69.9284 34.9064L69.8363 34.8481L69.7367 34.7957L69.6297 34.7482L69.5188 34.7049L69.4035 34.6666L69.2829 34.6333L69.1616 34.6042L69.0388 34.5792L68.9145 34.5584L68.7932 34.54L68.6719 34.5242L68.5536 34.5109L68.4367 34.4976L68.3237 34.4859L68.2128 34.4726L68.1027 34.4576L67.9889 34.4368L67.8309 34.3977L67.5576 34.2669L67.3337 34.1146L67.133 33.9105L66.981 33.6533L66.8978 33.3801L66.8776 33.1445L66.8844 32.9813L66.8993 32.8322L67.6145 29.4108L67.6347 29.2934L67.6624 29.1593L67.6946 29.0211L67.7358 28.8746L67.7912 28.7197L67.8706 28.5573L67.9769 28.3933L68.1117 28.2409L68.2727 28.1135L68.4435 28.0186L68.618 27.9545L68.7902 27.9153L68.9602 27.8953L69.1309 27.8887L69.3069 27.8937L69.4604 27.9045L81.5049 28.0769L81.7049 28.1152L81.8779 28.1668L82.0501 28.2442L82.2201 28.3541L82.3751 28.5015L82.5069 28.6797L82.602 28.8746ZM57.1321 38.4919L57.4092 38.6201L57.678 38.755L57.9349 38.9007L58.1842 39.0531L58.4216 39.213L58.6507 39.3828L58.8709 39.5569L59.0828 39.7409L59.2843 39.9316L59.4797 40.1273L59.6625 40.3313L59.8362 40.5369L60.0039 40.7518L60.1649 40.9691L60.3169 41.1897L60.4607 41.4154L60.5948 41.6419L60.7213 41.8742L60.8426 42.1082L60.958 42.3463L61.0635 42.582L61.1654 42.8201L61.259 43.0599L61.3496 43.3022L61.432 43.5445L61.5091 43.7893L61.5825 44.03L61.6477 44.2731L61.7128 44.5146L61.7697 44.7536L61.8236 44.9942L61.8761 45.2398L61.9524 45.6587L62.0183 46.0817L62.0745 46.5105L62.1209 46.941L62.1591 47.3748L62.1861 47.8086L62.2085 48.2441L62.222 48.6813L62.2235 49.1167L62.219 49.5531L62.2085 49.9885L62.1883 50.4249L62.1636 50.8537L62.1292 51.2875L62.0902 51.713L62.0438 52.136L61.9944 52.5598L61.9382 52.9737L61.8738 53.385L61.8057 53.788L61.733 54.1894L61.6529 54.5807L61.5705 54.9646L61.4822 55.3443L61.3908 55.7106L61.2957 56.0737L61.1953 56.4259L61.0928 56.769L60.9849 57.102L60.8748 57.4235L60.7603 57.7349L60.6472 58.0246L60.579 58.2028L60.5034 58.4035L60.4195 58.6383L60.3252 58.9014L60.2196 59.192L60.1058 59.5051L59.9807 59.8432L59.8444 60.2037L59.6947 60.5809L59.5299 60.9764L59.3562 61.3886L59.1645 61.8149L58.9563 62.2529L58.7354 62.7067L58.495 63.1647L58.2374 63.6343L57.9611 64.1123L57.666 64.5927L57.3522 65.079L57.0153 65.5661L56.6603 66.0566L56.2791 66.5462L55.8755 67.0333L55.4494 67.5171L54.9986 67.9942L54.5246 68.4646L54.0221 68.9276L53.4919 69.3814L52.9363 69.8227L52.3529 70.2532L51.7419 70.667L51.0978 71.0659L50.5976 71.349L50.0861 71.6088L49.5664 71.8503L49.037 72.0659L48.5001 72.2666L47.9609 72.4398L47.415 72.5988L46.8653 72.7346L46.3149 72.8561L45.7608 72.9569L45.2104 73.0402L44.6585 73.1043L44.1126 73.1559L43.5674 73.1867L43.0252 73.2067H42.4928L41.9626 73.1925L41.4429 73.1634L40.9299 73.1209L40.4305 73.0651L39.937 72.9935L39.4592 72.9078L38.9942 72.8128L38.5426 72.6996L38.1053 72.5772L37.6859 72.4431L37.2838 72.2982L36.8974 72.1375L36.5312 71.9619L36.186 71.7762L35.861 71.5797L35.5659 71.3748L35.4087 71.2574L35.2566 71.1392L35.1076 71.0184L34.9624 70.8969L34.8186 70.7786L34.6763 70.6529L34.5407 70.5255L34.4052 70.3948L34.2689 70.2574L34.1386 70.125L34.0121 69.9884L33.887 69.846L33.7672 69.7037L33.6496 69.5554L33.535 69.4089L33.4235 69.259L33.3126 69.1033L33.207 68.9476L33.1052 68.7902L33.0086 68.6303L32.912 68.4671L32.8214 68.2989L32.7338 68.1332L32.6491 67.9642L32.5668 67.7885L32.4889 67.6137L32.4193 67.4355L32.3466 67.2531L32.2815 67.0683L32.2208 66.8842L32.1616 66.6952L32.1055 66.5012L31.9857 66.0199L31.8801 65.5253L31.7917 65.0224L31.7183 64.5195L31.6644 64.0099L31.6225 63.5003L31.5918 62.9848L31.5768 62.4719L31.5746 61.9598L31.5828 61.4436L31.5993 60.9348L31.6277 60.4269L31.6637 59.9239L31.7108 59.426L31.7648 58.9322L31.8247 58.4468L31.8906 57.9714L31.9602 57.5017L32.0388 57.0421L32.1205 56.5974L32.2036 56.1611L32.2905 55.7365L32.3788 55.3293L32.4694 54.9371L32.5608 54.5607L32.6521 54.1985L32.7428 53.858L32.8319 53.5349L32.9195 53.2326L33.0049 52.9503L33.0865 52.6897L33.1666 52.4449L33.4759 51.5931L33.8016 50.7571L34.1476 49.9411L34.5115 49.1451L34.892 48.3673L35.2911 47.6113L35.7112 46.876L36.1455 46.1608L36.5978 45.4697L37.0681 44.8002L37.5601 44.1549L38.0641 43.5354L38.5913 42.9375L39.1342 42.368L39.6951 41.8234L40.2724 41.3071L40.8655 40.8175L41.4751 40.3571L42.1056 39.9232L42.7504 39.5219L43.4124 39.1505L44.0908 38.8108L44.7843 38.5027L45.4927 38.2279L46.2198 37.9856L46.9597 37.78L47.7145 37.6043L48.4836 37.4627L49.2699 37.3603L50.0697 37.292L50.8837 37.262L51.7044 37.267L51.9231 37.2754L52.135 37.2887L52.3484 37.3037L52.5589 37.3228L52.7663 37.3445L52.9737 37.3711L53.1789 37.3994L53.3818 37.4311L53.5833 37.466L53.784 37.501L53.9787 37.5368L54.1711 37.5809L54.3628 37.6209L54.5508 37.6659L54.732 37.7117L54.9125 37.7566L55.0885 37.8033L55.2585 37.8532L55.4269 37.899L55.5909 37.9507L55.7475 37.9981L55.901 38.0472L56.0485 38.0947L56.1923 38.1438L56.3293 38.1913L56.4604 38.2396L56.5869 38.2829L56.7075 38.3303L56.8213 38.372L56.9284 38.4128L57.0287 38.4561L57.1321 38.4919ZM48.5188 45.7802C50.7976 46.3698 51.7905 50.9736 50.7339 56.0296C49.6735 61.083 46.9559 64.7276 44.6772 64.1381C42.3977 63.5511 41.4055 58.9456 42.4613 53.8913C43.5217 48.8361 46.2393 45.1907 48.5188 45.7802ZM126.851 39.7825L127.108 39.9041L127.36 40.0323L127.606 40.1689L127.839 40.3104L128.065 40.457L128.284 40.6085L128.498 40.7684L128.7 40.9366L128.896 41.1081L129.083 41.288L129.26 41.477L129.431 41.6694L129.597 41.87L129.75 42.0765L129.899 42.2922L130.039 42.5145L130.169 42.7402L130.295 42.9741L130.412 43.2131L130.522 43.4621L130.625 43.7144L130.722 43.9717L130.815 44.2356L130.901 44.5088L130.98 44.7869L131.053 45.0708L131.124 45.3606L131.19 45.6562L131.25 45.9618L131.31 46.274L131.363 46.5971L131.422 47.0218L131.474 47.4497L131.514 47.8844L131.551 48.3215L131.577 48.7629L131.592 49.2075L131.605 49.658L131.61 50.1043L131.607 50.5523L131.595 51.0027L131.578 51.4515L131.557 51.897L131.53 52.3408L131.494 52.7813L131.453 53.2185L131.408 53.6506L131.358 54.0736L131.301 54.4941L131.241 54.9063L131.178 55.3093L131.108 55.704L131.035 56.0912L130.957 56.4642L130.878 56.8264L130.792 57.1778L130.706 57.5167L130.614 57.8448L130.517 58.1545L130.418 58.451L130.317 58.7332L130.211 59.0039L130.033 59.4094L129.958 59.6L129.87 59.824L129.771 60.083L129.665 60.3661L129.551 60.6775L129.421 61.0106L129.282 61.3661L129.133 61.7408L128.97 62.1355L128.795 62.5435L128.605 62.969L128.397 63.4062L128.178 63.8575L127.937 64.3196L127.681 64.7892L127.409 65.2647L127.113 65.7468L126.801 66.2331L126.468 66.721L126.109 67.214L125.734 67.7044L125.333 68.1932L124.908 68.6761L124.457 69.1541L123.981 69.6304L123.48 70.0942L122.952 70.5505L122.396 70.9918L121.811 71.4231L121.194 71.8403L120.552 72.2433L120.137 72.4739L119.698 72.6971L119.243 72.9078L118.771 73.1076L118.277 73.2933L117.769 73.4648L117.25 73.628L116.716 73.7712L116.17 73.9053L115.613 74.026L115.05 74.1293L114.478 74.2167L113.902 74.2892L113.321 74.3408L112.736 74.3799L112.155 74.3999H111.568L110.984 74.3791L110.407 74.3383L109.83 74.2767L109.261 74.1942L108.698 74.0893L108.15 73.9594L107.603 73.8037L107.075 73.6238L106.556 73.419L106.055 73.1834L105.569 72.9219L105.103 72.628L104.659 72.3049L104.234 71.9502L103.832 71.558L103.386 71.0476L102.986 70.5097L102.627 69.9476L102.307 69.3706L102.027 68.7711L101.785 68.1582L101.577 67.5329L101.403 66.8959L101.259 66.2539L101.145 65.6019L101.06 64.9483L100.999 64.2946L100.961 63.6402L100.946 62.9865L100.952 62.3354L100.977 61.6934L101.016 61.0514L101.072 60.4227L101.141 59.8082L101.222 59.2004L101.314 58.6142L101.417 58.0388L101.521 57.4809L101.636 56.9463L101.755 56.4334L101.871 55.9405L101.996 55.4792L102.116 55.042L102.232 54.634L102.348 54.2585L102.46 53.9138L102.561 53.6032L102.87 52.7497L103.195 51.9153L103.538 51.1002L103.904 50.3008L104.283 49.5206L104.683 48.7645L105.104 48.0309L105.54 47.3173L105.996 46.6254L106.469 45.9559L106.958 45.309L107.468 44.6911L107.994 44.0941L108.542 43.5245L109.101 42.9816L109.68 42.4654L110.277 41.9749L110.889 41.5186L111.523 41.0848L112.17 40.6851L112.832 40.3146L113.512 39.9757L114.211 39.6676L114.923 39.3928L115.646 39.1505L116.39 38.9407L117.145 38.7692L117.92 38.6293L118.704 38.5252L119.505 38.4586L120.32 38.4286L121.147 38.4353L121.369 38.4444L121.58 38.4594L121.793 38.4761L122.002 38.4994L122.214 38.521L122.42 38.5477L122.623 38.5777L122.83 38.6101L123.032 38.6451L123.23 38.6817L123.428 38.72L123.623 38.7625L123.811 38.8025L124 38.8449L124.184 38.8924L124.364 38.9349L124.539 38.9848L124.711 39.029L124.879 39.0764L125.043 39.1255L125.204 39.1738L125.356 39.223L125.504 39.2704L125.65 39.3196L125.786 39.3629L125.918 39.412L126.045 39.457L126.163 39.5011L126.276 39.5427L126.385 39.5844L126.485 39.6243L126.584 39.6668L126.851 39.7825ZM118.008 46.9884C120.283 47.5746 121.28 52.1826 120.22 57.2378C119.165 62.2929 116.446 65.935 114.168 65.348C111.89 64.7584 110.896 60.1538 111.953 55.0986C113.008 50.0443 115.73 46.3989 118.008 46.9884ZM51.6482 7.46915C50.9803 7.24241 50.3006 7.06083 49.6129 6.92541C48.9616 6.7938 48.3027 6.71394 47.6411 6.68644C45.8072 6.61483 44.3739 7.00119 43.3562 7.84468C42.3355 8.68817 41.7949 9.92885 41.7387 11.565C41.6893 13.0072 42.0645 14.1063 42.8642 14.8533C43.6647 15.601 44.9048 16.009 46.5838 16.0739C47.4177 16.1063 48.2527 16.0637 49.0804 15.9466C49.841 15.8431 50.5902 15.6543 51.3165 15.3828L50.337 21.3431C49.4375 21.5073 48.5313 21.622 47.6217 21.687C46.745 21.7498 45.866 21.7648 44.988 21.7319C41.3456 21.5912 38.601 20.6436 36.7581 18.8959C34.9152 17.1481 34.0487 14.6634 34.1603 11.446C34.2771 8.05868 35.3877 5.46075 37.489 3.66885C39.594 1.87195 42.4913 1.04427 46.1816 1.18749C47.1207 1.2233 48.0575 1.3099 48.9823 1.44729C49.9102 1.58384 50.844 1.78285 51.7756 2.03182L51.6482 7.46915ZM55.6568 7.05115C56.7447 6.77725 57.8466 6.57704 58.9563 6.45162C60.0407 6.33063 61.1312 6.29029 62.2205 6.33089C64.3053 6.41166 65.83 6.78802 66.7952 7.45249C67.7605 8.12112 68.2226 9.12616 68.1776 10.4601C68.1716 10.6341 68.1574 10.8614 68.1394 11.1362C68.1237 11.411 68.0938 11.7149 68.0646 12.043L67.4587 19.6469L67.4453 20.0374C67.4026 20.7391 67.3684 21.4414 67.3427 22.1441L61.1998 21.906C61.3271 20.7685 61.4455 19.701 61.5421 18.7052C61.6432 17.7101 61.7278 16.7526 61.7952 15.8458C60.8426 15.8858 60.0878 16.054 59.5359 16.3471C58.9802 16.6393 58.6942 17.0232 58.6777 17.487C58.6657 17.8159 58.7563 18.0782 58.9458 18.268C59.1383 18.4579 59.4153 18.5611 59.7763 18.5753C59.8751 18.5794 59.9942 18.5761 60.1193 18.5695C60.2488 18.5586 60.4188 18.5428 60.6225 18.5237L59.5456 21.9626C59.1351 22.0251 58.7228 22.0713 58.3093 22.1008C57.9401 22.125 57.5926 22.1308 57.2684 22.1183C55.7362 22.0592 54.5605 21.6145 53.7405 20.7893C52.9205 19.9633 52.5319 18.8409 52.5806 17.4254C52.6247 16.1381 53.0291 15.0964 53.7862 14.3087C54.5478 13.5177 55.7033 12.9356 57.2497 12.5692C57.863 12.4302 58.6275 12.282 59.5366 12.1354C60.8756 11.9089 61.5548 11.5625 61.5705 11.1071C61.577 10.9953 61.5584 10.8835 61.5163 10.7817C61.4742 10.68 61.41 10.5915 61.3294 10.5242C61.1572 10.3785 60.913 10.2952 60.6 10.2827C60.0399 10.2611 59.2401 10.3618 58.2142 10.5775C57.1852 10.7932 56.0792 11.1071 54.9043 11.5026L55.6568 7.05115ZM70.4347 22.2648C70.6131 20.7909 70.7697 19.3139 70.9042 17.8342C71.0502 16.2596 71.1865 14.5652 71.3003 12.7649L69.7532 12.705L70.1396 7.91796L71.7309 7.97957L71.7482 7.47331C71.8126 5.59398 72.2821 4.25754 73.1537 3.46984C74.0254 2.6788 75.4325 2.31909 77.3705 2.39403C78.1059 2.42317 78.8083 2.49645 79.4606 2.60636C80.1173 2.7171 80.7681 2.87781 81.4076 3.07682L81.4368 7.13608C81.06 7.02313 80.6796 6.92564 80.2963 6.84381C79.9817 6.77586 79.6631 6.73384 79.343 6.71808C78.8195 6.69809 78.4481 6.79552 78.2332 7.01201C78.0198 7.22767 77.888 7.63318 77.8498 8.21605L80.7988 8.34595L80.3847 13.1163L78.0048 13.0239C77.8348 14.7442 77.6963 16.3962 77.5907 17.9716C77.4877 19.4901 77.4098 21.0105 77.357 22.5321L70.4347 22.2648ZM87.9196 13.5576L91.8788 13.7117L91.8863 13.511C91.9125 12.7566 91.7807 12.1821 91.4961 11.7924C91.2063 11.4018 90.7675 11.1945 90.1781 11.172C89.9071 11.1567 89.6361 11.2031 89.3818 11.3083C89.1275 11.4135 88.8952 11.5754 88.6991 11.784C88.2865 12.2129 88.0267 12.8074 87.9196 13.5576ZM94.9738 22.9268C94.0356 23.1212 93.0891 23.2616 92.1379 23.3473C91.2254 23.4315 90.3092 23.4568 89.3941 23.4231C86.6548 23.3173 84.6029 22.6137 83.2453 21.3223C81.8876 20.0308 81.2488 18.1698 81.3319 15.7492C81.427 12.9689 82.2635 10.8598 83.8361 9.43424C85.4072 8.00872 87.6141 7.34674 90.4425 7.45666C92.8028 7.54825 94.5492 8.13861 95.6769 9.22358C96.8047 10.3094 97.3326 11.9173 97.2593 14.0364C97.2443 14.3475 97.2176 14.6579 97.1791 14.9665C97.0976 15.5555 97.0097 16.1434 96.9155 16.7301L88.0993 16.3879L88.0948 16.5194C88.0716 17.1689 88.2618 17.6718 88.658 18.0241C89.0556 18.3804 89.6494 18.5736 90.4335 18.6044C91.3105 18.632 92.1882 18.5794 93.0574 18.4471C94.0307 18.2943 94.9935 18.0678 95.939 17.7693L94.9738 22.9268ZM95.1685 0.639596L90.4425 5.84211L88.3539 5.76134L91.1651 0.483887L95.1685 0.639596Z" fill="#999999"/>
</svg>
