<svg width="173" height="43" viewBox="0 0 173 43" fill="none" xmlns="http://www.w3.org/2000/svg">
<path fill-rule="evenodd" clip-rule="evenodd" d="M0 28.8852H13.705C13.705 30.557 14.0952 31.7971 14.8636 32.6145C15.633 33.4442 16.7916 33.8535 18.3405 33.8535C19.8228 33.8535 20.9583 33.58 21.7498 33.0227C22.5414 32.4644 22.9427 31.648 22.9427 30.5817C22.9427 28.8225 21.1932 27.5095 17.6941 26.6664C17.3825 26.5923 17.1485 26.5306 16.9701 26.4802C10.3409 24.9184 6.00684 23.2219 3.97898 21.401C1.96129 19.5924 0.94874 16.9283 0.94874 13.4221C0.94874 9.18597 2.43103 5.9636 5.40486 3.7468C8.36945 1.52898 12.7146 0.426758 18.408 0.426758C23.7 0.426758 27.8011 1.46626 30.6981 3.54836C33.6072 5.62943 35.2773 8.71505 35.7128 12.8278H23.0093C22.8974 11.6382 22.4406 10.6964 21.6269 10.0024C20.802 9.29598 19.7775 8.94948 18.5411 8.94948C17.2928 8.94948 16.3459 9.18494 15.6995 9.65688C15.043 10.1278 14.7194 10.8085 14.7194 11.7123C14.7194 13.2741 16.3237 14.438 19.5213 15.1948C20.3683 15.3809 21.0036 15.5289 21.4373 15.6287C27.8769 17.2758 32.0667 19.0227 34.0058 20.8694C35.944 22.7273 36.914 25.4397 36.914 29.022C36.914 33.5563 35.3318 36.9627 32.1675 39.2679C29.0032 41.5598 24.3122 42.7124 18.1176 42.7124C12.3688 42.7124 7.99032 41.5598 4.98135 39.2679C1.96129 36.9627 0.301452 33.5059 0 28.8852ZM64.4302 23.6938C63.082 24.2758 61.289 24.8958 59.0494 25.5394C55.518 26.581 53.7564 27.9804 53.7564 29.716C53.7564 30.8306 54.1023 31.6984 54.8041 32.3297C55.4949 32.962 56.4861 33.2715 57.7678 33.2715C60.1193 33.2715 61.8355 32.6638 62.9156 31.4619C63.9965 30.2476 64.531 28.3279 64.531 25.6885C64.531 25.1313 64.531 24.7107 64.5199 24.4372C64.5089 24.1871 64.4789 23.9384 64.4302 23.6938ZM65.7331 41.2986L64.8537 37.52C63.0487 39.2916 61.0985 40.5923 59.0152 41.4354C56.9207 42.2898 54.5702 42.7114 51.9634 42.7114C47.9632 42.7114 44.8654 41.6205 42.6702 39.4283C40.487 37.2352 39.3949 34.1506 39.3949 30.1489C39.3949 26.2592 40.4759 23.372 42.6258 21.5151C44.7767 19.6561 48.8546 18.2927 54.8383 17.4506C55.5956 17.3272 56.6211 17.2028 57.9018 17.0537C62.37 16.5211 64.5985 15.2328 64.5985 13.2011C64.5985 12.0731 64.1861 11.2434 63.3724 10.7231C62.5586 10.2029 61.2668 9.94272 59.5062 9.94272C58.0461 9.94272 56.9207 10.2646 56.1412 10.9082C55.3608 11.5405 54.9049 12.5317 54.7708 13.8571H40.9993C41.0659 9.43479 42.6924 6.08904 45.89 3.82186C49.0876 1.55468 53.7897 0.427785 59.9954 0.427785C62.9146 0.427785 65.6 0.723904 68.0735 1.33157C70.536 1.93821 72.464 2.74431 73.8335 3.77251C75.5044 5.02383 76.6852 6.4489 77.3547 8.03438C78.0344 9.61987 78.3691 11.8881 78.3691 14.8359V36.827C78.3691 37.5581 78.5032 38.2027 78.7584 38.7724C79.0266 39.342 79.4048 39.8129 79.9069 40.1717V41.2997H65.7331V41.2986ZM84.3371 41.2986V1.8395H97.1729V7.61283C98.8216 5.30864 100.671 3.59875 102.7 2.47184C104.739 1.34494 107.045 0.786625 109.608 0.786625C111.757 0.786625 113.686 1.18351 115.391 1.98859C117.064 2.76563 118.54 3.98635 119.691 5.54409C120.76 6.96918 121.517 8.70271 121.963 10.7478C122.409 12.7919 122.632 16.1376 122.632 20.783V41.2997H108.526V20.857C108.526 17.8578 108.17 15.7901 107.446 14.6632C106.733 13.5352 105.496 12.978 103.724 12.978C101.942 12.978 100.616 13.635 99.7472 14.9357C98.8789 16.2487 98.4434 18.2434 98.4434 20.9311V41.2997H84.3371V41.2986ZM140.164 21.5141C140.164 25.1683 140.621 27.7943 141.524 29.3921C142.428 30.991 143.908 31.7837 145.981 31.7837C148.053 31.7837 149.546 30.9786 150.471 29.3674C151.395 27.7562 151.863 25.1436 151.863 21.513C151.863 17.9071 151.395 15.3181 150.471 13.7327C149.546 12.1461 148.053 11.3544 145.981 11.3544C143.908 11.3544 142.427 12.1348 141.524 13.709C140.621 15.2822 140.164 17.8835 140.164 21.5141ZM125.903 21.5141C125.903 14.984 127.686 9.83065 131.262 6.07567C134.827 2.31041 139.73 0.427785 145.981 0.427785C152.232 0.427785 157.134 2.31041 160.688 6.07567C164.242 9.83065 166.024 14.984 166.024 21.5141C166.024 28.0925 164.241 33.2715 160.665 37.0491C157.101 40.8277 152.209 42.7114 145.98 42.7114C139.752 42.7114 134.85 40.8277 131.274 37.0491C127.697 33.2715 125.903 28.0935 125.903 21.5141ZM167.775 6.78307V2.12122H169.633C170.007 2.12122 170.291 2.16441 170.484 2.24769C170.679 2.33098 170.834 2.47904 170.952 2.69084C171.067 2.90368 171.126 3.13811 171.126 3.39413C171.126 3.72521 171.029 4.0018 170.837 4.22903C170.646 4.45626 170.348 4.60021 169.945 4.6619C170.093 4.74004 170.203 4.81716 170.279 4.89428C170.441 5.05982 170.595 5.26545 170.741 5.51428L171.469 6.78307H170.771L170.217 5.81245C170.091 5.59222 169.957 5.37815 169.815 5.17086C169.737 5.05104 169.642 4.94588 169.533 4.85931C169.456 4.8021 169.371 4.76002 169.281 4.7349C169.179 4.71732 169.075 4.7101 168.972 4.71331H168.329V6.78307H167.775ZM168.329 4.17864H169.521C169.774 4.17864 169.973 4.14883 170.116 4.09125C170.25 4.04129 170.365 3.94284 170.443 3.81158C170.516 3.68743 170.554 3.54226 170.553 3.39413C170.556 3.29146 170.538 3.18939 170.501 3.09532C170.464 3.00125 170.408 2.91753 170.339 2.85021C170.196 2.70832 169.969 2.63738 169.656 2.63738H168.33V4.17864H168.329ZM169.392 0.916178C170.235 0.917809 171.043 1.29102 171.639 1.95401C172.235 2.617 172.571 3.5157 172.572 4.45318C172.572 6.40059 171.143 7.98915 169.392 7.98915C167.64 7.98915 166.212 6.39956 166.212 4.45318C166.213 3.51562 166.548 2.61675 167.144 1.9537C167.74 1.29065 168.549 0.917538 169.392 0.916178ZM169.392 0.440125C170.348 0.442298 171.265 0.865689 171.941 1.61762C172.617 2.36955 172.998 3.38876 173 4.45215C173 6.66072 171.378 8.46314 169.392 8.46314C167.406 8.46314 165.784 6.66072 165.784 4.45215C165.786 3.38876 166.166 2.36955 166.843 1.61762C167.519 0.865689 168.435 0.442298 169.392 0.440125Z" fill="#999999"/>
</svg>
