<svg width="210" height="40" viewBox="0 0 210 40" fill="none" xmlns="http://www.w3.org/2000/svg">
<path d="M82.3694 4.1612C82.3694 3.21944 82.7057 2.31625 83.3043 1.65033C83.9029 0.984404 84.7148 0.61029 85.5613 0.61029C86.4079 0.61029 87.2197 0.984404 87.8183 1.65033C88.4168 2.31625 88.7531 3.21944 88.7531 4.1612C88.7223 5.08002 88.3725 5.94979 87.7773 6.58771C87.1821 7.22563 86.3878 7.58203 85.5613 7.58203C84.7349 7.58203 83.9405 7.22563 83.3453 6.58771C82.7501 5.94979 82.4003 5.08002 82.3694 4.1612Z" fill="#999999"/>
<path d="M132.73 27.8431C132.73 25.8723 134.157 24.2798 135.915 24.2798C136.764 24.2798 137.578 24.655 138.178 25.3228C138.779 25.9905 139.116 26.8962 139.116 27.8406C139.116 28.785 138.779 29.6907 138.178 30.3584C137.578 31.0262 136.764 31.4014 135.915 31.4014C134.159 31.4014 132.73 29.8064 132.73 27.8406" fill="#999999"/>
<path d="M29.9869 26.3024C27.2396 26.3024 25.3281 23.8742 25.3281 20.4024C25.3281 16.9331 27.2396 14.5073 29.9891 14.5073C32.7519 14.5073 34.6834 16.9331 34.6834 20.4024C34.6834 23.9286 32.7942 26.3024 29.9869 26.3024ZM29.9869 9.32192C24.1723 9.32192 19.9513 13.9831 19.9513 20.4024C19.9513 26.8242 24.1745 31.4829 29.9869 31.4829C35.826 31.4829 40.0624 26.8242 40.0624 20.4049C40.0624 13.9831 35.8259 9.32192 29.9891 9.32192H29.9869ZM76.1881 20.9588C75.9858 20.5234 75.73 20.1214 75.428 19.7644L75.2502 19.5592L75.437 19.3614C75.7037 19.0473 75.977 18.6764 76.2393 18.2462L81.3737 9.7596H75.1414L71.2848 16.399C71.067 16.7551 70.627 16.9331 69.9669 16.9331H69.0889V4.38132C69.0889 1.87146 67.6819 1.53021 66.1638 1.53021H63.5631L63.5698 31.1565H69.091V22.2694H69.609C70.238 22.2694 70.6647 22.351 70.8625 22.7318L73.9076 29.1264C74.7589 30.8622 75.6058 31.1565 77.2017 31.1565H81.4315L78.2798 25.3603L76.1904 20.9588H76.1881ZM102.99 9.27247C100.18 9.27247 98.3886 10.6622 97.384 11.8367L97.0507 12.2126L96.9306 11.7007C96.6372 10.4421 95.6414 9.75218 94.1455 9.75218H91.6716L91.6872 31.1491H97.1706V21.2877C97.1706 20.3233 97.2817 19.4875 97.5129 18.7234C98.1219 16.4114 99.8245 14.9747 101.952 14.9747C103.663 14.9747 104.332 15.9811 104.332 18.5775V27.8974C104.332 30.113 105.255 31.1491 107.248 31.1491H109.858L109.849 17.5389C109.849 12.1335 107.477 9.27494 102.99 9.27494V9.27247ZM85.628 9.7596H83.0297L83.0474 26.3049V31.1565H85.8192L85.917 31.1614L87.2107 31.1565H88.4954V31.1491H88.5042L88.5154 13.0113C88.5154 10.8229 87.5752 9.76208 85.6303 9.76208L85.628 9.7596ZM51.5227 26.3024C48.7754 26.3024 46.8617 23.8742 46.8617 20.4024C46.8617 16.9331 48.7755 14.5073 51.525 14.5073C54.2812 14.5073 56.2194 16.9331 56.2194 20.4024C56.2194 23.9286 54.3301 26.3024 51.525 26.3024H51.5227ZM51.5227 9.32192C45.7036 9.32192 41.4805 13.9831 41.4805 20.4024C41.4805 26.8242 45.7037 31.4829 51.525 31.4829C57.3552 31.4829 61.6005 26.8242 61.6005 20.4049C61.6005 13.9831 57.3552 9.32192 51.525 9.32192" fill="#999999"/>
<path d="M169.049 26.3025C166.301 26.3025 164.385 23.8742 164.385 20.4024C164.385 16.9331 166.301 14.5074 169.049 14.5074C171.809 14.5074 173.745 16.9331 173.745 20.4024C173.745 23.9286 171.856 26.3025 169.049 26.3025ZM169.049 9.32196C163.23 9.32196 159.009 13.9831 159.009 20.4024C159.009 26.8242 163.23 31.4829 169.049 31.4829C174.881 31.4829 179.124 26.8242 179.124 20.4049C179.124 13.9831 174.879 9.32196 169.049 9.32196Z" fill="#999999"/>
<path d="M121.409 25.3604C118.411 25.3604 117.344 22.4524 117.344 19.7249C117.344 18.5232 117.617 14.6088 121.123 14.6088C122.863 14.6088 125.181 15.1627 125.181 19.9252C125.181 24.4183 123.13 25.3604 121.409 25.3604ZM128.028 9.70283C126.988 9.70283 126.188 10.1652 125.786 11.0085L125.635 11.3349L125.381 11.0876C124.497 10.2369 122.91 9.22559 120.333 9.22559C115.206 9.22559 111.754 13.5109 111.754 19.8832C111.754 26.253 115.326 30.704 120.436 30.704C122.181 30.704 123.561 30.249 124.654 29.3292L125.077 28.9756V29.569C125.077 32.4275 123.416 34.0052 120.405 34.0052C118.94 34.0052 117.608 33.6095 116.715 33.2485C115.555 32.8578 114.87 33.1817 114.401 34.4799L113.965 35.6767L113.35 37.4275L113.73 37.6525C115.659 38.79 118.169 39.47 120.436 39.47C125.103 39.47 130.558 36.8117 130.558 29.3292L130.578 9.70283H128.028Z" fill="#999999"/>
<path d="M9.56879 26.0578L5.10558 26.0528V20.1182C5.10558 18.8472 5.5479 18.1894 6.52367 18.0361H9.56879C11.7404 18.0361 13.1451 19.5593 13.1473 22.0247C13.1451 24.5568 11.7759 26.0553 9.56879 26.0553V26.0578ZM5.10558 10.0441V8.48135C5.10558 7.1139 5.62572 6.46357 6.76597 6.37949H9.05096C11.0092 6.37949 12.1828 7.68264 12.1828 9.86609C12.1828 11.5278 11.3781 13.4689 9.12205 13.4689H5.10558V10.0441ZM15.2679 15.9689L14.461 15.4644L15.1656 14.7943C15.9858 14.0105 17.3573 12.2474 17.3573 9.20587C17.3573 4.54717 14.1121 1.54029 9.0865 1.54029H2.69836C1.97956 1.56944 1.29844 1.90515 0.796076 2.47783C0.293716 3.05052 0.00865608 3.81627 0 4.61641V31.0503H9.19978C14.7855 31.0503 18.3907 27.6675 18.3907 22.4278C18.3907 19.6063 17.2261 17.1954 15.2679 15.9689Z" fill="#999999"/>
<path d="M203.616 9.3443C202.484 9.34894 201.368 9.63644 200.349 10.1856C199.33 10.7347 198.435 11.5314 197.731 12.5169L197.335 13.0757L197.024 12.4501C196.006 10.3903 194.259 9.3443 191.829 9.3443C189.28 9.3443 187.571 10.9269 186.777 11.8665L186.257 12.4921L186.057 11.6687C185.768 10.4818 184.819 9.83144 183.383 9.83144H181.078L181.056 31.1467H186.29V21.7378C186.29 20.9119 186.384 20.0984 186.568 19.2453C187.068 16.9703 188.442 14.5248 190.751 14.7696C192.174 14.9229 192.872 16.1469 192.872 18.5109V31.1467H198.144V21.7378C198.144 20.7067 198.231 19.9352 198.44 19.1637C198.862 16.9926 200.298 14.7671 202.525 14.7671C204.139 14.7671 204.734 15.7809 204.734 18.5109V28.031C204.734 30.1823 205.597 31.1467 207.533 31.1467H209.996L210 17.5391C210 12.1014 207.848 9.3443 203.616 9.3443ZM155.975 23.7457C155.959 23.768 153.708 26.4089 150.74 26.4089C148.037 26.4089 145.308 24.5642 145.308 20.447C145.308 16.8912 147.424 14.4061 150.456 14.4061C151.438 14.4061 152.558 14.7968 152.734 15.457L152.758 15.5683C152.87 16.0228 153.114 16.4235 153.452 16.7083C153.789 16.9931 154.202 17.146 154.625 17.1434L157.493 17.1484V14.3591C157.493 10.6796 153.285 9.3443 150.456 9.3443C144.401 9.3443 140.009 14.0327 140.009 20.4915C140.009 26.9455 144.352 31.6289 150.345 31.6289C155.541 31.6289 158.369 27.8283 158.395 27.7912L158.546 27.5835L156.275 23.3921L155.975 23.7457Z" fill="#999999"/>
</svg>
