<svg width="116" height="106" viewBox="0 0 116 106" fill="none" xmlns="http://www.w3.org/2000/svg">
<path d="M76.2302 7.98351C85.3805 7.98351 92.7995 51.436 92.7995 105.038H106.058C106.058 47.3114 92.7019 0.516602 76.2306 0.516602C66.8588 0.516602 58.4974 14.5803 53.0302 36.572C47.564 14.5803 39.2 0.516602 29.8289 0.516602C13.3576 0.516602 0 47.3114 0 105.038H13.26C13.26 51.436 20.6798 7.98351 29.8289 7.98351C38.9808 7.98351 46.4025 48.0937 46.4025 97.5749H59.6578C59.6582 48.0937 67.0776 7.98351 76.2302 7.98351ZM112.694 97.5749C114.493 97.5749 116 99.1787 116 101.289C116 103.432 114.493 105.037 112.694 105.037C110.89 105.037 109.37 103.431 109.37 101.289C109.37 99.1787 110.89 97.5749 112.694 97.5749ZM112.694 104.492C114.217 104.492 115.4 103.114 115.4 101.29C115.4 99.4981 114.217 98.1213 112.694 98.1213C111.152 98.1213 109.971 99.4981 109.971 101.29C109.97 103.113 111.152 104.492 112.694 104.492ZM111.405 99.1217H112.899C113.813 99.1217 114.244 99.5316 114.244 100.367C114.244 101.156 113.807 101.485 113.235 101.554L114.334 103.483H113.689L112.641 101.606H112.007V103.483H111.406L111.405 99.1217ZM112.007 101.059H112.633C113.16 101.059 113.646 101.029 113.646 100.338C113.646 99.7582 113.206 99.6672 112.8 99.6672H112.008L112.007 101.059Z" fill="#999999"/>
</svg>
