<svg width="155" height="38" viewBox="0 0 155 38" fill="none" xmlns="http://www.w3.org/2000/svg">
<path d="M51.8781 15.205C53.0743 12.1441 53.0444 9.1165 52.3267 6.72101C51.4295 3.79318 47.751 -0.0662222 46.5847 1.46423C46.4352 1.66386 44.3118 1.39769 43.9829 1.89675C43.4744 2.62871 43.7735 2.8616 44.0128 3.12777C44.7604 3.85972 46.6445 4.65822 47.5118 7.15352C47.8707 8.21819 48.708 10.6802 47.2426 12.1774C45.5978 13.8409 43.7436 14.2402 36.1474 6.3883C28.0728 -1.96265 17.2468 1.43096 13.658 2.76179C10.0693 4.09262 8.42444 5.42345 9.83003 8.48435C11.744 12.6765 11.116 11.3789 13.0001 14.8391C15.9608 20.3287 22.4803 12.3105 22.4803 12.3105C17.6355 20.4285 13.4786 18.4656 11.8936 15.6376C10.4581 13.0757 9.35153 10.1479 9.35153 10.1479C-2.90999 15.072 0.409596 36.7645 0.409596 36.7645H6.51045C8.06557 28.7795 13.6281 29.0789 14.5552 36.7645H19.1907C23.2878 21.1605 32.0802 36.7645 32.0802 36.7645H37.2839C37.2839 28.4468 36.5063 25.3193 40.3343 24.7205C46.8538 23.7556 49.9043 20.362 51.8781 15.205Z" fill="#999999"/>
<path d="M73.8593 13.1088V16.4026C74.4873 15.2049 75.9228 12.4767 80.5882 12.643L80.5583 18.3323C79.4816 18.3656 77.5975 18.3989 76.0723 19.6964C73.949 21.4931 73.8593 23.8553 73.8593 27.6814V36.4316H69.0444V13.0756L73.8593 13.1088ZM82.5919 20.0957C82.6816 18.9312 82.7713 17.8 83.4292 16.4692C85.433 12.4434 90.3675 12.4767 91.7133 12.4767C93.717 12.4767 96.1095 12.7761 97.9337 13.9739C100.386 15.6374 100.416 17.8333 100.416 20.3286L100.386 32.5722C100.386 34.3356 100.386 35.0342 101.283 36.4316H95.3917C95.3618 35.866 95.2721 34.8013 95.2721 34.5019C94.1955 35.5 91.9824 36.8309 89.1114 36.8309C84.4162 36.7976 81.605 33.5703 81.605 29.5778C81.605 28.4134 81.8741 27.3487 82.2928 26.4504C83.7881 23.1233 86.9881 22.3914 88.9918 21.9921C95.7805 20.7278 95.3917 19.9959 95.2721 18.8647C95.1824 17.8 94.1955 16.8019 91.8927 16.8019C89.8292 16.8019 88.6927 17.5338 88.1843 18.2658C87.646 18.9978 87.6759 19.4635 87.6759 20.129L82.5919 20.0957ZM95.3917 24.7869C94.4048 25.3525 93.2684 25.7517 91.0254 26.151C89.231 26.4171 86.8685 26.8829 86.8685 29.3117C86.8685 31.1083 88.2441 32.0399 90.218 32.0399C92.76 32.0399 94.5543 30.7756 95.0927 29.3782C95.3917 28.6795 95.3917 27.9809 95.3917 27.3154V24.7869ZM122.726 3.75977L122.636 36.4316H117.702V34.1692C116.147 36.232 114.083 37.0638 111.93 37.0638C106.995 37.0305 102.719 32.9049 102.749 25.2859C102.779 18.3989 106.278 12.5432 112.229 12.5765C114.263 12.5765 116.147 13.2419 117.732 15.1716V3.75977H122.726ZM116.565 19.8295C115.818 18.5652 114.591 17.7002 112.917 17.7002C109.537 17.7002 107.922 21.0605 107.922 24.7203C107.922 25.1528 107.952 32.0731 112.797 32.0731C115.369 32.0731 117.702 29.9771 117.672 24.9865C117.612 23.4893 117.462 21.36 116.565 19.8295ZM131.399 3.75977L131.309 36.4316H126.285V3.75977H131.399ZM153.679 31.0085C151.376 35.5333 148.445 37.1968 144.199 37.1968C138.756 37.1636 133.522 33.3374 133.552 24.8201C133.582 17.0681 138.068 12.6763 143.929 12.7096C149.402 12.7429 151.675 16.4026 152.094 17.0681C153.798 19.763 154.157 23.7887 154.187 26.0844L138.815 26.0179C139.384 29.6777 141.417 31.7737 144.707 31.7737C148.116 31.7737 149.013 29.5446 149.642 28.5797L153.679 31.0085ZM148.744 21.9921C148.296 18.3989 146.322 17.1346 144.109 17.1346C141.447 17.1346 139.623 18.8314 139.025 21.9588L148.744 21.9921Z" fill="#999999"/>
<path d="M53.7025 19.3638V24.1548H61.0594V29.7775C59.1753 31.1083 57.022 31.8735 53.9417 31.8735C48.9773 31.8735 44.8801 27.2489 44.8801 20.0292C44.8801 12.9425 48.6483 8.21811 54.3903 8.21811C58.9958 8.21811 60.7304 12.4435 60.9996 14.0405H66.0238C66.0238 10.7799 62.5547 2.76172 53.9417 2.76172C44.8203 2.76172 39.4372 9.94818 39.4372 20.0625C39.4372 30.576 45.8969 37.1636 53.6127 37.1636C65.0369 37.1636 66.0238 30.8089 66.0238 30.8089V19.3638H53.7025Z" fill="#999999"/>
<path d="M52.8053 9.58207C51.6988 9.68188 50.5923 9.88151 49.5455 10.2142C49.5156 10.2475 49.4857 10.314 49.4558 10.3473C48.9773 10.9462 48.3792 11.5118 47.7213 11.8445C47.6315 11.911 47.5418 11.9443 47.4521 11.9776L47.2727 12.1772C45.6278 13.8407 43.6241 14.24 36.1775 6.38808C28.1925 -2.0294 17.2768 1.43075 13.6881 2.76158C10.0993 4.0924 8.45448 5.42323 9.86007 8.48414C11.7741 12.6762 11.146 11.3787 13.0301 14.8388C15.9908 20.3285 22.5104 12.3103 22.5104 12.3103C17.6656 20.4283 13.5086 18.4653 11.9236 15.6373C10.4881 13.0755 9.38157 10.1477 9.38157 10.1477C-2.87996 15.0717 0.439625 36.7642 0.439625 36.7642H6.54048C8.0956 28.7793 13.6581 29.0787 14.5852 36.7642H19.2207C23.3178 21.1603 32.1102 36.7642 32.1102 36.7642H37.3139C37.3139 28.4465 36.5364 25.3191 40.3643 24.7202C46.9138 23.7221 49.9343 20.3285 51.9081 15.2048C52.6259 13.2751 52.895 11.3454 52.8053 9.58207Z" fill="#999999"/>
<path d="M30.7045 11.7446C30.7045 11.7446 33.5157 12.776 37.2839 14.1734C37.0745 15.3046 35.1904 17.4672 32.768 16.5356C29.5382 15.3711 30.7045 11.7446 30.7045 11.7446Z" fill="#999999"/>
<path d="M34.0788 15.8251C35.015 15.7144 35.696 14.81 35.6001 13.8051C35.5041 12.8001 34.6673 12.0751 33.7312 12.1858C32.795 12.2965 32.1139 13.2009 32.2099 14.2059C32.3059 15.2108 33.1426 15.9358 34.0788 15.8251Z" fill="#999999"/>
<path d="M44.0129 3.161C44.2222 3.36063 44.4914 3.56026 44.7605 3.75989C46.0166 2.59538 47.6614 2.62866 49.067 1.9965C47.8409 0.732179 45.8671 -0.232695 45.2689 0.565821C45.1194 0.76545 44.3418 1.43088 44.0129 1.92995C43.4746 2.66193 43.7437 2.89483 44.0129 3.161Z" fill="#999999"/>
</svg>
