<svg width="153" height="95" viewBox="0 0 153 95" fill="none" xmlns="http://www.w3.org/2000/svg">
<path fill-rule="evenodd" clip-rule="evenodd" d="M11.2188 94.6837C42.4211 79.8149 86.2024 66.3378 144.187 79.8323L144.795 63.4791C83.6185 56.0519 39.7215 77.7173 11.2188 93.0716V94.6837Z" fill="#999999"/>
<path fill-rule="evenodd" clip-rule="evenodd" d="M43.8474 51.5619L57.3708 1.98078H69.4374L55.9131 51.5619H43.8474ZM38.4533 1.99432L27.5991 23.0118C24.836 28.5164 23.2209 31.2968 22.4442 34.7753H22.279C22.4712 30.3655 21.918 24.9518 21.8659 21.8919L20.6674 1.99432H0.355708L0.146973 3.32792C5.36535 3.32792 8.45984 6.24269 9.31131 12.2047L13.2703 51.5619H25.7709L51.047 1.99432H38.4533ZM132.289 51.5619L131.956 44.1879L116.889 44.1744L113.808 51.5609H100.708L124.461 2.07459H140.54L144.563 51.5609H132.289V51.5619ZM130.906 22.3155C130.772 18.6513 130.659 13.6776 130.884 10.668H130.705C129.971 13.1292 126.817 20.5206 125.43 24.1559L120.94 35.0239H131.52L130.906 22.3155ZM82.105 52.9709C73.586 52.9709 67.9328 49.9662 63.8964 47.2874L69.6444 37.5267C73.2677 39.78 76.1126 42.3804 82.6582 42.3804C84.7629 42.3804 86.7911 41.7721 87.9426 39.5546C89.6212 36.3294 87.5556 34.5945 82.8417 31.6275L80.5143 29.9448C73.5269 24.6355 70.5046 19.5932 73.7939 10.7909C75.8986 5.16053 81.4501 0.892822 90.6084 0.892822C96.9243 0.892822 102.845 3.93041 106.296 6.89837L99.6875 15.516C96.3207 12.4881 93.5298 10.9562 90.3361 10.9562C87.7896 10.9562 85.8553 12.0481 85.1873 13.5209C83.9306 16.2897 85.5935 18.1774 89.2655 20.7121L92.033 22.6695C100.516 28.6189 102.538 34.8575 100.411 40.69C96.7547 50.7292 89.5951 52.9709 82.105 52.9709ZM147.863 9.6497H147.069V4.27469H148.903C150.07 4.27469 150.666 4.72922 150.666 5.82008C150.666 6.79296 150.127 7.19526 149.404 7.28617L150.758 9.6497H149.86L148.611 7.35193H147.863V9.6497ZM148.75 6.59857C149.346 6.59857 149.871 6.53378 149.871 5.75432C149.871 5.10541 149.299 5.02707 148.821 5.02707H147.863V6.59857H148.75ZM148.726 11.727C146.217 11.727 144.431 9.63713 144.431 6.87129C144.431 3.94975 146.415 2.0156 148.726 2.0156C151.016 2.0156 153 3.94975 153 6.87129C153 9.79186 151.016 11.727 148.726 11.727ZM148.726 2.85986C146.835 2.85986 145.365 4.50776 145.365 6.87129C145.365 9.07816 146.649 10.8827 148.726 10.8827C150.594 10.8827 152.066 9.2474 152.066 6.87129C152.066 4.50776 150.594 2.85986 148.726 2.85986Z" fill="#999999"/>
</svg>
