<svg width="135" height="72" viewBox="0 0 135 72" fill="none" xmlns="http://www.w3.org/2000/svg">
<path fill-rule="evenodd" clip-rule="evenodd" d="M110.646 55.4645L111.957 50.6675L111.36 50.9064L110.597 51.1185L109.717 51.3313L108.715 51.5433L106.38 51.9144L103.734 52.2325L100.897 52.4975L98.0136 52.6827L95.1773 52.8148L92.531 52.8678H82.6873L82.1145 52.8417L81.5908 52.7887L81.1126 52.7088L80.6843 52.6027L80.3271 52.4437L80.0168 52.2586L79.7308 52.0465L79.5152 51.7815L79.3487 51.4895L79.254 51.1446L79.1814 50.7735L79.158 50.3763L79.1814 49.8984L79.2298 49.4213L79.491 48.282L85.1877 30.1801L85.641 29.0407L85.8801 28.5367L86.1412 28.0865L86.4272 27.6625L86.7375 27.2914L87.0712 26.9733L87.4284 26.6553L87.787 26.4163L88.1912 26.1782L88.621 25.993L89.0977 25.8609L89.5745 25.7288L90.0982 25.6488L90.671 25.6227L91.2673 25.5958H91.7675L93.4838 25.6227L95.0335 25.7288L96.3912 25.9139L97.5838 26.1789L98.5607 26.5239L99.014 26.7091L99.3947 26.9211L99.7284 27.1592L100.04 27.4243L100.301 27.6894L100.515 27.9813L102.208 16.876H81.8284L80.6124 16.9029L79.4689 17.0089L78.3489 17.1679L77.2759 17.4061L76.252 17.698L75.2501 18.0422L74.3201 18.4402L73.4392 18.8904L72.5803 19.4205L71.7698 19.9767L70.9836 20.5867L70.2692 21.2759L69.5533 21.965L68.9101 22.7341L68.2903 23.5292L67.7189 24.3774L67.6713 23.5292L67.5524 22.7341L67.3859 21.965L67.1234 21.2759L66.811 20.5851L66.4303 19.9751L65.977 19.4189L65.4526 18.8888L64.8329 18.4386L64.1654 18.0406L63.4026 17.6965L62.5445 17.4045L61.6152 17.1664L60.614 17.0073L59.494 16.9013L58.3022 16.8744H42.4985L41.831 16.9013L41.1878 16.9812L40.6157 17.1133L40.0671 17.2993L39.5426 17.5113L39.0901 17.7764L38.6368 18.0683L38.2312 18.3856L37.8498 18.7037L37.4926 19.0486L36.8729 19.7908L36.3485 20.5329L35.9194 21.2221H35.7529L42.1882 0.707764H26.028L25.5036 0.733871L25.0268 0.813784L24.5743 0.919804L24.1452 1.07884L23.7403 1.26398L23.3355 1.50292L22.9776 1.74186L22.6438 2.03303L22.0241 2.66916L21.4755 3.38519L20.9987 4.12734L20.5938 4.9225L20.2601 5.69155L19.9975 6.45901L19.7592 7.14815L19.5927 7.78428L19.402 8.73847L19.3301 9.10954L5.45756 53.2381L4.93314 54.8284L4.38524 56.2067L3.86082 57.3998L3.31221 58.4331L2.78779 59.3612L2.23989 60.1564L1.69128 60.8985L1.11918 61.5884H21.3559L24.121 56.8175L24.2882 57.9568L24.5024 58.9371L24.7408 59.7592L24.8838 60.1041L25.0503 60.4214L25.2175 60.6865L25.4317 60.9254L25.6701 61.1374L25.9085 61.2965L26.1945 61.4294L26.5048 61.5093L26.862 61.5615L27.2433 61.5884H44.2624L45.4778 61.5615L46.6461 61.4555L47.7426 61.2965L48.815 61.0575L49.8396 60.7664L50.8408 60.4214L51.7708 60.0234L52.6766 59.5732L53.5105 59.0439L54.321 58.4869L55.1073 57.8508L55.8466 57.1878L56.5375 56.4725L57.1808 55.7304L57.8005 54.9083L58.3726 54.0609L58.4203 54.9083L58.5391 55.7304L58.7298 56.4725L58.9682 57.1878L59.2784 57.8508L59.6598 58.4869L60.1131 59.0439L60.6375 59.5732L61.2573 60.0234L61.9247 60.4214L62.711 60.7664L63.5449 61.0575L64.4749 61.2965L65.4996 61.4555L66.5961 61.5615L67.788 61.5884H102.35L103.589 61.5085L104.686 61.3234L105.686 61.0314L106.569 60.6342L107.355 60.1564L108.022 59.6524L108.619 59.0961L109.095 58.5399L109.525 57.9568L109.859 57.4006L110.12 56.8966L110.336 56.4195L110.573 55.7304L110.646 55.4645ZM46.9557 29.0407L40.5438 49.4221L40.2343 50.2964L39.8764 51.0116L39.4715 51.594L39.0424 52.0718L38.5415 52.4168L37.9694 52.6819L37.3496 52.814L36.6345 52.867H28.6259L27.9585 52.814L27.4099 52.6819L27.1957 52.5758L27.005 52.4168L26.8385 52.2578L26.7196 52.0726L26.6243 51.8606L26.5766 51.5947L26.5531 51.3305V51.0124L26.6485 50.2972L26.8869 49.4229L33.2987 29.0415L33.6082 28.1672L33.942 27.4512L34.3468 26.8412L34.8001 26.391L35.3003 26.0199L35.8489 25.7818L36.4922 25.6496L37.1838 25.5966H45.2166L45.8841 25.6496L46.4327 25.7818L46.6476 25.8878L46.8383 26.0199L46.9813 26.1789L47.1008 26.391L47.1962 26.603L47.268 26.8412L47.2915 27.1331V27.4512L47.1727 28.1672L46.9557 29.0407ZM125.399 22.7056L125.233 23.4738L124.923 24.6401L124.493 26.0444L123.993 27.5287L123.421 28.9861L123.135 29.6223L122.825 30.2054L122.539 30.6825L122.229 31.0804L121.943 31.3186L121.8 31.3985L121.657 31.4254H121.562L121.466 31.3985L121.346 31.2395L121.252 31.0282L121.229 30.8162L121.252 30.3122V29.809L121.156 29.2528L120.99 28.6697L120.752 28.0335L120.466 27.4235L119.823 26.2312L119.203 25.224L118.273 25.675L117.343 26.1521L116.413 26.6822L115.507 27.2653L114.626 27.8753L113.744 28.5114L112.1 29.8628L111.551 30.3929L110.98 31.029L110.431 31.7443L109.907 32.5133L109.384 33.3615L108.882 34.2627L108.407 35.1907L107.977 36.1441L107.547 37.1252L107.166 38.1055L106.831 39.0858L106.522 40.04L106.283 40.9942L106.069 41.8954L105.926 42.7697L105.83 43.5648L105.973 43.6178L106.164 43.7769L106.569 44.254L107.046 44.9431L107.523 45.7383L107.976 46.5864L108.357 47.3816L108.643 48.0438L108.762 48.4679L108.739 48.786L108.643 49.0771L108.572 49.1832L108.452 49.2892L108.333 49.3422L108.19 49.3952L108.047 49.3683L107.88 49.2623L107.476 48.8912L106.951 48.335L106.331 47.725L105.617 47.115L105.234 46.8491L104.806 46.611L104.353 46.4258L103.9 46.2929L103.399 46.2407H102.899L102.254 46.3728L101.707 46.558L101.183 46.7969L100.753 47.062L100.062 47.539L99.823 47.6981L99.6565 47.778L99.4189 47.7519L99.2033 47.619L99.0603 47.4069L98.9891 47.168L99.0126 46.9298L99.1321 46.6379L99.2986 46.3467L99.5363 46.0017L100.133 45.2865L100.872 44.5974L101.635 43.9612L102.349 43.4572L102.922 43.1392L103.136 43.087H103.303L103.088 42.3448L102.945 41.5765L102.826 40.7806L102.755 39.9854L102.682 38.8192L102.659 37.6V36.4076L102.73 35.1615L102.849 33.9422L103.04 32.723L103.279 31.5299L103.565 30.3375L103.922 29.1713L104.328 28.0319L104.828 26.9456L105.376 25.9115L105.972 24.9051L106.663 23.977L107.426 23.1028L108.26 22.3076L107.76 21.5924L107.45 21.1944L107.116 20.8233L106.759 20.4783L106.401 20.2133L106.019 20.0281L105.829 19.9751H105.638L105.281 19.949L104.995 19.8169L104.852 19.7109L104.756 19.5526L104.684 19.3667L104.661 19.1547V18.9695L104.684 18.7844L104.756 18.6253L104.852 18.4932L105.089 18.2812L105.4 18.1221L105.758 17.99L106.092 17.937L106.712 17.8571L107.522 17.778L108.404 17.7511L109.333 17.778L110.287 17.831L111.24 17.9631L112.146 18.1221L113.005 18.335L113.766 18.5992L115.602 17.831L116.532 17.4599L117.485 17.1418L118.439 16.8507L119.416 16.6117L120.393 16.3997L121.371 16.2668L123.111 16.1346L124.159 16.1085H125.256L126.329 16.1346L127.354 16.2137L128.283 16.3736L129.045 16.5856L129.284 16.7177L129.522 16.8768L129.999 17.327L130.404 17.831L130.738 18.335L131.454 18.282L132.526 18.3081L133.051 18.3611L133.503 18.4932L133.695 18.5731L133.838 18.6791L133.932 18.8113L133.979 18.9703L134.004 19.1823L133.979 19.3153L133.932 19.4474L133.718 19.7393L133.36 20.0044L132.884 20.2956L132.311 20.5606L131.644 20.8257L130.214 21.3297L128.687 21.7799L127.281 22.177L126.137 22.4682L125.399 22.7056ZM127.878 17.6704L127.402 17.7764L126.782 17.9884L126.496 18.1474L126.282 18.3334L126.139 18.5454L126.092 18.6776V18.8097L126.115 18.9418L126.162 19.0478L126.353 19.233L126.615 19.392L126.901 19.4719L127.545 19.5518H128.045L128.522 19.4458L129.118 19.2338L129.403 19.0747L129.618 18.8896L129.761 18.6514L129.808 18.5454V18.3856L129.785 18.2796L129.712 18.1736L129.546 17.9884L129.284 17.8555L128.998 17.7495L128.379 17.6696H127.878V17.6704ZM128.093 19.2868L127.782 19.3137L127.306 19.2868L127.068 19.2338L126.876 19.1539L126.734 19.0217L126.662 18.8627L126.685 18.6768L126.828 18.5446L126.995 18.4125L127.21 18.3065L127.662 18.1744L127.997 18.1213H128.354L128.808 18.1482L129.045 18.2013L129.236 18.2812L129.379 18.4133L129.452 18.5723L129.403 18.7314L129.285 18.8904L129.119 18.9964L128.903 19.1024L128.45 19.2346L128.093 19.2868Z" fill="#999999"/>
<path fill-rule="evenodd" clip-rule="evenodd" d="M2.07272 68.1604H5.57643L5.79132 68.1865L5.93435 68.2925L6.00622 68.4777L6.0297 68.7957V70.625L6.00622 70.9161L5.93435 71.1282L5.79132 71.2081L5.57643 71.2342H2.07272V68.1604ZM0.97692 70.678L0.952727 71.341L0.880859 71.8711H5.60063L6.0055 71.8442L6.31574 71.792L6.5776 71.7121L6.79249 71.5791L6.93551 71.3671L7.05434 71.1282L7.10202 70.7832L7.1255 70.386V68.7166L7.07782 68.5038L7.00595 68.3186L6.91061 68.2126L6.76758 68.1066L6.60108 68.0536L6.19549 67.9737V67.9476L6.60108 67.8946L6.76758 67.8423L6.91061 67.7355L7.00595 67.6034L7.07782 67.4444L7.1255 67.2323V65.695L7.10202 65.2979L7.05434 64.9798L6.93551 64.7147L6.79249 64.5027L6.5776 64.3698L6.31574 64.2899L6.0055 64.2376L5.60063 64.2107H0.880859L0.952727 64.7408L0.97692 65.43V70.678ZM2.07272 64.8477H5.57643L5.79132 64.8738L5.93435 64.9798L6.00622 65.1649L6.0297 65.4561V66.9934L6.00622 67.3114L5.93435 67.4966L5.79132 67.5765L5.57643 67.6026H2.07272V64.8477ZM18.6392 64.2107L18.6869 64.926L18.2578 64.8738L17.352 64.8477H14.5392V67.7355H17.0895L17.9953 67.7094L18.4955 67.6572V68.4515L17.9953 68.3724L17.0895 68.3463H14.5392V71.2342H17.352L18.2578 71.2081L18.6869 71.1551L18.6392 71.8711H13.3474L13.4192 71.341L13.4427 70.678V65.4039L13.4192 64.7408L13.3474 64.2107H18.6392ZM29.1746 68.9025H26.0046L27.5536 65.2709L29.1746 68.9025ZM31.7013 71.8711L31.3434 71.2611L31.0097 70.492L28.2446 64.2107H26.862L27.0534 64.4497L27.2199 64.6886L24.4783 71.049L24.2399 71.4731L23.978 71.8711H24.8832L24.955 71.4731L25.1934 70.8109L25.742 69.5386H29.4129L29.8897 70.6258L30.128 71.235L30.2234 71.553L30.2711 71.8711H31.7013ZM42.4985 64.2107L42.5462 64.9798L42.2601 64.8999L41.9029 64.8738L40.8783 64.8477H38.8518L38.6134 64.8738L38.4704 64.9798L38.3985 65.1649L38.3743 65.4561V70.625L38.3985 70.9161L38.4704 71.1282L38.6134 71.2081L38.8518 71.2342H41.9029L42.3078 71.182L42.6657 71.1021L42.5938 71.8711H38.8041L38.3992 71.8442L38.089 71.792L37.8264 71.7121L37.6115 71.5791L37.4692 71.3671L37.3497 71.1282L37.302 70.7832L37.2778 70.386V65.6942L37.302 65.2971L37.3497 64.979L37.4692 64.7139L37.6115 64.5019L37.8264 64.369L38.089 64.2891L38.3992 64.2369L38.8041 64.21H42.4985V64.2107ZM49.7685 68.2925V70.678L49.7927 71.341L49.8646 71.8711H48.5773L48.6492 71.341L48.6727 70.678V65.4039L48.6492 64.7408L48.5773 64.2107H49.8646L49.7927 64.7408L49.7685 65.4039V67.6572H53.7973V65.4039L53.7731 64.7408L53.702 64.2107H54.9892L54.918 64.7408L54.8938 65.4039V70.678L54.918 71.341L54.9892 71.8711H53.702L53.7731 71.341L53.7973 70.678V68.2925H49.7685ZM75.3205 64.2107L75.3917 64.9798L75.0815 64.8999L74.7243 64.8738L73.7238 64.8477H71.6738L71.4347 64.8738L71.2917 64.9798L71.2206 65.1649V70.9161L71.2917 71.1282L71.4347 71.2081L71.6738 71.2342H74.7477L75.1299 71.182L75.4871 71.1021L75.4145 71.8711H71.6247L71.244 71.8442L70.9103 71.792L70.6478 71.7121L70.4571 71.5791L70.2905 71.3671L70.1945 71.1282L70.1233 70.7832L70.0998 70.386V65.6942L70.1233 65.2971L70.1945 64.979L70.2905 64.7139L70.4571 64.5019L70.6478 64.369L70.9103 64.2891L71.244 64.2369L71.6247 64.21H75.3205V64.2107ZM81.494 71.8711L81.5652 71.341L81.5901 70.678V65.4039L81.5652 64.7408L81.494 64.2107H82.7812L82.7101 64.7408L82.6866 65.4039V71.2342H85.7371L86.6429 71.2081L87.0712 71.1551L87.0243 71.8711H81.494ZM97.988 71.2342L98.2271 71.2081L98.3701 71.1282L98.4412 70.9161L98.4647 70.625V65.5091L98.4177 64.8469L98.3708 64.21H99.1336L99.0375 65.0842L99.014 65.8533V70.7832L98.9671 71.1013L98.871 71.3663L98.7515 71.5514L98.6084 71.7105L98.3943 71.7904L98.1317 71.8426L97.8215 71.8695H94.3903L94.0317 71.8426L93.7215 71.7904L93.4838 71.7105L93.2931 71.5514L93.1501 71.3663L93.054 71.1013L93.007 70.7832L92.9836 70.386V65.4031L92.9601 64.7401L92.8875 64.21H94.1747L94.1036 64.7401L94.0801 65.4031V70.625L94.1036 70.9161L94.1747 71.1282L94.2943 71.2081L94.5084 71.2342H97.988ZM106.546 68.1604H110.05L110.287 68.1865L110.407 68.2925L110.479 68.4777L110.503 68.7957V70.625L110.479 70.9161L110.407 71.1282L110.287 71.2081L110.05 71.2342H106.546V68.1604ZM105.449 70.678L105.426 71.341L105.353 71.8711H110.097L110.479 71.8442L110.789 71.792L111.05 71.7121L111.266 71.5791L111.432 71.3671L111.527 71.1282L111.599 70.7832V68.7166L111.551 68.5038L111.48 68.3186L111.384 68.2126L111.241 68.1066L111.098 68.0536L110.669 67.9737V67.9476L111.098 67.8946L111.241 67.8423L111.384 67.7355L111.48 67.6034L111.551 67.4444L111.599 67.2323V65.2979L111.527 64.9798L111.432 64.7147L111.266 64.5027L111.05 64.3698L110.789 64.2899L110.479 64.2376L110.097 64.2107H105.353L105.426 64.7408L105.449 65.43V70.678ZM106.546 64.8477H110.05L110.287 64.8738L110.407 64.9798L110.479 65.1649L110.503 65.4561V66.9934L110.479 67.3114L110.407 67.4966L110.287 67.5765L110.05 67.6026H106.546V64.8477Z" fill="#999999"/>
</svg>
