<svg width="47" height="80" viewBox="0 0 47 80" fill="none" xmlns="http://www.w3.org/2000/svg">
<path d="M44.5774 47.6754C43.4219 45.6251 41.8579 43.8336 39.9823 42.412C38.1067 40.9903 35.9593 39.9685 33.673 39.41C31.5278 38.7664 29.3507 38.2346 27.1503 37.8167V15.2362C31.5248 15.7054 35.6982 17.3198 39.2497 19.9166C39.4949 20.134 39.7805 20.301 40.0902 20.4081C40.4 20.5151 40.7278 20.5601 41.0549 20.5404C41.382 20.5208 41.702 20.4369 41.9967 20.2935C42.2914 20.1502 42.555 19.9502 42.7724 19.705C42.9898 19.4598 43.1568 19.1742 43.2639 18.8645C43.3709 18.5547 43.4159 18.2269 43.3962 17.8998C43.3766 17.5727 43.2927 17.2526 43.1493 16.9579C43.006 16.6633 42.806 16.3997 42.5608 16.1823C38.1052 12.7506 32.7547 10.6761 27.1503 10.2073V2.48958C27.1503 1.8293 26.888 1.19607 26.4212 0.72918C25.9543 0.262294 25.321 0 24.6608 0C24.0005 0 23.3672 0.262294 22.9004 0.72918C22.4335 1.19607 22.1712 1.8293 22.1712 2.48958V9.95831C11.217 10.2073 5.16736 15.6594 3.32507 20.3647C2.09605 23.3947 1.97929 26.7619 2.99547 29.8696C4.01165 32.9774 6.09517 35.6252 8.87683 37.3437C12.9259 39.8119 17.4611 41.3746 22.1712 41.9245V64.729C15.6717 64.4018 9.44541 62.0125 4.39559 57.9076C4.17023 57.6394 3.89081 57.4218 3.57559 57.269C3.26038 57.1162 2.91646 57.0316 2.56632 57.0208C2.21619 57.01 1.86771 57.0732 1.54368 57.2063C1.21964 57.3394 0.927345 57.5394 0.685889 57.7932C0.444432 58.047 0.259251 58.3489 0.142454 58.6791C0.0256575 59.0094 -0.0201278 59.3606 0.00809105 59.7097C0.0363099 60.0589 0.137899 60.3982 0.306216 60.7054C0.474532 61.0126 0.705787 61.2809 0.984866 61.4926C6.93977 66.506 14.3931 69.3963 22.1712 69.7082V77.1769C22.1712 77.8372 22.4335 78.4704 22.9004 78.9373C23.3672 79.4042 24.0005 79.6665 24.6608 79.6665C25.321 79.6665 25.9543 79.4042 26.4212 78.9373C26.888 78.4704 27.1503 77.8372 27.1503 77.1769V69.7082C34.1709 69.2352 42.2621 66.9946 45.3242 57.8578C45.8783 56.1953 46.0975 54.4396 45.9693 52.6919C45.8411 50.9442 45.368 49.2393 44.5774 47.6754ZM11.6901 33.1612C9.87216 32.0791 8.49989 30.3839 7.81993 28.3806C7.13998 26.3772 7.19694 24.197 7.98058 22.2319C8.25443 21.4851 11.0428 15.2362 22.1712 14.9375V36.8458C18.4573 36.3679 14.886 35.1124 11.6901 33.1612ZM40.5941 56.1649C38.8016 61.4926 34.8182 64.0568 27.1503 64.6294V42.8954C28.7437 43.244 30.3868 43.6423 32.1295 44.1651C33.7757 44.539 35.3287 45.2439 36.694 46.2368C38.0593 47.2297 39.2083 48.49 40.0712 49.9409C41.0477 51.8688 41.2352 54.1011 40.5941 56.1649Z" fill="#AA1E21"/>
</svg>
