<svg width="78" height="81" viewBox="0 0 78 81" fill="none" xmlns="http://www.w3.org/2000/svg">
<path d="M45.5679 12.2879C42.9744 10.5975 40.065 9.418 37.0251 8.82147L37.0644 2H27.5984L27.6162 8.87504C26.1221 9.18525 24.6371 9.63293 23.1824 10.2395C21.7278 10.848 20.3733 11.5921 19.1129 12.4331L14.172 7.55156L7.55455 14.2073L12.4894 19.0823C10.7888 21.6651 9.60438 24.5526 9.00605 27.5837L2 27.5963V36.9603L9.06375 36.9349C9.37349 38.4132 9.82303 39.8955 10.4335 41.3381C11.047 42.79 11.791 44.1383 12.6413 45.3869" stroke="#AA1E21" stroke-width="4" stroke-linecap="round"/>
<path d="M50.5389 76.0295V68.8083C52.027 68.5112 53.5121 68.0565 54.9637 67.4541C56.4183 66.8444 57.7759 66.0997 59.0453 65.2564L64.0896 70.2298L70.7101 63.5839L65.6627 58.61C67.3636 56.0266 68.5476 53.1379 69.149 50.1039L76.0004 50.0617V40.707L69.0884 40.7492C68.7787 39.2676 68.3352 37.798 67.7217 36.3504C67.1083 34.9003 66.3642 33.5502 65.5139 32.2952L70.291 27.5061L63.6037 20.9189L58.8327 25.7062C56.2392 24.0159 53.3298 22.8364 50.2899 22.2398L50.3292 15.4185H40.8633L40.881 22.2935C39.3869 22.6037 37.9018 23.0511 36.4472 23.6577C34.9925 24.2663 33.638 25.0104 32.3777 25.8513L27.4367 20.9698L20.8193 27.6256L25.7543 32.5006C24.0535 35.0833 22.8691 37.971 22.2708 41.0019L15.2646 41.0145V50.3783L22.3285 50.3531C22.6382 51.8314 23.0877 53.3136 23.6981 54.7562C24.3116 56.208 25.0557 57.5563 25.906 58.805L20.8404 63.8507L27.5307 70.426L32.5841 65.3959C35.1777 67.0964 38.0871 68.2717 41.13 68.8659L41.1332 76.0262C44.2668 76.05 50.5388 76.0294 50.5388 76.0294L50.5389 76.0295Z" stroke="#AA1E21" stroke-width="4" stroke-linecap="round"/>
<path d="M45.6709 53.5108C50.1778 53.5108 53.8313 49.8573 53.8313 45.3505C53.8313 40.8437 50.1778 37.1902 45.6709 37.1902C41.164 37.1902 37.5105 40.8437 37.5105 45.3505C37.5105 49.8573 41.164 53.5108 45.6709 53.5108Z" stroke="#AA1E21" stroke-width="4" stroke-linecap="square"/>
</svg>
