<svg width="80" height="80" fill="none" xmlns="http://www.w3.org/2000/svg"><g clip-path="url(#clip0)" fill="#4A74B8"><path d="M58.005 25.781h11.412a5.854 5.854 0 004.685 2.344 5.866 5.866 0 005.86-5.86c0-3.23-2.63-5.859-5.86-5.859a5.853 5.853 0 00-4.685 2.344H58.004a5.91 5.91 0 00-1.246-1.225v-4.037l4.19-4.191h8.413a5.854 5.854 0 004.74 2.422 5.866 5.866 0 005.86-5.86A5.867 5.867 0 0074.101 0a5.85 5.85 0 00-4.622 2.266h-9.987a3.49 3.49 0 00-2.486 1.03l-6.25 6.25a3.492 3.492 0 00-1.03 2.485v5.612c-1.764 1.351-2.738 3.905-2.025 6.278l-4.505 6.042c-1.02-.33-2.107-.51-3.235-.51-5.816 0-10.547 4.732-10.547 10.547 0 5.816 4.731 10.547 10.547 10.547 1.11 0 2.178-.173 3.183-.492l4.55 6.048a5.85 5.85 0 002.033 6.254v5.612a3.49 3.49 0 001.03 2.486l6.25 6.25a3.492 3.492 0 002.485 1.03h9.987A5.85 5.85 0 0074.102 80a5.866 5.866 0 005.859-5.86 5.867 5.867 0 00-5.86-5.859 5.854 5.854 0 00-4.74 2.422h-8.413l-4.19-4.19v-4.038a5.912 5.912 0 001.247-1.225h11.412a5.854 5.854 0 004.685 2.344 5.866 5.866 0 005.86-5.86 5.866 5.866 0 00-5.86-5.859 5.854 5.854 0 00-4.685 2.344H58.004a5.854 5.854 0 00-4.683-2.344h-.009l-4.558-6.06c.472-.71.86-1.482 1.15-2.3h19.513a5.854 5.854 0 004.685 2.344A5.866 5.866 0 0079.962 40c0-3.23-2.63-5.86-5.86-5.86a5.854 5.854 0 00-4.685 2.344h-6.805a1.172 1.172 0 000 2.344h5.748a6.132 6.132 0 000 2.344H50.441c.065-.613.103-1.387 0-2.344h6.551a1.172 1.172 0 000-2.344h-7.089c-.283-.8-.661-1.554-1.12-2.253l4.554-6.106a5.854 5.854 0 004.668-2.344zm16.097-7.031a3.52 3.52 0 013.515 3.516 3.52 3.52 0 01-3.515 3.515 3.52 3.52 0 01-3.516-3.515 3.52 3.52 0 013.516-3.516zm-15.04 2.344h9.298a6.135 6.135 0 000 2.343h-9.298a5.862 5.862 0 000-2.343zm15.04-18.75a3.52 3.52 0 013.515 3.515 3.52 3.52 0 01-3.515 3.516 3.52 3.52 0 01-3.516-3.516 3.52 3.52 0 013.516-3.515zm0 68.281a3.52 3.52 0 013.515 3.516 3.52 3.52 0 01-3.515 3.515 3.52 3.52 0 01-3.516-3.515 3.52 3.52 0 013.516-3.516zm0-16.406a3.52 3.52 0 013.515 3.515 3.52 3.52 0 01-3.515 3.516 3.52 3.52 0 01-3.516-3.516 3.52 3.52 0 013.516-3.515zm-15.04 2.343h9.298a6.135 6.135 0 000 2.344h-9.298a6.133 6.133 0 000-2.343zm15.04-20.078A3.52 3.52 0 0177.617 40a3.52 3.52 0 01-3.515 3.516A3.52 3.52 0 0170.586 40a3.52 3.52 0 013.516-3.516zM52.07 12.031c0-.313.122-.607.344-.828l6.25-6.25a1.16 1.16 0 01.828-.344h8.886a5.852 5.852 0 00-.032 2.344h-7.883c-.31 0-.609.124-.829.343l-4.877 4.877c-.22.22-.343.518-.343.829v3.508a6.046 6.046 0 00-2.344.032v-4.51zM39.96 48.203c-4.522 0-8.202-3.68-8.202-8.203s3.68-8.203 8.203-8.203 8.203 3.68 8.203 8.203-3.68 8.203-8.203 8.203zm19.674 24.5c.22.22.518.344.829.344h7.883a6.047 6.047 0 00.032 2.344h-8.886a1.16 1.16 0 01-.828-.344l-6.25-6.25a1.164 1.164 0 01-.344-.828v-4.51a6.14 6.14 0 002.344.03v3.509c0 .31.123.609.343.829l4.877 4.877zM53.32 54.22a3.52 3.52 0 013.516 3.515 3.52 3.52 0 01-3.516 3.516 3.52 3.52 0 01-3.515-3.516 3.52 3.52 0 013.515-3.515zm-2.514-1.776a5.892 5.892 0 00-1.87 1.411l-3.6-4.785a10.602 10.602 0 001.869-1.414l3.601 4.788zM47.241 32.38a10.61 10.61 0 00-1.862-1.425l3.572-4.79a5.886 5.886 0 001.878 1.402l-3.588 4.813zm2.564-10.114a3.52 3.52 0 013.515-3.516 3.52 3.52 0 013.516 3.516 3.52 3.52 0 01-3.516 3.515 3.52 3.52 0 01-3.515-3.515z"/><path d="M37.148 77.656h-1.532a1.97 1.97 0 01-1.97-1.969v-3.382a4.302 4.302 0 00-2.954-4.092 29.662 29.662 0 01-3.986-1.652 4.305 4.305 0 00-4.988.8l-2.393 2.393a1.956 1.956 0 01-1.393.577 1.96 1.96 0 01-1.393-.577L10.284 63.5a1.974 1.974 0 01-.001-2.785l2.396-2.394a4.305 4.305 0 00.8-4.988 29.634 29.634 0 01-1.652-3.986 4.303 4.303 0 00-4.093-2.955H4.352a1.97 1.97 0 01-1.97-1.969v-8.846a1.97 1.97 0 011.97-1.97h3.382a4.302 4.302 0 004.092-2.954 29.654 29.654 0 011.652-3.986 4.305 4.305 0 00-.8-4.988l-2.394-2.393a1.974 1.974 0 010-2.786l6.255-6.255a1.974 1.974 0 012.785-.001l2.394 2.396a4.305 4.305 0 004.988.8 29.622 29.622 0 013.986-1.652 4.303 4.303 0 002.955-4.093V4.312a1.97 1.97 0 011.969-1.968h8.69c.968 0 1.805.72 1.947 1.675a.373.373 0 01-.024.193l-1.188 3.072a1.172 1.172 0 102.186.846l1.188-3.073a2.73 2.73 0 00.156-1.384C48.26 1.58 46.426 0 44.306 0h-8.69a4.317 4.317 0 00-4.313 4.313v3.382c0 .85-.541 1.6-1.348 1.867a32.014 32.014 0 00-4.302 1.783 1.965 1.965 0 01-2.277-.363L20.98 8.587a4.321 4.321 0 00-6.099 0l-6.257 6.258a4.321 4.321 0 00.001 6.099l2.395 2.393c.6.6.747 1.516.363 2.278A32.002 32.002 0 009.6 29.917a1.963 1.963 0 01-1.867 1.348H4.352a4.317 4.317 0 00-4.313 4.313v8.846a4.317 4.317 0 004.313 4.313h3.382c.85 0 1.6.542 1.868 1.348a32.012 32.012 0 001.782 4.302 1.965 1.965 0 01-.362 2.277l-2.397 2.395a4.321 4.321 0 00.001 6.099l6.256 6.254a4.318 4.318 0 006.1 0l2.394-2.393c.6-.6 1.515-.747 2.277-.363a32.017 32.017 0 004.303 1.783 1.963 1.963 0 011.347 1.867v3.382A4.317 4.317 0 0035.616 80h1.533a1.172 1.172 0 100-2.344z"/><path d="M41.427 56.721a2.735 2.735 0 00-2.385-1.748c-7.94-.477-14.16-7.088-14.16-15.051 0-7.965 6.222-14.576 14.163-15.05a2.736 2.736 0 002.382-1.743l3.827-9.895a1.172 1.172 0 10-2.186-.846l-1.25 3.23a24.923 24.923 0 00-1.857-.071c-13.483 0-24.453 10.97-24.453 24.453 0 5.521 1.795 10.732 5.193 15.068a1.17 1.17 0 001.645.2c.51-.4.599-1.136.2-1.645-3.071-3.92-4.694-8.631-4.694-13.623 0-12.191 9.918-22.11 22.109-22.11.323 0 .647.008.97.022l-1.69 4.372a.387.387 0 01-.335.248c-9.178.549-16.367 8.187-16.367 17.39 0 9.2 7.188 16.84 16.363 17.39.15.01.282.107.336.249l1.736 4.524c-5.204.272-10.652-1.453-14.76-4.767a1.172 1.172 0 10-1.458 1.835c4.817 3.846 10.879 5.693 17.099 5.228l4.375 11.406a.372.372 0 01.023.193 1.978 1.978 0 01-1.947 1.676h-1.689a1.172 1.172 0 000 2.344h1.69c2.12 0 3.954-1.58 4.265-3.676a2.73 2.73 0 00-.154-1.376L41.427 56.72z"/></g><defs><clipPath id="clip0"><path fill="#fff" d="M0 0h80v80H0z"/></clipPath></defs></svg>