<svg width="80" height="80" fill="none" xmlns="http://www.w3.org/2000/svg"><g clip-path="url(#clip0)"><path d="M68.284 11.717C60.73 4.163 50.684.002 40 .002 24.93-.159 10.325 9.041 3.92 22.718a1.172 1.172 0 002.112 1.014 37.209 37.209 0 012.687-4.69 255.17 255.17 0 018.702 2.918 7.012 7.012 0 001.83 3.784c-.84 4.08-1.451 8.371-1.777 12.663a7.065 7.065 0 00-3.536 4.119A502.423 502.423 0 003.022 47.11 37.696 37.696 0 012.345 40c0-3.86.582-7.664 1.728-11.31a1.172 1.172 0 00-2.236-.703A39.994 39.994 0 00.002 40C-.018 62.443 18.347 80.062 40 80c22.444.02 40.063-18.346 40-40 0-10.684-4.161-20.729-11.716-28.283zm4.485 46.817c-3.496-7.123-9.164-13.717-16.889-19.636a7.055 7.055 0 001.327-1.984c4.237 3.236 7.904 6.682 10.905 10.256a51.424 51.424 0 015.984 8.802 37.59 37.59 0 01-1.327 2.562zm-25.215-4.277a7.007 7.007 0 00-2.113-.922 57.865 57.865 0 003.248-12.558c.503.155 1.425.343 2.276.313-.576 4.25-1.788 8.922-3.411 13.167zm-16.549 22.31c3.159-3.628 5.93-7.319 8.26-11.001a7.034 7.034 0 002.01 1.17c-2.194 3.486-4.762 6.969-7.653 10.377a37.377 37.377 0 01-2.617-.546zm5.714-16.41c0 1.286.35 2.492.955 3.53-2.517 4.07-5.599 8.16-9.168 12.173a36.784 36.784 0 01-.752-.25c-2.035-8.63-3.217-17-3.515-24.893a7.033 7.033 0 003.416-5.94c1.832-.665 3.64-1.299 5.38-1.883a1.172 1.172 0 00-.747-2.222 243.472 243.472 0 00-5.008 1.748 7.025 7.025 0 00-1.14-2.086c6.298-2.283 12.093-4.115 17.645-5.58a6.97 6.97 0 00.62 2.268 179.654 179.654 0 00-6.88 1.965 1.172 1.172 0 10.687 2.241 175.62 175.62 0 017.637-2.16c.198.196.408.379.629.55-.562 4.552-1.733 9.107-3.486 13.55-3.521.379-6.273 3.368-6.273 6.989zM22.435 73.299c-1.566-7.4-2.513-14.675-2.818-21.653a7.556 7.556 0 002.313-.05c.329 7.331 1.398 15.049 3.183 22.99a37.578 37.578 0 01-2.678-1.287zm-2.746-52.36a4.693 4.693 0 014.687-4.687 4.693 4.693 0 014.688 4.687 4.693 4.693 0 01-4.688 4.687 4.693 4.693 0 01-4.687-4.687zm12.38-17.736a94.408 94.408 0 00-4.869 11.3 6.974 6.974 0 00-2.259-.57 96.261 96.261 0 014.125-9.943 37.493 37.493 0 013.002-.787zm6.675-.835c4.333 8.49 6.959 16.829 7.816 24.816-4.591-2.579-9.714-5.065-15.25-7.402a7.021 7.021 0 00-2.097-3.938A92.23 92.23 0 0134.98 2.689a37.154 37.154 0 013.764-.321zm16.725 31.696a4.693 4.693 0 01-4.687 4.687 4.693 4.693 0 01-4.688-4.687 4.693 4.693 0 014.688-4.688 4.693 4.693 0 014.687 4.688zM31.272 22.312c5.192 2.224 9.998 4.58 14.317 7.016a7.052 7.052 0 00-1.287 2.007c-4.19-2.358-8.85-4.644-13.881-6.81.4-.673.693-1.42.85-2.213zm-5.297 5.473a7.01 7.01 0 002.839-1.397c4.789 2.037 9.24 4.182 13.27 6.395-5.534 1.5-11.317 3.36-17.59 5.658a94.48 94.48 0 011.48-10.656zM57.81 34.12a7.619 7.619 0 00-.376-2.323 138.218 138.218 0 0118.857-1.847c.212.767.402 1.543.566 2.328A136 136 0 0057.81 34.12zm17.754-6.492c-6.569.227-12.915.883-19.335 1.998a7.068 7.068 0 00-2.602-1.99 66.357 66.357 0 00-1.075-7.438 74.087 74.087 0 00-2.288-8.541 1.172 1.172 0 00-2.224.737 71.75 71.75 0 012.216 8.27 64.28 64.28 0 01.962 6.384 7.402 7.402 0 00-2.29.234c-.815-8.042-3.354-16.409-7.558-24.909.906.033 1.804.097 2.693.193a90.301 90.301 0 012.058 4.645 1.172 1.172 0 002.17-.886 91.571 91.571 0 00-1.454-3.356C60.23 5.437 71.164 15.014 75.565 27.63zM25.965 5.09a98.468 98.468 0 00-3.591 9.11 7.012 7.012 0 00-2.342 1.217 258.48 258.48 0 00-6.463-2.203A38.126 38.126 0 0125.965 5.09zM11.778 15.097a256.55 256.55 0 016.578 2.213 6.982 6.982 0 00-.862 2.19 259.253 259.253 0 00-7.33-2.458 37.41 37.41 0 011.614-1.945zm9.553 12.179a6.98 6.98 0 002.229.645 96.813 96.813 0 00-1.369 9.914c-.709-.133-1.28-.234-2.31-.138.118-2.27.817-7.162 1.45-10.421zm-.705 12.725a4.693 4.693 0 014.688 4.687 4.693 4.693 0 01-4.688 4.688 4.693 4.693 0 01-4.687-4.688 4.693 4.693 0 014.687-4.687zm-7.011 5.186a6.98 6.98 0 00.565 2.304 534.295 534.295 0 00-9.97 4.214c-.244-.746-.468-1.5-.666-2.266a517.718 517.718 0 0110.07-4.252zM5.01 53.913c3.79-1.645 7.234-3.1 10.483-4.427a7.076 7.076 0 001.748 1.363c.243 6.73 1.075 13.735 2.478 20.867A37.878 37.878 0 015.01 53.913zM40 77.656a37.89 37.89 0 01-3.63-.176c2.788-3.386 5.265-6.839 7.383-10.292a6.987 6.987 0 004.06-1.292 1.172 1.172 0 10-1.355-1.912 4.66 4.66 0 01-2.707.86 4.693 4.693 0 01-4.688-4.687 4.693 4.693 0 014.688-4.688c2.541 0 4.644 2.067 4.686 4.607.01.64.533 1.153 1.172 1.153h.02a1.172 1.172 0 001.152-1.192 6.972 6.972 0 00-1.385-4.05c1.985-5.01 3.344-10.153 3.998-15.398a6.98 6.98 0 00.526-.236c8.203 6.176 14.046 13.09 17.378 20.563C64.535 71.003 53.03 77.656 40 77.656zm35.252-24.419a54.42 54.42 0 00-5.345-7.574c-2.778-3.307-6.098-6.503-9.889-9.526a133.98 133.98 0 0117.25-1.524c.254 1.76.388 3.559.388 5.388a37.47 37.47 0 01-2.404 13.236z" fill="#4A74B8"/></g><defs><clipPath id="clip0"><path fill="#fff" d="M0 0h80v80H0z"/></clipPath></defs></svg>