<svg width="80" height="80" fill="none" xmlns="http://www.w3.org/2000/svg"><g clip-path="url(#clip0)" fill="#4A74B8"><path d="M78.828 56.988c.647 0 1.172-.525 1.172-1.172V34.414C80 15.46 64.587.04 45.642.04H34.358A34.207 34.207 0 009.881 10.291a1.172 1.172 0 001.67 1.645 31.887 31.887 0 0122.807-9.553h11.284c17.653 0 32.014 14.369 32.014 32.031S63.295 66.445 45.642 66.445h-3.255a1.172 1.172 0 100 2.344h3.255c8.814 0 16.863-3.34 22.952-8.819v5.694c0 1.256.962 2.292 2.187 2.41v5.246c0 1.077.876 1.953 1.953 1.953h.391v3.516a1.172 1.172 0 102.344 0v-3.516h.39a1.955 1.955 0 001.954-1.953v-5.246A2.425 2.425 0 0080 65.664v-4.37a1.172 1.172 0 10-2.344 0v4.37a.078.078 0 01-.078.078h-6.562a.078.078 0 01-.078-.078V57.65a34.447 34.447 0 006.718-10.758v8.924c0 .647.525 1.172 1.172 1.172zm-3.36 11.098v4.844h-2.343v-4.844h2.344z"/><path d="M36.747 66.445h-2.388a31.884 31.884 0 01-22.953-9.7V45.037c4.028 8.664 12.82 14.69 22.985 14.69h11.297c13.966 0 25.328-11.355 25.328-25.313 0-13.957-11.362-25.312-25.329-25.312H34.392c-6.772 0-13.136 2.637-17.922 7.425-4.775 4.779-7.404 11.126-7.406 17.878v31.26a.078.078 0 01-.078.077H2.422a.078.078 0 01-.078-.078V34.458c-.01-6.676 2-13.06 5.81-18.46a1.172 1.172 0 00-1.915-1.352C2.16 20.431.002 27.262.001 34.406c-.002.003 0 31.242 0 31.258 0 1.256.96 2.292 2.187 2.41v5.246c0 1.077.876 1.953 1.953 1.953h.39v3.516a1.172 1.172 0 102.344 0v-3.516h.39A1.955 1.955 0 009.22 73.32v-5.246a2.425 2.425 0 002.187-2.41v-5.67c6.314 5.684 14.395 8.795 22.953 8.795h2.388a1.172 1.172 0 100-2.344zm-18.62-48.261a22.841 22.841 0 0116.264-6.739h11.297c12.673 0 22.984 10.304 22.984 22.97 0 12.664-10.31 22.968-22.984 22.968H34.39c-12.656 0-22.967-10.29-22.985-22.938a22.81 22.81 0 016.721-16.261zM6.875 72.93H4.531v-4.844h2.344v4.844z"/><path d="M36.511 50.664h7.056c8.966 0 16.26-7.29 16.26-16.25 0-3.31-.994-6.496-2.874-9.216a1.172 1.172 0 00-1.928 1.333 13.802 13.802 0 012.458 7.883c0 7.668-6.243 13.907-13.916 13.907H36.51c-7.663 0-13.906-6.23-13.916-13.888a13.81 13.81 0 014.07-9.845 13.829 13.829 0 019.846-4.08h7.056c2.827 0 5.55.846 7.874 2.446a1.172 1.172 0 101.33-1.93 16.16 16.16 0 00-9.204-2.86H36.51a16.157 16.157 0 00-11.505 4.767 16.138 16.138 0 00-4.755 11.506c.013 8.947 7.307 16.227 16.26 16.227z"/></g><defs><clipPath id="clip0"><path fill="#fff" d="M0 0h80v80H0z"/></clipPath></defs></svg>