<svg width="80" height="80" fill="none" xmlns="http://www.w3.org/2000/svg"><path d="M54.249 77.656H5.079a2.738 2.738 0 01-2.735-2.734V5.078a2.738 2.738 0 012.734-2.734h19.766a1.172 1.172 0 100-2.344H5.078A5.084 5.084 0 000 5.078v69.844C0 77.722 2.278 80 5.078 80h49.17a1.172 1.172 0 100-2.344zM74.922 0h-44.61a1.172 1.172 0 100 2.344h44.61a2.738 2.738 0 012.734 2.734v69.844a2.738 2.738 0 01-2.734 2.734H59.717a1.172 1.172 0 100 2.344h15.205c2.8 0 5.078-2.278 5.078-5.078V5.078C80 2.278 77.722 0 74.922 0z" fill="#4A74B8"/><path d="M11.892 55.234c-.648 0-1.172.525-1.172 1.172v9.359a3.52 3.52 0 003.515 3.515h51.53a3.52 3.52 0 003.515-3.515v-51.53a3.52 3.52 0 00-3.515-3.515h-51.53a3.52 3.52 0 00-3.515 3.515v36.703a1.172 1.172 0 102.343 0V14.234c0-.646.526-1.171 1.172-1.171h51.53c.646 0 1.171.525 1.171 1.171v51.53c0 .646-.525 1.171-1.171 1.171h-51.53a1.173 1.173 0 01-1.171-1.171v-9.359c0-.647-.525-1.172-1.172-1.172z" fill="#4A74B8"/><path d="M56.406 32.598c.648 0 1.172-.524 1.172-1.172v-5.488a3.52 3.52 0 00-3.516-3.516H25.939a3.52 3.52 0 00-3.516 3.515v28.125a3.52 3.52 0 003.515 3.516h28.125a3.52 3.52 0 003.516-3.516V36.895a1.172 1.172 0 10-2.344 0v17.167c0 .647-.525 1.172-1.172 1.172H25.939a1.173 1.173 0 01-1.172-1.172V25.939c0-.647.525-1.172 1.172-1.172h28.125c.646 0 1.171.525 1.171 1.172v5.488c0 .648.525 1.172 1.172 1.172z" fill="#4A74B8"/><path d="M44.766 29.085h-9.532c-.904 0-1.64.736-1.64 1.641v1.944H32.26c-.905 0-1.64.736-1.64 1.64v1.944h-1.87c-.905 0-1.64.736-1.64 1.641v11.379c0 .904.735 1.64 1.64 1.64h22.5c.905 0 1.64-.736 1.64-1.64V37.895c0-.905-.735-1.64-1.64-1.64h-1.87V34.31c0-.904-.736-1.64-1.641-1.64h-1.333v-1.944c0-.905-.736-1.64-1.64-1.64zm2.27 5.929v1.944c0 .904.736 1.64 1.64 1.64h1.87v9.973h-2.343v-4.095a1.172 1.172 0 10-2.344 0v4.095h-2.343v-4.095a1.172 1.172 0 10-2.344 0v4.095h-2.344v-4.095a1.172 1.172 0 10-2.344 0v4.095h-2.343v-4.095a1.172 1.172 0 10-2.344 0v4.095h-2.344v-9.973h1.87c.905 0 1.641-.736 1.641-1.64v-1.944h1.333c.905 0 1.64-.736 1.64-1.64v-1.945h8.126v1.944c0 .905.735 1.64 1.64 1.64h1.333z" fill="#4A74B8"/></svg>