<svg width="80" height="80" fill="none" xmlns="http://www.w3.org/2000/svg"><g clip-path="url(#clip0)" fill="#4A74B8"><path d="M71.641 27.852H60.473a2.108 2.108 0 00-1.8-1.015h-2.578v-1.719a1.955 1.955 0 00-1.953-1.953H46.33c-.997 0-1.821.752-1.937 1.719h-2.75a1.955 1.955 0 00-1.953 1.953v9.062c0 1.077.876 1.953 1.953 1.953h2.75c.116.966.94 1.718 1.937 1.718h7.812a1.955 1.955 0 001.953-1.953V35.9h2.578c.762 0 1.43-.408 1.8-1.016h11.168a1.33 1.33 0 011.328 1.328v3.008a1.172 1.172 0 102.344 0v-3.01a3.676 3.676 0 00-3.672-3.672H60.782v-2.343h10.859a6.022 6.022 0 016.015 6.015v21.717a6.022 6.022 0 01-6.015 6.016h-6.172V61.6h6.172a3.676 3.676 0 003.672-3.672v-13.24a1.172 1.172 0 10-2.344 0v13.24a1.33 1.33 0 01-1.328 1.329h-6.18a2.11 2.11 0 00-2.1-1.953H60V50.74a4.301 4.301 0 00-4.296-4.296h-12.83a1.172 1.172 0 100 2.343h12.83c1.077 0 1.953.876 1.953 1.953v24.22a1.955 1.955 0 01-1.953 1.953H4.302a1.955 1.955 0 01-1.953-1.953v-7.852a1.172 1.172 0 10-2.344 0v7.852a4.302 4.302 0 004.297 4.296h51.403A4.302 4.302 0 0060 74.96v-6.72h3.36a2.11 2.11 0 002.1-1.953h6.18c4.61 0 8.359-3.75 8.359-8.359V36.211c0-4.609-3.75-8.359-8.359-8.359zm-29.608-.625h2.344v8.281h-2.344v-8.28zm11.718 10h-7.03V25.509h7.03v11.718zm4.688-3.672h-2.344V29.18h2.344v4.375zm4.687 32.342H60v-6.25h3.125v6.25z"/><path d="M50.236 34.883c.647 0 1.172-.525 1.172-1.172v-4.687a1.172 1.172 0 10-2.344 0v4.687c0 .648.525 1.172 1.172 1.172z"/><path d="M78.047 2.698h-2.734A1.955 1.955 0 0073.36.745h-7.812c-.998 0-1.822.752-1.938 1.718h-2.593c-.763 0-1.43.408-1.8 1.016H30.003a1.172 1.172 0 100 2.343h28.904v2.344H8.678c-2.04-.042-4.104 1.834-3.984 4.13.076 2.116 1.896 3.838 4.056 3.838h9.925a6.335 6.335 0 016.327 6.328v15.39H22.66v-15.39a3.989 3.989 0 00-3.984-3.984h-10c-3.301.076-6.464-2.936-6.326-6.446.062-3.424 2.959-6.21 6.458-6.21h15.727a1.172 1.172 0 100-2.343H8.808c-4.768 0-8.716 3.818-8.802 8.51-.194 4.6 3.909 8.939 8.67 8.832h10c.904 0 1.64.736 1.64 1.641v15.596a3.05 3.05 0 00-1.953 2.84v5.547H4.302A4.301 4.301 0 00.005 50.74v10.9a1.172 1.172 0 102.344 0V50.741c0-1.077.876-1.953 1.953-1.953h33.104a1.172 1.172 0 100-2.343H29.3v-5.547a3.05 3.05 0 00-1.953-2.84V22.462c0-4.781-3.89-8.671-8.671-8.671H8.75c-.914 0-1.683-.709-1.714-1.58-.022-.743.588-1.689 1.64-1.701h50.54a2.108 2.108 0 001.8 1.015h2.593c.117.967.94 1.719 1.938 1.719h7.812a1.955 1.955 0 001.953-1.953h2.734A1.955 1.955 0 0080 9.338V4.65a1.955 1.955 0 00-1.953-1.953zm-57.34 43.747v-5.547c0-.387.315-.703.703-.703h4.843c.388 0 .703.316.703.703v5.547h-6.25zM61.25 4.807h2.344v4.375H61.25V4.807zM72.97 10.9h-7.03V3.088h7.03V10.9zm4.687-1.953h-2.343V5.041h2.343v3.906z"/><path d="M69.454 8.947c.647 0 1.172-.524 1.172-1.172V6.213a1.172 1.172 0 10-2.344 0v1.562c0 .648.525 1.172 1.172 1.172zM13.598 53.476a1.172 1.172 0 100-2.344H8.911a1.172 1.172 0 100 2.344h4.687zm12.499 0a1.172 1.172 0 100-2.344H21.41a1.172 1.172 0 100 2.344h4.687zm12.499 0a1.172 1.172 0 100-2.344H33.91a1.172 1.172 0 100 2.344h4.687zm12.5 0a1.172 1.172 0 100-2.344h-4.688a1.172 1.172 0 100 2.344h4.688zM11.254 62.85a3.52 3.52 0 003.516-3.516 3.52 3.52 0 00-3.516-3.515 3.52 3.52 0 00-3.515 3.515 3.52 3.52 0 003.515 3.516zm0-4.687a1.173 1.173 0 010 2.343 1.173 1.173 0 010-2.343zm12.5 4.687a3.52 3.52 0 003.515-3.516 3.52 3.52 0 00-3.515-3.515 3.52 3.52 0 00-3.516 3.515 3.52 3.52 0 003.516 3.516zm0-4.687a1.173 1.173 0 010 2.343 1.173 1.173 0 010-2.343zm12.499 4.687a3.52 3.52 0 003.515-3.516 3.52 3.52 0 00-3.515-3.515 3.52 3.52 0 00-3.516 3.515 3.52 3.52 0 003.516 3.516zm0-4.687a1.173 1.173 0 010 2.343 1.173 1.173 0 010-2.343zm12.499 4.687a3.52 3.52 0 003.515-3.516 3.52 3.52 0 00-3.515-3.515 3.52 3.52 0 00-3.515 3.515 3.52 3.52 0 003.515 3.516zm0-4.687a1.173 1.173 0 010 2.343 1.173 1.173 0 010-2.343z"/></g><defs><clipPath id="clip0"><path fill="#fff" d="M0 0h80v80H0z"/></clipPath></defs></svg>