<svg width="29" height="29" viewBox="0 0 29 29" fill="none" xmlns="http://www.w3.org/2000/svg">
<g clip-path="url(#clip0)">
<path d="M10.9201 21.8398C13.6709 23.1815 17.5038 20.9828 19.481 16.929C21.4582 12.8751 20.831 8.5012 18.0802 7.15953C15.3294 5.81786 11.4965 8.01652 9.51933 12.0704C7.54214 16.1242 8.16929 20.4982 10.9201 21.8398Z" fill="#705123"/>
<path d="M10.9199 21.8398C13.6707 23.1815 17.5035 20.9828 19.4807 16.929C21.4579 12.8751 20.8308 8.5012 18.0799 7.15953C15.3291 5.81786 11.4963 8.01652 9.51909 12.0704C7.54189 16.1242 8.16905 20.4982 10.9199 21.8398Z" stroke="black"/>
<path d="M14.4999 14.4998C14.4999 14.4998 14.429 12.6492 15.3117 10.8394C16.1944 9.02948 17.6964 7.94607 17.6964 7.94607" stroke="black" stroke-linecap="round" stroke-linejoin="round"/>
<path d="M14.5 14.4998C14.5 14.4998 14.571 16.3503 13.6882 18.1602C12.8055 19.9701 11.3035 21.0535 11.3035 21.0535" stroke="black" stroke-linecap="round" stroke-linejoin="round"/>
</g>
<defs>
<clipPath id="clip0">
<rect width="21" height="21" fill="white" transform="translate(9.66553 0.459473) rotate(26)"/>
</clipPath>
</defs>
</svg>
