<svg width="38" height="38" viewBox="0 0 38 38" fill="none" xmlns="http://www.w3.org/2000/svg">
<path d="M36.25 0.25H1.75C0.920312 0.25 0.25 0.920312 0.25 1.75V36.25C0.25 37.0797 0.920312 37.75 1.75 37.75H36.25C37.0797 37.75 37.75 37.0797 37.75 36.25V1.75C37.75 0.920312 37.0797 0.25 36.25 0.25ZM34.75 34.75H26.1203V23.2281H30.9953L31.7266 17.5703H26.1203V13.9562C26.1203 12.3156 26.575 11.2 28.9234 11.2H31.9187V6.1375C31.3984 6.06719 29.6219 5.9125 27.55 5.9125C23.2281 5.9125 20.2703 8.55156 20.2703 13.3937V17.5656H15.3859V23.2234H20.275V34.75H3.25V3.25H34.75V34.75Z" fill="#AA1E21"/>
</svg>
