<svg width="24" height="25" viewBox="0 0 24 25" fill="none" xmlns="http://www.w3.org/2000/svg">
<path d="M11.3986 0.00412606C9.47261 0.0283448 5.33185 0.358032 3.01585 2.57131C1.2931 4.34944 0.691604 6.97834 0.621104 10.2291C0.562604 13.4682 0.492104 19.551 6.12085 21.2073V23.7299C6.12085 23.7299 6.08561 24.7393 6.72611 24.9463C7.51511 25.2065 7.96436 24.4299 8.71436 23.5955L10.1131 21.9479C13.9644 22.2815 16.9141 21.5127 17.2539 21.3987C18.0354 21.1385 22.4371 20.5526 23.1564 14.469C23.8944 8.18616 22.7971 4.22756 20.8164 2.43694H20.8044C20.2066 1.8635 17.8044 0.0400636 12.4374 0.0197511C12.4374 0.0197511 12.0391 -0.00837394 11.3986 0.00334481V0.00412606ZM11.4646 1.77053C12.0114 1.76663 12.3436 1.79084 12.3436 1.79084C16.8864 1.80334 19.0546 3.22756 19.5661 3.70725C21.2341 5.19631 22.0936 8.76506 21.4644 14.0104C20.8666 19.0963 17.2966 19.4182 16.6359 19.6377C16.3546 19.7315 13.7566 20.3987 10.4836 20.1791C10.4836 20.1791 8.04611 23.2432 7.28411 24.0322C7.16335 24.1705 7.02236 24.2112 6.93236 24.1908C6.80336 24.158 6.76436 23.9916 6.77186 23.7635L6.79511 19.5768C2.02136 18.2018 2.3026 13.0135 2.3536 10.3033C2.4121 7.59319 2.90035 5.376 4.35385 3.87444C6.3106 2.03147 9.82661 1.78303 11.4631 1.77053H11.4646ZM11.8246 4.47991C11.7853 4.47949 11.7463 4.48719 11.7099 4.50254C11.6735 4.51789 11.6403 4.5406 11.6124 4.56936C11.5844 4.59812 11.5622 4.63236 11.547 4.6701C11.5318 4.70785 11.524 4.74835 11.5239 4.78928C11.5239 4.96428 11.6604 5.10256 11.8246 5.10256C12.5682 5.08783 13.3073 5.2266 13.9992 5.51086C14.6911 5.79513 15.3221 6.21927 15.8559 6.75881C16.9456 7.86116 17.4766 9.34241 17.4969 11.2791C17.4969 11.4502 17.6296 11.5924 17.7976 11.5924V11.5799C17.8768 11.5801 17.9528 11.5477 18.0092 11.4898C18.0655 11.4318 18.0976 11.353 18.0984 11.2705C18.1348 10.3589 17.9929 9.44913 17.6812 8.59644C17.3696 7.74375 16.8948 6.96597 16.2856 6.31038C15.0984 5.10178 13.5939 4.47913 11.8246 4.47913V4.47991ZM7.87136 5.19631C7.65907 5.164 7.44256 5.20839 7.25786 5.32209H7.24211C6.8133 5.58392 6.42702 5.91484 6.0976 6.30256C5.82385 6.63225 5.67535 6.96584 5.63635 7.28694C5.6131 7.47834 5.62885 7.66975 5.6836 7.85256L5.7031 7.86506C6.01135 8.80881 6.41411 9.71663 6.90611 10.5713C7.53987 11.7721 8.31982 12.8825 9.22661 13.8752L9.25361 13.9158L9.29636 13.9487L9.32335 13.9815L9.35485 14.0096C10.3113 14.9569 11.3799 15.7732 12.5349 16.4385C13.8549 17.1869 14.6559 17.5408 15.1366 17.6877V17.6955C15.2776 17.7401 15.4059 17.7604 15.5349 17.7604C15.9446 17.7291 16.3324 17.5558 16.6366 17.2682C17.0071 16.925 17.3213 16.5209 17.5666 16.0721V16.0643C17.7969 15.6127 17.7189 15.1854 17.3866 14.8963C16.7212 14.2905 16.0017 13.7523 15.2379 13.2893C14.7264 13.0002 14.2066 13.1752 13.9959 13.4682L13.5466 14.058C13.3164 14.351 12.8979 14.3104 12.8979 14.3104L12.8859 14.3182C9.7651 13.4877 8.9326 10.1963 8.9326 10.1963C8.9326 10.1963 8.89361 9.74866 9.18235 9.52053L9.74486 9.04866C10.0141 8.82053 10.2016 8.27991 9.91286 7.74631C9.47141 6.94956 8.95593 6.19987 8.37386 5.50803C8.2466 5.34493 8.06808 5.23396 7.86986 5.19475L7.87136 5.19631ZM12.3436 6.12444C11.9454 6.12444 11.9454 6.751 12.3474 6.751C12.8426 6.75937 13.3313 6.86931 13.7857 7.07454C14.2401 7.27977 14.6513 7.57627 14.9956 7.94709C15.3097 8.30804 15.5511 8.73099 15.7054 9.19088C15.8598 9.65077 15.9239 10.1382 15.8941 10.6244C15.8955 10.7067 15.9277 10.7852 15.9839 10.843C16.0401 10.9008 16.1159 10.9334 16.1949 10.9338L16.2069 10.9502C16.2864 10.9496 16.3626 10.9164 16.4189 10.8578C16.4751 10.7992 16.507 10.7198 16.5076 10.6369C16.5346 9.39553 16.1641 8.35413 15.4374 7.51975C14.7069 6.68538 13.6876 6.21741 12.3864 6.12444H12.3436ZM12.8364 7.80881C12.4261 7.79631 12.4104 8.43538 12.8169 8.44788C13.8054 8.501 14.2854 9.02131 14.3484 10.0916C14.3497 10.1729 14.3816 10.2503 14.4371 10.3074C14.4926 10.3645 14.5673 10.3967 14.6454 10.3971H14.6574C14.6975 10.3953 14.7368 10.3852 14.7731 10.3674C14.8095 10.3496 14.842 10.3244 14.8689 10.2934C14.8958 10.2623 14.9164 10.226 14.9297 10.1865C14.943 10.1471 14.9485 10.1052 14.9461 10.0635C14.8756 8.66819 14.1451 7.88225 12.8484 7.80959H12.8364V7.80881Z" fill="white"/>
</svg>
