<svg width="180" height="180" viewBox="0 0 180 180" fill="none" xmlns="http://www.w3.org/2000/svg">
<g clip-path="url(#clip0)">
<path d="M163.33 64.8413C162.004 59.5836 157.319 55.6515 151.681 55.4816V38.4046C151.681 31.5498 146.122 25.9907 139.267 25.9907H14.7396C6.69382 25.9907 0.151295 32.4343 0 40.4452V166.423C0 173.278 5.55717 178.837 12.412 178.837H151.293C158.148 178.837 163.707 173.278 163.707 166.423C163.707 59.3 163.875 67.0017 163.33 64.8413Z" fill="#010A29"/>
<path d="M137.746 29.719C140.504 30.9642 141.726 34.2074 140.481 36.9656L111.735 100.552L39.9747 68.1129L68.7246 4.52258C69.9699 1.76824 73.213 0.542364 75.9674 1.79152L137.746 29.719Z" fill="#9CBCFF"/>
<path d="M140.481 36.9656L111.735 100.552L58.3552 76.4225H98.9216V54.6989C98.9216 53.4226 100.054 52.4581 101.319 52.6335C115.965 54.6639 129.303 47.4895 136.777 35.0441C138.116 32.8139 141.596 34.4991 140.481 36.9656Z" fill="#80AAFF"/>
<path d="M93.444 1.16309H25.6484C22.6225 1.16309 20.1708 3.61484 20.1708 6.64073V76.4225H98.9216V6.64073C98.9216 3.61484 96.4699 1.16309 93.444 1.16309Z" fill="#EEF7FF"/>
<path d="M98.9215 22.106V76.4224H66.335V41.7712C66.335 40.5876 67.0073 39.5061 68.0714 38.9882C77.5044 34.397 86.1864 27.9953 93.5381 20.005C95.4518 17.9252 98.9215 19.2799 98.9215 22.106Z" fill="#CBE3FA"/>
<path d="M42.2831 50.345V76.422H20.1708V50.6759C20.1708 48.886 21.6775 47.47 23.4643 47.5794C27.8674 47.8494 33.0937 47.8587 38.8495 47.2609C40.6832 47.0705 42.2831 48.5012 42.2831 50.345Z" fill="#CBE3FA"/>
<path d="M42.2831 1.16309H66.3351V76.4225H42.2831V1.16309Z" fill="#6E6F80"/>
<path d="M66.3351 44.5066V76.4221H42.2831V49.4928C42.2831 47.9887 43.3592 46.6919 44.8415 46.4378C50.3153 45.5001 56.1382 43.9779 62.0945 41.6216C64.1293 40.8166 66.3351 42.3183 66.3351 44.5066Z" fill="#585966"/>
<path d="M151.681 55.4817C151.283 55.4697 16.6374 55.474 15.0306 55.474C6.86063 55.474 0.00387935 48.8635 0 40.7324V166.423C0 173.278 5.55717 178.837 12.412 178.837H151.293C158.148 178.837 163.707 173.278 163.707 166.423V67.8879C163.707 61.1607 158.357 55.6834 151.681 55.4817Z" fill="#345488"/>
<path d="M151.902 89.0252C102.482 83.1169 27.9763 108.804 25.492 172.818C25.362 176.17 22.643 178.837 19.2881 178.837H12.412C5.55601 178.837 0 173.279 0 166.423V64.0002C0 72.1352 6.85675 78.7495 15.0306 78.7495C161.489 78.7495 151.891 78.6529 153.524 78.9497C159.949 80.1162 158.386 89.8003 151.902 89.0252Z" fill="#4A74B8"/>
<path d="M0 64.0003V40.7319C0.00387935 48.8631 6.86063 55.4735 15.0306 55.4735C15.0306 55.4735 151.553 55.4774 151.681 55.4812C158.357 55.6833 163.707 61.1606 163.707 67.8874V91.1635C163.707 84.3087 158.148 78.7496 151.293 78.7496H15.0306C6.85675 78.7496 0 72.1353 0 64.0003H0Z" fill="#9CBCFF"/>
<path d="M179.616 128.002L174.534 114.23C173.634 111.794 171.31 110.172 168.707 110.172H135.589C124.549 110.172 115.603 119.118 115.603 130.151C115.603 141.189 124.548 150.13 135.589 150.13H168.707C171.31 150.13 173.634 148.508 174.534 146.072L179.616 132.3C180.128 130.911 180.128 129.391 179.616 128.002Z" fill="#4A74B8"/>
<path d="M174.534 114.23C175.127 115.837 173.938 117.543 172.225 117.543H143.348C130.832 117.543 122.287 128.506 123.453 139.645C123.717 142.166 120.382 143.363 118.971 141.257C116.845 138.083 115.603 134.264 115.603 130.151C115.603 119.118 124.549 110.172 135.589 110.172H168.707C171.31 110.172 173.635 111.794 174.534 114.23Z" fill="#9CBCFF"/>
<path d="M136.939 136.164C140.367 136.164 143.146 133.385 143.146 129.957C143.146 126.529 140.367 123.75 136.939 123.75C133.511 123.75 130.732 126.529 130.732 129.957C130.732 133.385 133.511 136.164 136.939 136.164Z" fill="#345488"/>
</g>
<defs>
<clipPath id="clip0">
<rect width="180" height="180" fill="white"/>
</clipPath>
</defs>
</svg>
