<svg width="238" height="30" fill="none" xmlns="http://www.w3.org/2000/svg"><path d="M11.354.448v6.22c-.47-.16-.832-.24-1.087-.24-.49 0-.912.182-1.264.544-.352.363-.528.8-.528 1.312 0 .437.192.991.576 1.663l.496.863c.895 1.557 1.343 3.06 1.343 4.51 0 2.121-.757 3.918-2.27 5.389-1.504 1.471-3.343 2.207-5.518 2.207-1.044 0-2.079-.24-3.102-.72V15.88c.618.395 1.167.592 1.647.592.565 0 1.034-.16 1.407-.48.384-.33.576-.74.576-1.23 0-.32-.304-1.019-.911-2.096-.97-1.705-1.456-3.411-1.456-5.117 0-2.058.73-3.827 2.191-5.31C4.925.747 6.68 0 8.715 0c.896 0 1.775.15 2.639.448zm24.739 21.924h-5.981V13.77c0-.661-.07-1.12-.208-1.376-.139-.256-.39-.383-.752-.383-.671 0-1.007.591-1.007 1.775v8.587h-5.98V13.77c0-.661-.075-1.12-.225-1.376-.138-.256-.389-.383-.751-.383-.661 0-.992.591-.992 1.775v8.587h-5.98v-9.819c0-1.79.602-3.31 1.806-4.557 1.205-1.258 2.666-1.887 4.382-1.887 1.77 0 3.358.746 4.766 2.239 1.567-1.493 3.134-2.24 4.701-2.24 1.994 0 3.593.726 4.797 2.176.95 1.13 1.424 2.777 1.424 4.94v9.148zm12.377-5.981v6.189c-.49.085-.938.128-1.343.128-2.399 0-4.398-.789-5.997-2.367-1.6-1.578-2.399-3.555-2.399-5.933 0-2.313.805-4.275 2.415-5.885 1.62-1.61 3.587-2.414 5.9-2.414 2.58 0 4.612.757 6.094 2.27 1.492 1.504 2.239 3.561 2.239 6.173v7.82h-5.981v-7.388c0-.842-.208-1.514-.624-2.015-.405-.501-.954-.752-1.647-.752-.63 0-1.173.23-1.631.688-.459.459-.688 1.002-.688 1.631 0 .661.208 1.205.624 1.631.415.427.943.64 1.583.64.522 0 1.007-.139 1.455-.416zM67.612 6.269v6.396c-.416-.234-.794-.352-1.135-.352-1.088 0-1.632.832-1.632 2.495v7.564h-5.98v-8.715c0-2.303.629-4.137 1.887-5.501 1.258-1.376 2.937-2.063 5.037-2.063.469 0 1.077.058 1.823.176zm7.1-5.725v6.108H77.4v6.317h-2.687c0 1.269.197 2.143.592 2.623.405.48 1.14.72 2.207.72v6.284c-.31.01-.539.016-.688.016a8.176 8.176 0 01-3.838-.944c-1.194-.629-2.153-1.481-2.878-2.558-.917-1.375-1.376-3.198-1.376-5.47V.545h5.981zm15.592 6.268v15.56H83.81V6.812h-4.973V.544H95.26v6.268h-4.957zm22.58 8.556h-9.067a4.38 4.38 0 01-.208-1.264c0-.533.096-1.055.288-1.567h3.038c-.213-1.183-.88-1.775-1.999-1.775-.746 0-1.354.32-1.823.96-.469.629-.704 1.439-.704 2.43 0 1.035.224 1.871.672 2.511.458.64 1.055.96 1.791.96.597 0 1.173-.299 1.727-.896l3.406 4.094c-1.588 1.247-3.353 1.87-5.293 1.87-2.367 0-4.355-.793-5.965-2.382-1.61-1.588-2.414-3.555-2.414-5.9 0-2.335.81-4.308 2.43-5.918 1.631-1.61 3.63-2.414 5.997-2.414 2.314 0 4.254.789 5.821 2.367 1.578 1.567 2.367 3.502 2.367 5.804 0 .235-.022.608-.064 1.12zM121.359.544v21.828h-5.981V.544h5.981zm19.19 14.824h-9.067a4.38 4.38 0 01-.208-1.264c0-.533.096-1.055.288-1.567h3.038c-.213-1.183-.879-1.775-1.999-1.775-.746 0-1.354.32-1.823.96-.469.629-.703 1.439-.703 2.43 0 1.035.224 1.871.671 2.511.459.64 1.056.96 1.791.96.597 0 1.173-.299 1.727-.896l3.407 4.094c-1.589 1.247-3.353 1.87-5.294 1.87-2.366 0-4.355-.793-5.964-2.382-1.61-1.588-2.415-3.555-2.415-5.9 0-2.335.81-4.308 2.431-5.918 1.631-1.61 3.63-2.414 5.996-2.414 2.314 0 4.254.789 5.821 2.367 1.578 1.567 2.367 3.502 2.367 5.804 0 .235-.021.608-.064 1.12zM153.742.448v6.22c-.469-.16-.832-.24-1.087-.24a1.7 1.7 0 00-1.264.544c-.352.363-.527.8-.527 1.312 0 .437.191.991.575 1.663l.496.863c.895 1.557 1.343 3.06 1.343 4.51 0 2.121-.757 3.918-2.271 5.389-1.503 1.471-3.342 2.207-5.517 2.207-1.044 0-2.078-.24-3.102-.72V15.88c.618.395 1.167.592 1.647.592.565 0 1.034-.16 1.407-.48.384-.33.576-.74.576-1.23 0-.32-.304-1.019-.911-2.096-.971-1.705-1.456-3.411-1.456-5.117 0-2.058.731-3.827 2.191-5.31C147.313.747 149.067 0 151.103 0c.896 0 1.775.15 2.639.448zm4.925 28.912v-5.197c.811.341 1.52.512 2.127.512 1.941 0 3.199-1.093 3.774-3.278-1.045.618-2.068.927-3.07.927-1.482 0-2.703-.549-3.662-1.647-.96-1.109-1.439-2.516-1.439-4.222V6.43h5.98V15c0 .949.395 1.423 1.184 1.423.757 0 1.135-.522 1.135-1.567V6.43h5.981v14.23c0 2.655-.746 4.797-2.239 6.429-1.78 1.94-3.934 2.91-6.46 2.91a9.084 9.084 0 01-3.311-.64zm25.491-22.708v6.301c-.842 0-1.423.16-1.743.48-.309.309-.507.927-.592 1.855-.277 3.08-1.471 5.256-3.582 6.524-1.119.661-2.708.992-4.766.992h-.831V16.47h.272c.959 0 1.642-.197 2.047-.591.415-.406.655-1.11.719-2.111.086-1.632.235-2.777.448-3.438.224-.661.672-1.317 1.343-1.967 1.173-1.141 2.799-1.712 4.878-1.712h1.807zM191.45.544v6.108h2.686v6.317h-2.686c0 1.269.197 2.143.592 2.623.405.48 1.14.72 2.206.72v6.284c-.309.01-.538.016-.687.016a8.176 8.176 0 01-3.838-.944c-1.194-.629-2.154-1.481-2.879-2.558-.917-1.375-1.375-3.198-1.375-5.47V.545h5.981zm21.317 14.824h-9.068a4.414 4.414 0 01-.208-1.264c0-.533.096-1.055.288-1.567h3.039c-.214-1.183-.88-1.775-1.999-1.775-.747 0-1.354.32-1.823.96-.469.629-.704 1.439-.704 2.43 0 1.035.224 1.871.672 2.511.458.64 1.055.96 1.791.96.597 0 1.173-.299 1.727-.896l3.406 4.094c-1.588 1.247-3.353 1.87-5.293 1.87-2.367 0-4.355-.793-5.965-2.382-1.61-1.588-2.415-3.555-2.415-5.9 0-2.335.811-4.308 2.431-5.918 1.631-1.61 3.63-2.414 5.997-2.414 2.313 0 4.254.789 5.821 2.367 1.578 1.567 2.366 3.502 2.366 5.804 0 .235-.021.608-.063 1.12zm24.37 7.004h-5.98V13.77c0-.661-.07-1.12-.208-1.376-.139-.256-.389-.383-.752-.383-.671 0-1.007.591-1.007 1.775v8.587h-5.981V13.77c0-.661-.075-1.12-.224-1.376-.139-.256-.389-.383-.752-.383-.661 0-.991.591-.991 1.775v8.587h-5.981v-9.819c0-1.79.603-3.31 1.807-4.557 1.205-1.258 2.665-1.887 4.382-1.887 1.77 0 3.358.746 4.765 2.239 1.567-1.493 3.135-2.24 4.702-2.24 1.993 0 3.593.726 4.797 2.176.949 1.13 1.423 2.777 1.423 4.94v9.148z" fill="#4A74B8"/></svg>