<svg width="15" height="15" viewBox="0 0 15 15" fill="none" xmlns="http://www.w3.org/2000/svg">
<path opacity="0.9" d="M7.5 0.234375C3.48633 0.234375 0.234375 3.48633 0.234375 7.5C0.234375 11.5137 3.48633 14.7656 7.5 14.7656C11.5137 14.7656 14.7656 11.5137 14.7656 7.5C14.7656 3.48633 11.5137 0.234375 7.5 0.234375ZM12.0501 5.95635L6.65947 11.347C6.57157 11.4348 6.45239 11.4842 6.32812 11.4842C6.20386 11.4842 6.08468 11.4348 5.99678 11.347L2.9499 8.3001C2.86206 8.2122 2.81272 8.09302 2.81272 7.96875C2.81272 7.84448 2.86206 7.7253 2.9499 7.6374L3.6126 6.97441C3.65613 6.93088 3.70781 6.89634 3.76468 6.87277C3.82156 6.84921 3.88253 6.83708 3.94409 6.83708C4.00566 6.83708 4.06662 6.84921 4.1235 6.87277C4.18038 6.89634 4.23206 6.93088 4.27559 6.97441L6.32812 9.02695L10.7244 4.63066C10.7679 4.58713 10.8196 4.55259 10.8765 4.52902C10.9334 4.50546 10.9943 4.49333 11.0559 4.49333C11.1175 4.49333 11.1784 4.50546 11.2353 4.52902C11.2922 4.55259 11.3439 4.58713 11.3874 4.63066L12.0501 5.29365C12.1379 5.38155 12.1873 5.50073 12.1873 5.625C12.1873 5.74927 12.1379 5.86845 12.0501 5.95635Z" fill="#4AA5A9"/>
<path d="M6.65925 11.3469C6.57136 11.4348 6.45217 11.4841 6.32791 11.4841C6.20364 11.4841 6.08446 11.4348 5.99656 11.3469L2.94969 8.30008C2.86184 8.21218 2.8125 8.093 2.8125 7.96873C2.8125 7.84446 2.86184 7.72528 2.94969 7.63738L3.61238 6.97439C3.65591 6.93086 3.70759 6.89632 3.76447 6.87275C3.82135 6.84919 3.88231 6.83706 3.94387 6.83706C4.00544 6.83706 4.0664 6.84919 4.12328 6.87275C4.18016 6.89632 4.23184 6.93086 4.27537 6.97439L6.32791 9.02693L10.7242 4.63065C10.7677 4.58711 10.8194 4.55257 10.8763 4.52901C10.9332 4.50544 10.9941 4.49332 11.0557 4.49332C11.1173 4.49332 11.1782 4.50544 11.2351 4.52901C11.292 4.55257 11.3437 4.58711 11.3872 4.63065L12.0499 5.29364C12.1377 5.38153 12.1871 5.50072 12.1871 5.62498C12.1871 5.74925 12.1377 5.86843 12.0499 5.95633L6.65925 11.3469Z" fill="white"/>
</svg>
