<svg width="40" height="50" viewBox="0 0 40 50" fill="none" xmlns="http://www.w3.org/2000/svg">
<path d="M27.2178 0.288773C26.9886 0.0473025 26.6742 -0.0976562 26.3485 -0.0976562H6.8435C3.24433 -0.0976562 0.273438 2.86141 0.273438 6.4602V43.3442C0.273438 46.9434 3.24433 49.9024 6.8435 49.9024H33.3168C36.916 49.9024 39.8869 46.9434 39.8869 43.3442V14.0568C39.8869 13.7429 39.7419 13.4411 39.5367 13.2115L27.2178 0.288773ZM27.568 4.16566L35.8169 12.825H30.4546C28.8605 12.825 27.568 11.5448 27.568 9.95066V4.16566ZM33.3168 47.487H6.8435C4.5852 47.487 2.68891 45.6151 2.68891 43.3442V6.4602C2.68891 4.2019 4.57299 2.31781 6.8435 2.31781H25.1526V9.95066C25.1526 12.8853 27.52 15.2405 30.4546 15.2405H37.4714V43.3442C37.4714 45.6151 35.5873 47.487 33.3168 47.487Z" fill="#232323"/>
<path d="M30.0195 39.1537H10.1404C9.47621 39.1537 8.93262 39.697 8.93262 40.3615C8.93262 41.0256 9.47621 41.5692 10.1404 41.5692H30.0317C30.6959 41.5692 31.2395 41.0256 31.2395 40.3615C31.2395 39.697 30.6959 39.1537 30.0195 39.1537Z" fill="#232323"/>
<path d="M19.1983 34.8179C19.4279 35.0594 19.7419 35.2043 20.0799 35.2043C20.4182 35.2043 20.7322 35.0594 20.9614 34.8179L28.0389 27.2213C28.4978 26.738 28.4615 25.9651 27.9786 25.5184C27.4953 25.0595 26.7224 25.0954 26.2757 25.5787L21.2876 30.9288V17.7406C21.2876 17.0761 20.744 16.5329 20.0799 16.5329C19.4157 16.5329 18.8721 17.0761 18.8721 17.7406V30.9288L13.8962 25.5787C13.4373 25.0958 12.6763 25.0595 12.1933 25.5184C11.7104 25.9773 11.6742 26.7384 12.1331 27.2213L19.1983 34.8179Z" fill="#232323"/>
</svg>
