<svg width="17" height="14" fill="none" xmlns="http://www.w3.org/2000/svg"><path d="M8.511.002c1.163 0 2.264.086 3.304.259 1.04.173 1.943.403 2.707.691.765.288 1.37.627 1.813 1.015.443.39.665.814.665 1.275-.092 2.016-.444 3.81-1.055 5.379-.26.677-.597 1.332-1.01 1.966a8.265 8.265 0 01-1.514 1.728c-.596.519-1.3.922-2.11 1.21-.811.288-1.744.446-2.8.475-1.07 0-2.01-.158-2.821-.475a7.732 7.732 0 01-2.111-1.21 7.033 7.033 0 01-1.514-1.728 12.586 12.586 0 01-1.01-1.966C.444 7.051.092 5.258 0 3.241c0-.446.222-.87.665-1.274.444-.403 1.056-.741 1.836-1.015A17.893 17.893 0 015.208.261 17.21 17.21 0 018.51 0zm5.667 3.5c.122-.058.184-.145.184-.26 0-.115-.062-.195-.184-.238-.505-.245-1.231-.475-2.18-.691-.948-.216-2.11-.324-3.487-.324-1.376 0-2.538.108-3.487.324-.948.216-1.682.446-2.202.691a.237.237 0 00-.16.238.28.28 0 00.16.26c.505.23 1.239.453 2.202.669.964.216 2.126.324 3.487.324 1.362 0 2.524-.108 3.488-.324.963-.216 1.69-.44 2.18-.67z" fill="#000"/></svg>