<svg width="85" height="85" fill="none" xmlns="http://www.w3.org/2000/svg"><path d="M42.5.523h0A41.977 41.977 0 1084.477 42.5v0A42.024 42.024 0 0042.5.523zm19.442 53.201l.01-.018a2.92 2.92 0 00.029-.048l.375-.65h-.105a2.92 2.92 0 00-2.441-3.681 2.918 2.918 0 00-2.921 1.479 16.688 16.688 0 01-2.643 3.438h0a16.595 16.595 0 01-18.211 3.561 16.693 16.693 0 01-7.925-7 2.92 2.92 0 10-5.052 2.921 22.46 22.46 0 0038.884-.002zM23.307 34.363h0a4.55 4.55 0 004.545 4.545h.001a4.546 4.546 0 10-4.546-4.545zm29.294 0v0a4.55 4.55 0 004.546 4.545h0a4.545 4.545 0 10-4.546-4.545zM42.5 78.64a36.14 36.14 0 1136.142-36.142A36.182 36.182 0 0142.5 78.64z" fill="#AA1E21" stroke="#000" stroke-width=".954"/></svg>