<svg width="80" height="80" viewBox="0 0 80 80" fill="none" xmlns="http://www.w3.org/2000/svg">
<g clip-path="url(#clip0)">
<path d="M58.0047 25.7812H69.4173C70.4873 27.2034 72.1888 28.125 74.1017 28.125C77.3327 28.125 79.9611 25.4966 79.9611 22.2656C79.9611 19.0347 77.3327 16.4062 74.1017 16.4062C72.1888 16.4062 70.4873 17.3278 69.4173 18.7502C69.4163 18.7502 69.4153 18.75 69.4142 18.75H58.0048C57.6528 18.2822 57.2319 17.8694 56.758 17.5248V13.4875L60.9486 9.29688H69.3609C70.427 10.763 72.1544 11.7188 74.1017 11.7188C77.3327 11.7188 79.9611 9.09031 79.9611 5.85938C79.9611 2.62844 77.3325 0 74.1016 0C72.2244 0 70.5517 0.888281 69.4788 2.26562H59.4922C58.5531 2.26562 57.6703 2.63125 57.0063 3.29531L50.7563 9.54531C50.0922 10.2094 49.7266 11.0922 49.7266 12.0312V17.6428C47.9623 18.9942 46.9878 21.5478 47.7006 23.9212L43.1959 29.9628C42.1759 29.6333 41.0892 29.4533 39.9609 29.4533C34.1453 29.4533 29.4141 34.1845 29.4141 40.0002C29.4141 45.8158 34.1453 50.547 39.9609 50.547C41.0702 50.547 42.1394 50.3739 43.1444 50.0548L47.6938 56.1028C47.5431 56.6211 47.4609 57.1681 47.4609 57.7344C47.4609 59.6116 48.3492 61.2842 49.7266 62.3572V67.9688C49.7266 68.9078 50.0922 69.7906 50.7563 70.4547L57.0063 76.7047C57.6703 77.3688 58.5531 77.7344 59.4922 77.7344H69.4788C70.5519 79.1117 72.2244 80 74.1016 80C77.3325 80 79.9609 77.3716 79.9609 74.1406C79.9609 70.9097 77.3325 68.2812 74.1016 68.2812C72.1542 68.2812 70.4267 69.237 69.3608 70.7031H60.9484L56.7578 66.5125V62.4752C57.2316 62.1306 57.6527 61.7178 58.0047 61.25H69.4173C70.4873 62.6722 72.1888 63.5938 74.1017 63.5938C77.3327 63.5938 79.9611 60.9653 79.9611 57.7344C79.9611 54.5034 77.3327 51.875 74.1017 51.875C72.1888 51.875 70.4873 52.7966 69.4173 54.2189C69.4163 54.2189 69.4153 54.2188 69.4142 54.2188H58.0048C56.9348 52.7966 55.2334 51.875 53.3205 51.875C53.3178 51.875 53.315 51.8752 53.3123 51.8752L48.7541 45.8153C49.2259 45.1042 49.6134 44.333 49.9033 43.5156H69.4142C69.4153 43.5156 69.4163 43.5155 69.4173 43.5155C70.4873 44.9378 72.1889 45.8594 74.1017 45.8594C77.3327 45.8594 79.9611 43.2309 79.9611 40C79.9611 36.7691 77.3327 34.1406 74.1017 34.1406C72.1888 34.1406 70.4873 35.0622 69.4173 36.4845C69.4163 36.4845 69.4153 36.4844 69.4142 36.4844H62.6122C61.965 36.4844 61.4403 37.0091 61.4403 37.6562C61.4403 38.3034 61.965 38.8281 62.6122 38.8281H68.3602C68.2448 39.4308 68.1778 40.2252 68.3602 41.1719H50.4411C50.5056 40.5586 50.5441 39.7845 50.4411 38.8281H56.9922C57.6394 38.8281 58.1641 38.3034 58.1641 37.6562C58.1641 37.0091 57.6394 36.4844 56.9922 36.4844H49.9031C49.6195 35.6847 49.2419 34.9297 48.7838 34.2314L53.337 28.1247C55.2431 28.1192 56.9377 27.1992 58.0047 25.7812ZM74.1016 18.75C76.0402 18.75 77.6172 20.327 77.6172 22.2656C77.6172 24.2042 76.0402 25.7812 74.1016 25.7812C72.163 25.7812 70.5859 24.2042 70.5859 22.2656C70.5859 20.327 72.163 18.75 74.1016 18.75ZM59.0617 21.0938H68.36C68.2447 21.6964 68.1777 22.4908 68.36 23.4375H59.0617C59.1389 23.0588 59.1797 22.6669 59.1797 22.2656C59.1797 21.8644 59.1389 21.4725 59.0617 21.0938ZM74.1016 2.34375C76.0402 2.34375 77.6172 3.92078 77.6172 5.85938C77.6172 7.79797 76.0402 9.375 74.1016 9.375C72.163 9.375 70.5859 7.79797 70.5859 5.85938C70.5859 3.92078 72.163 2.34375 74.1016 2.34375ZM74.1016 70.625C76.0402 70.625 77.6172 72.202 77.6172 74.1406C77.6172 76.0792 76.0402 77.6562 74.1016 77.6562C72.163 77.6562 70.5859 76.0792 70.5859 74.1406C70.5859 72.202 72.163 70.625 74.1016 70.625ZM74.1016 54.2188C76.0402 54.2188 77.6172 55.7958 77.6172 57.7344C77.6172 59.673 76.0402 61.25 74.1016 61.25C72.163 61.25 70.5859 59.673 70.5859 57.7344C70.5859 55.7958 72.163 54.2188 74.1016 54.2188ZM59.0617 56.5625H68.36C68.2447 57.1652 68.1777 57.9595 68.36 58.9062H59.0617C59.177 58.3036 59.2441 57.5092 59.0617 56.5625ZM74.1016 36.4844C76.0402 36.4844 77.6172 38.0614 77.6172 40C77.6172 41.9386 76.0402 43.5156 74.1016 43.5156C72.163 43.5156 70.5859 41.9386 70.5859 40C70.5859 38.0614 72.163 36.4844 74.1016 36.4844ZM52.0703 12.0312C52.0703 11.7183 52.1922 11.4241 52.4136 11.2027L58.6636 4.95266C58.885 4.73125 59.1792 4.60938 59.4922 4.60938H68.3778C68.2898 5.01234 68.2422 5.43031 68.2422 5.85938C68.2422 6.23328 68.2789 6.59859 68.3461 6.95312H60.463C60.1522 6.95312 59.8541 7.07656 59.6344 7.29641L54.7573 12.1734C54.5375 12.3931 54.4141 12.6912 54.4141 13.002V16.5102C53.7891 16.3989 53.0347 16.3464 52.0703 16.5419V12.0312ZM39.9609 48.2031C35.4377 48.2031 31.7578 44.5233 31.7578 40C31.7578 35.4767 35.4377 31.7969 39.9609 31.7969C44.4842 31.7969 48.1641 35.4767 48.1641 40C48.1641 44.5233 44.4842 48.2031 39.9609 48.2031ZM59.6344 72.7036C59.8541 72.9234 60.1522 73.0469 60.463 73.0469H68.3461C68.2348 73.6719 68.1824 74.4262 68.3778 75.3906H59.4922C59.1792 75.3906 58.8848 75.2688 58.6636 75.0473L52.4136 68.7973C52.1922 68.5759 52.0703 68.2817 52.0703 67.9688V63.4581C52.6508 63.5798 53.5014 63.6614 54.4141 63.4898V66.998C54.4141 67.3087 54.5375 67.6069 54.7573 67.8266L59.6344 72.7036ZM53.3203 54.2188C55.2589 54.2188 56.8359 55.7958 56.8359 57.7344C56.8359 59.673 55.2589 61.25 53.3203 61.25C51.3817 61.25 49.8047 59.673 49.8047 57.7344C49.8047 55.7958 51.3817 54.2188 53.3203 54.2188ZM50.8064 52.4428C50.0908 52.7842 49.4555 53.2669 48.9352 53.8542L45.3361 49.0695C46.0114 48.6678 46.6375 48.1922 47.2048 47.655L50.8064 52.4428ZM47.2409 32.3795C46.6759 31.8395 46.0527 31.3603 45.3792 30.9553L48.9514 26.1645C49.4741 26.7495 50.1117 27.2291 50.8291 27.5673L47.2409 32.3795ZM49.8047 22.2656C49.8047 20.327 51.3817 18.75 53.3203 18.75C55.2589 18.75 56.8359 20.327 56.8359 22.2656C56.8359 24.2042 55.2589 25.7812 53.3203 25.7812C51.3817 25.7812 49.8047 24.2042 49.8047 22.2656Z" fill="#4A74B8"/>
<path d="M37.1484 77.6562H35.6156C34.53 77.6562 33.6469 76.7731 33.6469 75.6875V72.3047C33.6469 70.4419 32.4592 68.7973 30.6919 68.2127C29.3291 67.7613 27.9881 67.2056 26.7064 66.5611C25.0397 65.7225 23.035 66.0437 21.7183 67.3606L19.3245 69.7544C18.9527 70.1263 18.4581 70.3311 17.932 70.3311C17.4059 70.3311 16.9114 70.1263 16.5394 69.7542L10.2838 63.5C9.51672 62.7319 9.51672 61.482 10.283 60.7148L12.6787 58.3208C13.9956 57.0037 14.3167 54.9992 13.4783 53.3328C12.8336 52.0509 12.2778 50.71 11.8266 49.3475C11.2417 47.5798 9.59719 46.3922 7.73438 46.3922H4.35156C3.26594 46.3922 2.38281 45.5091 2.38281 44.4234V35.5766C2.38281 34.4909 3.26594 33.6078 4.35156 33.6078H7.73438C9.59719 33.6078 11.2417 32.4202 11.8264 30.6528C12.2778 29.29 12.8334 27.9491 13.478 26.6673C14.3166 25.0006 13.9955 22.9961 12.6781 21.6789L10.2838 19.2859C9.51672 18.5178 9.51672 17.268 10.2833 16.5005L16.5391 10.2447C17.3073 9.4775 18.5572 9.4775 19.3242 10.2439L21.7183 12.6395C23.0353 13.9562 25.04 14.2778 26.7062 13.4391C27.9881 12.7944 29.3291 12.2386 30.6916 11.7875C32.4592 11.2027 33.6469 9.55812 33.6469 7.69531V4.3125C33.6469 3.22688 34.53 2.34375 35.6156 2.34375H44.3063C45.2741 2.34375 46.1111 3.06375 46.2533 4.01891C46.2625 4.08078 46.2542 4.1475 46.2292 4.21203L45.0413 7.28437C44.8078 7.88812 45.108 8.56672 45.7116 8.8C46.3153 9.03328 46.9939 8.73328 47.2272 8.12969L48.4152 5.05734C48.5864 4.61453 48.6403 4.13594 48.5714 3.67328C48.2595 1.57906 46.4259 0 44.3063 0H35.6156C33.2377 0 31.3031 1.93453 31.3031 4.3125V7.69531C31.3031 8.54531 30.7616 9.29562 29.955 9.5625C28.4841 10.0497 27.0367 10.6495 25.653 11.3453C24.8913 11.7286 23.9761 11.5827 23.3758 10.9825L20.9813 8.58641C19.2998 6.90719 16.5641 6.90719 14.8823 8.58687L8.62547 14.8438C6.94625 16.5252 6.94625 19.2608 8.62625 20.943L11.0213 23.3364C11.6217 23.9369 11.7677 24.8522 11.3844 25.6141C10.6886 26.9977 10.0887 28.445 9.60141 29.9163C9.33469 30.7225 8.58438 31.2641 7.73438 31.2641H4.35156C1.97359 31.2641 0.0390625 33.1986 0.0390625 35.5766V44.4234C0.0390625 46.8014 1.97359 48.7359 4.35156 48.7359H7.73438C8.58438 48.7359 9.33469 49.2775 9.60156 50.0841C10.0887 51.555 10.6886 53.0023 11.3844 54.3861C11.7677 55.1478 11.6217 56.063 11.0216 56.6633L8.62547 59.0578C6.94625 60.7392 6.94625 63.4748 8.62609 65.1569L14.8823 71.4114C16.5639 73.0931 19.3 73.0931 20.9819 71.4114L23.3756 69.0177C23.9761 68.4172 24.8914 68.2713 25.6533 68.6547C27.0369 69.3505 28.4842 69.9503 29.9555 70.4377C30.7617 70.7044 31.3033 71.4547 31.3033 72.3047V75.6875C31.3033 78.0655 33.2378 80 35.6158 80H37.1486C37.7958 80 38.3205 79.4753 38.3205 78.8281C38.3205 78.1809 37.7956 77.6562 37.1484 77.6562Z" fill="#4A74B8"/>
<path d="M41.4267 56.7211C41.0438 55.7228 40.1078 55.0364 39.0423 54.9725C31.1023 54.496 24.8827 47.885 24.8827 39.9219C24.8827 31.9574 31.1036 25.3461 39.0452 24.8711C40.1075 24.8075 41.0425 24.1238 41.427 23.1294L45.2536 13.2336C45.487 12.63 45.1869 11.9513 44.5833 11.718C43.9797 11.4845 43.3009 11.7847 43.0677 12.3883L41.8188 15.6181C41.2027 15.5719 40.5792 15.547 39.9609 15.547C26.4775 15.547 15.5078 26.5167 15.5078 40.0002C15.5078 45.5211 17.3034 50.7316 20.7005 55.068C20.9316 55.3631 21.2759 55.5172 21.6237 55.5172C21.8766 55.5172 22.1312 55.4358 22.3456 55.2678C22.8552 54.8686 22.9445 54.132 22.5455 53.6227C19.4747 49.7025 17.8516 44.9919 17.8516 40C17.8516 27.8089 27.7698 17.8906 39.9609 17.8906C40.2838 17.8906 40.6081 17.8978 40.9319 17.9117L39.2411 22.2841C39.1864 22.4255 39.0547 22.5225 38.9055 22.5316C29.728 23.0805 22.5391 30.7194 22.5391 39.9219C22.5391 49.1228 29.7266 56.7614 38.902 57.312C39.0519 57.3211 39.1841 57.4188 39.2384 57.5606L40.9741 62.0853C35.7695 62.357 30.3219 60.6322 26.2148 57.318C25.7081 56.9152 24.9709 56.9994 24.5683 57.5061C24.1655 58.0128 24.2498 58.75 24.7564 59.1527C29.5728 62.9989 35.6347 64.846 41.8545 64.3806L46.23 75.7875C46.2545 75.8516 46.2627 75.9183 46.2534 75.9803C46.1117 76.9358 45.2747 77.6563 44.3062 77.6563H42.6172C41.97 77.6563 41.4453 78.181 41.4453 78.8281C41.4453 79.4753 41.97 80 42.6172 80H44.3062C46.4272 80 48.2611 78.4199 48.5719 76.3241C48.6402 75.8634 48.587 75.3875 48.4181 74.9477L41.4267 56.7211Z" fill="#4A74B8"/>
</g>
<defs>
<clipPath id="clip0">
<rect width="80" height="80" fill="white"/>
</clipPath>
</defs>
</svg>
