<svg width="80" height="80" viewBox="0 0 80 80" fill="none" xmlns="http://www.w3.org/2000/svg">
<g clip-path="url(#clip0)">
<path d="M78.8282 56.9878C79.4755 56.9878 80 56.4632 80 55.816V34.4141C80 15.4597 64.5869 0.0392164 45.6417 0.0392164H34.3584C25.173 0.0267164 16.3522 3.69733 9.88142 10.2908C9.42705 10.7517 9.43236 11.4936 9.89314 11.9479C10.3536 12.402 11.0956 12.3972 11.5503 11.9362C17.5369 5.83764 25.7603 2.36296 34.3584 2.38281H45.6417C63.2946 2.38281 77.6563 16.7518 77.6563 34.414C77.6563 52.0761 63.2946 66.4452 45.6417 66.4452H42.3871C41.7398 66.4452 41.2153 66.9699 41.2153 67.617C41.2153 68.2642 41.7398 68.7889 42.3871 68.7889H45.6417C54.4562 68.7889 62.5051 65.4495 68.5938 59.9705V65.6639C68.5938 66.9203 69.5555 67.9556 70.7813 68.0739V73.3202C70.7813 74.3972 71.6574 75.2733 72.7344 75.2733H73.125V78.7889C73.125 79.4361 73.6496 79.9608 74.2969 79.9608C74.9443 79.9608 75.4688 79.4361 75.4688 78.7889V75.2733H75.8594C76.9364 75.2733 77.8125 74.3972 77.8125 73.3202V68.0739C79.0383 67.9556 80 66.9203 80 65.6639V61.2933C80 60.6461 79.4755 60.1214 78.8282 60.1214C78.1808 60.1214 77.6563 60.6461 77.6563 61.2933V65.6639C77.6563 65.707 77.6211 65.7421 77.5782 65.7421H76.6407H71.9532H71.0157C70.9727 65.7421 70.9376 65.707 70.9376 65.6639V57.6505C73.7972 54.5369 76.0918 50.8963 77.6563 46.8922V55.8158C77.6563 56.4632 78.1808 56.9878 78.8282 56.9878ZM75.4688 68.086V72.9297H73.125V68.086H75.4688Z" fill="#4A74B8"/>
<path d="M36.7467 66.4454H34.3586C25.7333 66.4523 17.4517 62.9862 11.4064 56.7446V45.0373C15.4342 53.7014 24.2252 59.7267 34.3911 59.7267H45.6875C59.6536 59.7267 71.016 48.3715 71.016 34.4142C71.016 20.4568 59.6536 9.10168 45.6875 9.10168H34.3911C27.6192 9.10168 21.2546 11.7389 16.4692 16.5275C11.6944 21.3059 9.06549 27.6532 9.0633 34.4048C9.06189 40.5321 9.06314 59.8811 9.06283 65.6642C9.06283 65.7073 9.02768 65.7423 8.98471 65.7423C7.65611 65.7423 3.68736 65.7423 2.42221 65.7423C2.37924 65.7423 2.34408 65.7073 2.34408 65.6642V34.4578C2.33486 27.7823 4.34439 21.3987 8.15471 15.9972C8.52783 15.4682 8.40143 14.7372 7.87252 14.364C7.34377 13.9911 6.61252 14.1173 6.23939 14.6461C2.15846 20.4309 0.00205028 27.2623 0.000644034 34.4051C-0.000762216 34.4086 0.000644034 65.6485 0.000175284 65.664C0.000175284 66.9204 0.961894 67.9557 2.18768 68.074V73.3203C2.18768 74.3973 3.06377 75.2734 4.1408 75.2734H4.53143V78.789C4.53143 79.4362 5.05596 79.9609 5.7033 79.9609C6.35064 79.9609 6.87518 79.4362 6.87518 78.789V75.2734H7.2658C8.34283 75.2734 9.21893 74.3973 9.21893 73.3203V68.074C10.4447 67.9557 11.4064 66.9204 11.4064 65.664V59.9939C17.7203 65.6785 25.8011 68.789 34.3586 68.789H36.7467C37.3941 68.789 37.9186 68.2643 37.9186 67.6171C37.9186 66.97 37.3939 66.4454 36.7467 66.4454ZM18.1271 18.184C22.4697 13.8386 28.2456 11.4454 34.3911 11.4454H45.6875C58.3613 11.4454 68.6722 21.7492 68.6722 34.4142C68.6722 47.0792 58.3614 57.3829 45.6875 57.3829H34.3911C21.7346 57.3829 11.4238 47.0932 11.4064 34.4454C11.3981 28.3045 13.785 22.5295 18.1271 18.184ZM6.87518 72.9298H4.53143V68.086H6.87518V72.9298Z" fill="#4A74B8"/>
<path d="M36.5114 50.6643H43.567C52.5328 50.6643 59.8269 43.3746 59.8269 34.4143C59.8269 31.1047 58.8331 27.9179 56.9528 25.1982C56.585 24.666 55.8549 24.5327 55.3225 24.9007C54.7902 25.2686 54.6569 25.9986 55.025 26.5311C56.633 28.8572 57.483 31.5832 57.483 34.4144C57.483 42.0824 51.2402 48.3207 43.5669 48.3207H36.5113C28.8483 48.3207 22.6055 42.0908 22.5952 34.4333C22.5902 30.7155 24.0352 27.2191 26.6642 24.5882C29.2933 21.9572 32.7905 20.5082 36.5113 20.5082H43.5669C46.3938 20.5082 49.1167 21.3541 51.4413 22.9544C51.9744 23.3215 52.7039 23.1868 53.0711 22.6536C53.4381 22.1205 53.3035 21.3908 52.7703 21.0238C50.053 19.1532 46.8706 18.1644 43.567 18.1644H36.5114C32.1642 18.1644 28.0781 19.8574 25.0063 22.9315C21.9342 26.0058 20.2455 30.0918 20.2514 34.4365C20.2638 43.3844 27.5578 50.6643 36.5114 50.6643Z" fill="#4A74B8"/>
</g>
<defs>
<clipPath id="clip0">
<rect width="80" height="80" fill="white"/>
</clipPath>
</defs>
</svg>
