<svg width="80" height="80" viewBox="0 0 80 80" fill="none" xmlns="http://www.w3.org/2000/svg">
<path d="M54.2486 77.6562H5.07812C3.57047 77.6562 2.34375 76.4295 2.34375 74.9219V5.07812C2.34375 3.57047 3.57047 2.34375 5.07812 2.34375H24.8438C25.4909 2.34375 26.0156 1.81922 26.0156 1.17188C26.0156 0.524531 25.4909 0 24.8438 0H5.07812C2.27813 0 0 2.27797 0 5.07812V74.9219C0 77.722 2.27813 80 5.07812 80H54.2486C54.8959 80 55.4205 79.4755 55.4205 78.8281C55.4205 78.1808 54.8959 77.6562 54.2486 77.6562Z" fill="#4A74B8"/>
<path d="M74.9219 0H30.3125C29.6653 0 29.1406 0.524531 29.1406 1.17188C29.1406 1.81922 29.6653 2.34375 30.3125 2.34375H74.9219C76.4295 2.34375 77.6562 3.57047 77.6562 5.07812V74.9219C77.6562 76.4295 76.4295 77.6562 74.9219 77.6562H59.7173C59.07 77.6562 58.5455 78.1808 58.5455 78.8281C58.5455 79.4755 59.07 80 59.7173 80H74.9219C77.722 80 80 77.722 80 74.9219V5.07812C80 2.27797 77.722 0 74.9219 0Z" fill="#4A74B8"/>
<path d="M11.8916 55.2344C11.2444 55.2344 10.7197 55.7589 10.7197 56.4063V65.7647C10.7197 67.7032 12.2968 69.2803 14.2354 69.2803H65.7646C67.703 69.2803 69.2802 67.7032 69.2802 65.7647V14.2354C69.2802 12.2969 67.703 10.7197 65.7646 10.7197H14.2354C12.2968 10.7197 10.7197 12.2969 10.7197 14.2354V50.9375C10.7197 51.5849 11.2444 52.1094 11.8916 52.1094C12.5388 52.1094 13.0635 51.5849 13.0635 50.9375V14.2354C13.0635 13.5891 13.5891 13.0635 14.2354 13.0635H65.7646C66.4108 13.0635 66.9364 13.5891 66.9364 14.2354V65.7646C66.9364 66.4108 66.4108 66.9364 65.7646 66.9364H14.2354C13.5891 66.9364 13.0635 66.4108 13.0635 65.7646V56.4063C13.0635 55.7589 12.5389 55.2344 11.8916 55.2344Z" fill="#4A74B8"/>
<path d="M56.4062 32.5981C57.0536 32.5981 57.5781 32.0736 57.5781 31.4263V25.9375C57.5781 23.9991 56.0009 22.4219 54.0625 22.4219H25.9375C23.9989 22.4219 22.4219 23.9991 22.4219 25.9375V54.0625C22.4219 56.0009 23.9989 57.5781 25.9375 57.5781H54.0625C56.0009 57.5781 57.5781 56.0009 57.5781 54.0625V36.895C57.5781 36.2477 57.0536 35.7231 56.4062 35.7231C55.7589 35.7231 55.2344 36.2477 55.2344 36.895V54.0625C55.2344 54.7088 54.7088 55.2344 54.0625 55.2344H25.9375C25.2912 55.2344 24.7656 54.7088 24.7656 54.0625V25.9375C24.7656 25.2912 25.2912 24.7656 25.9375 24.7656H54.0625C54.7088 24.7656 55.2344 25.2912 55.2344 25.9375V31.4263C55.2344 32.0736 55.7589 32.5981 56.4062 32.5981Z" fill="#4A74B8"/>
<path d="M44.7656 29.0854H35.2344C34.3297 29.0854 33.5938 29.8214 33.5938 30.7261V32.6698H32.2611C31.3564 32.6698 30.6205 33.4058 30.6205 34.3105V36.2544H28.75C27.8453 36.2544 27.1094 36.9903 27.1094 37.895V49.2736C27.1094 50.1783 27.8453 50.9142 28.75 50.9142H51.25C52.1547 50.9142 52.8906 50.1783 52.8906 49.2736V37.895C52.8906 36.9903 52.1547 36.2544 51.25 36.2544H49.3795V34.3105C49.3795 33.4058 48.6436 32.6698 47.7389 32.6698H46.4062V30.7261C46.4062 29.8214 45.6703 29.0854 44.7656 29.0854ZM47.0358 35.0137V36.9576C47.0358 37.8623 47.7717 38.5983 48.6764 38.5983H50.5469V48.5706H48.2031V44.4761C48.2031 43.8287 47.6786 43.3042 47.0312 43.3042C46.3839 43.3042 45.8594 43.8287 45.8594 44.4761V48.5706H43.5156V44.4761C43.5156 43.8287 42.9911 43.3042 42.3438 43.3042C41.6964 43.3042 41.1719 43.8287 41.1719 44.4761V48.5706H38.8281V44.4761C38.8281 43.8287 38.3034 43.3042 37.6562 43.3042C37.0091 43.3042 36.4844 43.8287 36.4844 44.4761V48.5706H34.1406V44.4761C34.1406 43.8287 33.6159 43.3042 32.9688 43.3042C32.3216 43.3042 31.7969 43.8287 31.7969 44.4761V48.5706H29.4531V38.5983H31.3236C32.2283 38.5983 32.9642 37.8623 32.9642 36.9576V35.0137H34.2969C35.2016 35.0137 35.9375 34.2778 35.9375 33.3731V31.4294H44.0625V33.3731C44.0625 34.2778 44.7984 35.0137 45.7031 35.0137H47.0358Z" fill="#4A74B8"/>
</svg>
