<svg width="80" height="80" viewBox="0 0 80 80" fill="none" xmlns="http://www.w3.org/2000/svg">
<g clip-path="url(#clip0)">
<path d="M71.641 27.8522H60.4731C60.1025 27.2446 59.4354 26.8367 58.6731 26.8367H56.0951V25.118C56.0951 24.0411 55.2191 23.165 54.1421 23.165H46.3301C45.3327 23.165 44.5088 23.917 44.3926 24.8837H41.6429C40.566 24.8837 39.6899 25.7597 39.6899 26.8367V35.8986C39.6899 36.9756 40.566 37.8516 41.6429 37.8516H44.3926C44.509 38.8182 45.3327 39.5702 46.3301 39.5702H54.1421C55.2191 39.5702 56.0951 38.6942 56.0951 37.6172V35.8986H58.6731C59.4354 35.8986 60.1025 35.4907 60.4731 34.883H71.641C72.3733 34.883 72.969 35.4788 72.969 36.2111V39.2187C72.969 39.866 73.4937 40.3905 74.1408 40.3905C74.788 40.3905 75.3126 39.866 75.3126 39.2187V36.2111C75.3126 34.1865 73.6656 32.5394 71.641 32.5394H60.7823V30.1958H71.641C74.9578 30.1958 77.6562 32.8943 77.6562 36.2111V57.9284C77.6562 61.2452 74.9578 63.9437 71.641 63.9437H65.4695V61.6001H71.641C73.6656 61.6001 75.3126 59.953 75.3126 57.9284V44.6871C75.3126 44.0398 74.788 43.5153 74.1408 43.5153C73.4937 43.5153 72.969 44.0398 72.969 44.6871V57.9284C72.969 58.6607 72.3733 59.2565 71.641 59.2565H65.4616C65.3811 58.1662 64.4705 57.3035 63.3603 57.3035H60.0011V50.7414C60.0011 48.3723 58.0737 46.4448 55.7045 46.4448H42.8746C42.2274 46.4448 41.7028 46.9693 41.7028 47.6166C41.7028 48.2639 42.2274 48.7884 42.8746 48.7884H55.7045C56.7815 48.7884 57.6575 49.6644 57.6575 50.7414V74.9586C57.6575 76.0355 56.7815 76.9116 55.7045 76.9116H4.3016C3.22464 76.9116 2.3486 76.0355 2.3486 74.9586V67.1075C2.3486 66.4602 1.82395 65.9357 1.1768 65.9357C0.529658 65.9357 0.00500488 66.4602 0.00500488 67.1075V74.9586C0.00500488 77.3276 1.93238 79.2552 4.3016 79.2552H55.7045C58.0737 79.2552 60.0011 77.3276 60.0011 74.9586V68.2403H63.3603C64.4705 68.2403 65.3811 67.3775 65.4616 66.2873H71.641C76.2501 66.2873 79.9998 62.5375 79.9998 57.9284V36.2111C79.9998 31.602 76.2501 27.8522 71.641 27.8522ZM42.0335 27.2273H44.3771V35.508H42.0335V27.2273ZM53.7515 37.2266H46.7207V25.5086H53.7515V37.2266ZM58.4387 33.555H56.0951V29.1803H58.4387V33.555ZM63.1259 65.8967H60.0011V59.6471H63.1259V65.8967Z" fill="#4A74B8"/>
<path d="M50.2361 34.883C50.8833 34.883 51.4079 34.3585 51.4079 33.7112V29.024C51.4079 28.3767 50.8833 27.8522 50.2361 27.8522C49.589 27.8522 49.0643 28.3767 49.0643 29.024V33.7112C49.0643 34.3585 49.5888 34.883 50.2361 34.883Z" fill="#4A74B8"/>
<path d="M78.0469 2.69763H75.3127C75.3127 1.62067 74.4367 0.744629 73.3597 0.744629H65.5477C64.5503 0.744629 63.7264 1.49661 63.6102 2.46327H61.0168C60.2545 2.46327 59.5873 2.87121 59.2167 3.47883H30.0032C29.356 3.47883 28.8314 4.00333 28.8314 4.65063C28.8314 5.29793 29.356 5.82243 30.0032 5.82243H58.9075V8.16603H8.6764C6.63857 8.12431 4.57479 10.0004 4.69478 12.2956C4.77103 14.4123 6.5906 16.1343 8.75077 16.1343H18.6756C22.1648 16.1343 25.0033 18.9728 25.0033 22.462V37.8516H22.6597V22.462C22.6597 20.2651 20.8725 18.4779 18.6756 18.4779H8.67625C5.3749 18.5544 2.21198 15.5423 2.34962 12.0322C2.41196 8.60803 5.30896 5.82243 8.80764 5.82243H24.5346C25.1817 5.82243 25.7064 5.29793 25.7064 4.65063C25.7064 4.00333 25.1817 3.47883 24.5346 3.47883H8.80764C4.04014 3.47883 0.0919567 7.29671 0.00649344 11.9895C-0.187557 16.5891 3.91499 20.9277 8.67625 20.8215H18.6756C19.5802 20.8215 20.3161 21.5574 20.3161 22.462V38.058C19.1756 38.4988 18.3631 39.6042 18.3631 40.8983V46.4448H4.30153C1.93231 46.4448 0.00493104 48.3723 0.00493104 50.7414V61.6391C0.00493104 62.2864 0.529585 62.8109 1.17673 62.8109C1.82388 62.8109 2.34853 62.2864 2.34853 61.6391V50.7414C2.34853 49.6644 3.22457 48.7884 4.30153 48.7884H37.4061C38.0533 48.7884 38.5779 48.2639 38.5779 47.6166C38.5779 46.9693 38.0533 46.4448 37.4061 46.4448H29.2999V40.8983C29.2999 39.6042 28.4875 38.4988 27.3469 38.058V22.462C27.3469 17.6806 23.457 13.7907 18.6756 13.7907H8.75093C7.83724 13.7907 7.06823 13.0821 7.03698 12.2114C7.01495 11.4682 7.62522 10.5221 8.6764 10.5096H59.2167C59.5873 11.1172 60.2545 11.5252 61.0168 11.5252H63.6102C63.7266 12.4918 64.5503 13.2438 65.5477 13.2438H73.3597C74.4367 13.2438 75.3127 12.3678 75.3127 11.2908H78.0469C79.1239 11.2908 79.9999 10.4148 79.9999 9.33783V4.65063C79.9999 3.57382 79.1237 2.69763 78.0469 2.69763ZM20.7069 46.4448V40.8983C20.7069 40.5107 21.0223 40.1952 21.41 40.1952H26.2534C26.641 40.1952 26.9565 40.5107 26.9565 40.8983V46.4448H20.7069ZM61.2511 4.80687H63.5947V9.18159H61.2511V4.80687ZM72.9691 10.9002H65.9383V3.08823H72.9691V10.9002ZM77.6563 8.94723H75.3127V5.04123H77.6563V8.94723Z" fill="#4A74B8"/>
<path d="M69.4538 8.94726C70.1009 8.94726 70.6256 8.42276 70.6256 7.77546V6.21306C70.6256 5.56576 70.1009 5.04126 69.4538 5.04126C68.8066 5.04126 68.282 5.56576 68.282 6.21306V7.77546C68.282 8.42276 68.8065 8.94726 69.4538 8.94726Z" fill="#4A74B8"/>
<path d="M13.598 53.4756C14.2452 53.4756 14.7698 52.9511 14.7698 52.3038C14.7698 51.6565 14.2452 51.132 13.598 51.132H8.91081C8.26367 51.132 7.73901 51.6565 7.73901 52.3038C7.73901 52.9511 8.26367 53.4756 8.91081 53.4756H13.598Z" fill="#4A74B8"/>
<path d="M26.0972 53.4756C26.7443 53.4756 27.269 52.9511 27.269 52.3038C27.269 51.6565 26.7443 51.132 26.0972 51.132H21.41C20.7628 51.132 20.2382 51.6565 20.2382 52.3038C20.2382 52.9511 20.7628 53.4756 21.41 53.4756H26.0972Z" fill="#4A74B8"/>
<path d="M38.5964 53.4756C39.2436 53.4756 39.7682 52.9511 39.7682 52.3038C39.7682 51.6565 39.2436 51.132 38.5964 51.132H33.9092C33.2621 51.132 32.7374 51.6565 32.7374 52.3038C32.7374 52.9511 33.2621 53.4756 33.9092 53.4756H38.5964Z" fill="#4A74B8"/>
<path d="M51.0956 53.4756C51.7427 53.4756 52.2674 52.9511 52.2674 52.3038C52.2674 51.6565 51.7427 51.132 51.0956 51.132H46.4084C45.7612 51.132 45.2366 51.6565 45.2366 52.3038C45.2366 52.9511 45.7612 53.4756 46.4084 53.4756H51.0956Z" fill="#4A74B8"/>
<path d="M11.2544 62.8499C13.1929 62.8499 14.7698 61.2728 14.7698 59.3345C14.7698 57.3962 13.1929 55.8191 11.2544 55.8191C9.31594 55.8191 7.73901 57.3962 7.73901 59.3345C7.73901 61.2728 9.31594 62.8499 11.2544 62.8499ZM11.2544 58.1627C11.9006 58.1627 12.4262 58.6883 12.4262 59.3345C12.4262 59.9807 11.9006 60.5063 11.2544 60.5063C10.6082 60.5063 10.0826 59.9807 10.0826 59.3345C10.0826 58.6883 10.6082 58.1627 11.2544 58.1627Z" fill="#4A74B8"/>
<path d="M23.7536 62.8499C25.692 62.8499 27.269 61.2728 27.269 59.3345C27.269 57.3962 25.692 55.8191 23.7536 55.8191C21.8151 55.8191 20.2382 57.3962 20.2382 59.3345C20.2382 61.2728 21.8151 62.8499 23.7536 62.8499ZM23.7536 58.1627C24.3998 58.1627 24.9254 58.6883 24.9254 59.3345C24.9254 59.9807 24.3998 60.5063 23.7536 60.5063C23.1073 60.5063 22.5818 59.9807 22.5818 59.3345C22.5818 58.6883 23.1073 58.1627 23.7536 58.1627Z" fill="#4A74B8"/>
<path d="M36.2528 62.8499C38.1913 62.8499 39.7682 61.2728 39.7682 59.3345C39.7682 57.3962 38.1913 55.8191 36.2528 55.8191C34.3144 55.8191 32.7374 57.3962 32.7374 59.3345C32.7374 61.2728 34.3144 62.8499 36.2528 62.8499ZM36.2528 58.1627C36.899 58.1627 37.4246 58.6883 37.4246 59.3345C37.4246 59.9807 36.899 60.5063 36.2528 60.5063C35.6066 60.5063 35.081 59.9807 35.081 59.3345C35.081 58.6883 35.6066 58.1627 36.2528 58.1627Z" fill="#4A74B8"/>
<path d="M48.752 62.8499C50.6904 62.8499 52.2674 61.2728 52.2674 59.3345C52.2674 57.3962 50.6904 55.8191 48.752 55.8191C46.8135 55.8191 45.2366 57.3962 45.2366 59.3345C45.2366 61.2728 46.8135 62.8499 48.752 62.8499ZM48.752 58.1627C49.3982 58.1627 49.9238 58.6883 49.9238 59.3345C49.9238 59.9807 49.3982 60.5063 48.752 60.5063C48.1058 60.5063 47.5802 59.9807 47.5802 59.3345C47.5802 58.6883 48.1058 58.1627 48.752 58.1627Z" fill="#4A74B8"/>
</g>
<defs>
<clipPath id="clip0">
<rect width="80" height="80" fill="white"/>
</clipPath>
</defs>
</svg>
