<svg width="180" height="180" fill="none" xmlns="http://www.w3.org/2000/svg"><g clip-path="url(#clip0)"><path d="M170.69 98.728h-25.735c.193-1.149.131 4.002.131-77.586 0-5.14-4.17-9.31-9.31-9.31H59.741c-5.14 0-9.31 4.17-9.31 9.31v36.465H9.311c-5.14 0-9.311 4.17-9.311 9.31v91.94c0 5.14 4.17 9.311 9.31 9.311h91.94c5.14 0 9.31-4.171 9.31-9.311 0 5.14 4.171 9.311 9.311 9.311h50.819c5.14 0 9.31-4.171 9.31-9.311v-50.819c0-5.14-4.17-9.31-9.31-9.31z" fill="#345488"/><path d="M85.345 11.832v8.534a3.103 3.103 0 01-3.104 3.104H75.26c-5.14 0-9.31 4.17-9.31 9.31v24.827H50.43V21.142c0-5.14 4.17-9.31 9.31-9.31h25.604zm16.108 55.861H77.198a3.104 3.104 0 01-3.103-3.103v-6.983h27.155c7.205 0 6.743 10.086.203 10.086zM36.652 57.607v6.983a3.104 3.104 0 01-3.104 3.103H23.276a9.31 9.31 0 00-9.31 9.31v88.061a3.104 3.104 0 01-3.104 3.104H9.31A9.31 9.31 0 010 158.857v-91.94a9.31 9.31 0 019.31-9.31h27.342zm138.137 48.88h-14.186a3.104 3.104 0 01-3.103-3.104v-4.655h13.19c2.367 0 4.53.886 6.173 2.344 2.13 1.889.772 5.415-2.074 5.415zm-42.117-7.759v4.809c0 1.476-1.199 2.834-2.656 3.069-4.423.715-7.822 4.549-7.822 9.194v43.098c.003 7.557-11.634 7.996-11.634-.04v-50.819a9.311 9.311 0 019.311-9.31h12.801zm3.142-75.258h-22.538a3.104 3.104 0 01-3.104-3.104v-8.534h25.604c8.024 0 7.609 11.637.038 11.637z" fill="#4A74B8"/><path d="M145.086 95.625c0 1.587.031 2.185-.131 3.104h-25.084c-4.561 0-8.435 3.312-9.179 7.758-.205 0-.132 3.068-.132-39.569 0-5.14-4.17-9.31-9.31-9.31H50.431v-3.103a3.103 3.103 0 013.104-3.104h47.715c8.569 0 15.517 6.948 15.517 15.517v25.914c2.104-.423 1.36-.31 25.216-.31a3.103 3.103 0 013.103 3.103z" fill="#010A29"/><path d="M110.172 11.832v21.766c0 4.617-4.857 7.615-8.984 5.552l-3.43-1.715-3.429 1.715c-4.127 2.063-8.984-.935-8.984-5.552V11.831h24.827z" fill="#CBE3FA"/><path d="M110.172 11.832v8.534a3.103 3.103 0 01-3.103 3.104h-18.62a3.104 3.104 0 01-3.104-3.104v-8.534h24.827z" fill="#EEF7FF"/><path d="M157.5 98.728v17.888c0 4.616-4.857 7.615-8.984 5.551l-3.43-1.715-3.429 1.715c-4.128 2.064-8.985-.935-8.985-5.551V98.728H157.5z" fill="#CBE3FA"/><path d="M157.5 98.728v4.655a3.104 3.104 0 01-3.103 3.104h-18.621a3.104 3.104 0 01-3.104-3.104v-4.655H157.5z" fill="#EEF7FF"/><path d="M74.095 57.608v29.126c0 3.774-4.252 5.978-7.336 3.805l-1.924-1.353-5.935 4.092a6.217 6.217 0 01-7.053 0l-5.935-4.093-1.925 1.354c-3.084 2.173-7.335-.03-7.335-3.805V57.608h37.443z" fill="#CBE3FA"/><path d="M74.095 57.608v6.983a3.104 3.104 0 01-3.104 3.103H39.755a3.104 3.104 0 01-3.103-3.103v-6.983h37.443z" fill="#EEF7FF"/><path d="M20.56 156.142a3.103 3.103 0 01-3.103-3.103v-19.397a3.103 3.103 0 016.207 0v19.397a3.103 3.103 0 01-3.104 3.103zm17.07 0a3.104 3.104 0 01-3.104-3.103v-12.026a3.104 3.104 0 016.207 0v12.026a3.104 3.104 0 01-3.104 3.103zm94.267-11.638h-6.207a3.104 3.104 0 00-3.104 3.104v6.207a3.104 3.104 0 003.104 3.103h6.207a3.103 3.103 0 003.103-3.103v-6.207a3.104 3.104 0 00-3.103-3.104z" fill="#010A29"/></g><defs><clipPath id="clip0"><path fill="#fff" d="M0 0h180v180H0z"/></clipPath></defs></svg>