<svg width="180" height="180" fill="none" xmlns="http://www.w3.org/2000/svg"><g clip-path="url(#clip0)"><path d="M163.33 64.841c-1.326-5.257-6.011-9.19-11.649-9.36V38.406c0-6.855-5.559-12.414-12.414-12.414H14.74C6.694 25.99.15 32.434 0 40.445v125.978c0 6.855 5.557 12.414 12.412 12.414h138.881c6.855 0 12.414-5.559 12.414-12.414 0-107.123.168-99.421-.377-101.582z" fill="#010A29"/><path d="M137.746 29.719a5.475 5.475 0 012.735 7.247l-28.746 63.586-71.76-32.44 28.75-63.59a5.47 5.47 0 017.242-2.73l61.779 27.927z" fill="#9CBCFF"/><path d="M140.481 36.966l-28.746 63.586-53.38-24.13h40.567V54.7c0-1.276 1.132-2.24 2.397-2.066 14.646 2.03 27.984-5.144 35.458-17.589 1.339-2.23 4.819-.545 3.704 1.922z" fill="#80AAFF"/><path d="M93.444 1.163H25.648a5.477 5.477 0 00-5.477 5.478v69.781h78.75V6.641a5.477 5.477 0 00-5.477-5.478z" fill="#EEF7FF"/><path d="M98.921 22.106v54.316H66.335v-34.65c0-1.184.672-2.266 1.736-2.784a85.468 85.468 0 0025.467-18.983c1.914-2.08 5.383-.725 5.383 2.101zM42.283 50.345v26.077H20.171V50.676a3.101 3.101 0 013.293-3.097c4.403.27 9.63.28 15.386-.318a3.106 3.106 0 013.433 3.084z" fill="#CBE3FA"/><path d="M42.283 1.163h24.052v75.26H42.283V1.162z" fill="#6E6F80"/><path d="M66.335 44.507v31.915H42.283v-26.93c0-1.503 1.076-2.8 2.559-3.054a86.612 86.612 0 0017.252-4.816c2.035-.805 4.241.696 4.241 2.885z" fill="#585966"/><path d="M151.681 55.482c-.398-.012-135.044-.008-136.65-.008C6.86 55.474.004 48.864 0 40.732v125.691c0 6.855 5.557 12.414 12.412 12.414h138.881c6.855 0 12.414-5.559 12.414-12.414V67.888c0-6.727-5.35-12.205-12.026-12.406z" fill="#345488"/><path d="M151.902 89.025c-49.42-5.908-123.926 19.779-126.41 83.793-.13 3.352-2.849 6.019-6.204 6.019h-6.876C5.556 178.837 0 173.279 0 166.423V64c0 8.135 6.857 14.75 15.03 14.75 146.459 0 136.861-.097 138.494.2 6.425 1.166 4.862 10.85-1.622 10.075z" fill="#4A74B8"/><path d="M0 64V40.732c.004 8.131 6.86 14.742 15.03 14.742 0 0 136.523.003 136.651.007 6.676.202 12.026 5.68 12.026 12.406v23.276c0-6.854-5.559-12.413-12.414-12.413H15.031C6.857 78.75 0 72.135 0 64z" fill="#9CBCFF"/><path d="M179.616 128.002l-5.082-13.772a6.212 6.212 0 00-5.827-4.058h-33.118c-11.04 0-19.986 8.946-19.986 19.979 0 11.038 8.945 19.979 19.986 19.979h33.118a6.212 6.212 0 005.827-4.058l5.082-13.772a6.205 6.205 0 000-4.298z" fill="#4A74B8"/><path d="M174.534 114.23a2.461 2.461 0 01-2.309 3.313h-28.877c-12.516 0-21.061 10.963-19.895 22.102.264 2.521-3.071 3.718-4.482 1.612a19.887 19.887 0 01-3.368-11.106c0-11.033 8.946-19.979 19.986-19.979h33.118a6.211 6.211 0 015.827 4.058z" fill="#9CBCFF"/><path d="M136.939 136.164a6.207 6.207 0 100-12.414 6.207 6.207 0 000 12.414z" fill="#345488"/></g><defs><clipPath id="clip0"><path fill="#fff" d="M0 0h180v180H0z"/></clipPath></defs></svg>