<svg xmlns="http://www.w3.org/2000/svg" xmlns:xlink="http://www.w3.org/1999/xlink" version="1.1" id="Слой_1" x="0px" y="0px" viewBox="0 0 100 100" style="enable-background:new 0 0 100 100;" xml:space="preserve">
<style type="text/css">
	.st0{fill:#907E41;}
</style>
<g>
	<g>
		<path class="st0" d="M9,54l-6.6-8.7l45.3-34.3L94,43.5l-6.2,8.9L47.7,24.6L9,54z M5.5,45.8l3.9,5.1l38.3-29l39.6,27.5l3.6-5.3    L47.7,13.8L5.5,45.8z"/>
	</g>
	<g>
		<path class="st0" d="M4.9,90.5l-0.3-0.2c-0.5-0.4-2.3-2-2.4-4.6c0-0.2-0.1-3.7,2.7-5.3c0.8-0.4,1.6-0.6,2.3-0.6    c0.1-1.1,0.4-2.6,1.5-4c0.4-0.5,2.7-3.2,6.1-2.8c2.3,0.3,4.4,1.9,4.8,2.4l0.3,0.3l0,0.4c0.1,3.3,0.1,5.2,0,7.7c0,1.5,0,3.1,0,5.4    l0,1.1L4.9,90.5z M7.3,82c-0.4,0-0.9,0.1-1.4,0.3c-1.6,0.9-1.5,3.2-1.5,3.2c0.1,1.3,0.8,2.2,1.3,2.7l12-0.2c0-1.7,0-3.1,0-4.3    c0-2.3,0-4.2,0-7.1c-0.6-0.4-1.9-1.3-3.1-1.4c-2.3-0.3-3.9,1.7-4.1,1.9c-1.1,1.4-1.1,3.1-1,3.7l0.1,1.5l-1.5-0.3    C7.9,82.1,7.6,82,7.3,82z"/>
	</g>
	<g>
		
			<rect x="0" y="88.3" transform="matrix(0.9997 -2.421874e-02 2.421874e-02 0.9997 -2.1618 0.2768)" class="st0" width="20.6" height="2.2"/>
	</g>
	<g>
		
			<rect x="74.3" y="88" transform="matrix(1 -1.367186e-03 1.367186e-03 1 -0.1218 0.1158)" class="st0" width="20.6" height="2.2"/>
	</g>
	<g>
		<path class="st0" d="M56.8,90H39.1V58.2h19.2v23.4l-0.7,0.3c-0.5,0.2-0.9,0.5-1.3,0.8c-1.1,1.1-1.3,2.6-1.3,3.1    c0,1.1,0.4,2,0.7,2.5L56.8,90z M41.3,87.8h11.8c-0.2-0.6-0.3-1.3-0.3-2l0,0c0-0.9,0.2-3,2-4.7c0.4-0.4,0.8-0.7,1.3-0.9V60.5H41.3    V87.8z"/>
	</g>
	<g>
		<g>
			<path class="st0" d="M57,90.3H17.7V44.5l30-22.7l31.9,22.7v27.7l-1.2-0.1c-1.8-0.1-3.8,0.6-5.2,1.8c-0.8,0.7-1.5,1.6-2,2.7     l-0.5,1.2l-1.1-0.8c-1.4-1-3.2-1-4.7-0.1c-1.3,0.8-2.1,2.3-2,3.9l0.1,1.8L61.4,82c-1.8-0.8-3.8-0.5-5.1,0.7l0,0     c-1.1,1.1-1.3,2.6-1.3,3.1c0,1.3,0.5,2.3,0.8,2.7L57,90.3z M19.9,88h33.3c-0.2-0.6-0.4-1.4-0.3-2.3c0-0.9,0.2-3,2-4.7     c1.5-1.5,3.8-2,6-1.5c0.3-1.8,1.4-3.4,2.9-4.3c1.8-1.1,4-1.3,6-0.5c0.5-0.9,1.2-1.8,2-2.4c1.6-1.3,3.6-2.2,5.6-2.4V45.7     L47.7,24.6L19.9,45.7V88z"/>
		</g>
		<g>
			<polygon class="st0" points="79.6,90.3 54.9,90.3 54.9,88 79.6,87.8    "/>
		</g>
	</g>
	<g>
		<path class="st0" d="M54.3,90.3L54,89.8c-0.5-0.7-1.2-2.1-1.2-4c0-0.9,0.2-3,2-4.7c1.5-1.5,3.8-2,6-1.5c0.3-1.8,1.4-3.4,2.9-4.3    c1.8-1.1,4-1.3,6-0.5c0.5-0.9,1.2-1.8,2-2.4c1.2-1.1,2.8-1.8,4.4-2.2c1.9-0.4,3.7-0.2,5.4,0.5c2.6,1.1,3.9,3.3,4.6,4.6    c1.2,0.1,2.8,0.5,4.3,1.5c0.7,0.5,4.4,3.3,3.7,7.5c-0.4,2.6-2.3,4.8-5,5.8L88.9,90L54.3,90.3z M59.3,81.6c-1.1,0-2.2,0.4-2.9,1.1    c-1.1,1.1-1.3,2.6-1.3,3.1c0,0.9,0.2,1.7,0.5,2.2l32.9-0.2c1.8-0.7,3.1-2.2,3.4-3.9c0.5-2.9-2.2-4.9-2.8-5.3    c-1.4-0.9-2.8-1.2-3.8-1.2l-0.8,0l-0.3-0.7c-0.3-0.9-1.3-3-3.7-4c-2.7-1.2-5.7-0.2-7.5,1.3c-0.8,0.7-1.5,1.6-2,2.7l-0.5,1.2    l-1.1-0.8c-1.4-1-3.2-1-4.7-0.1c-1.3,0.8-2.1,2.3-2,3.9l0.1,1.8L61.4,82C60.7,81.7,60,81.6,59.3,81.6z"/>
	</g>
	<g>
		<path class="st0" d="M81.9,33.9c-4.2,0-7.5-1.6-9.1-2.6L72.3,31l0-0.6c-0.1-1.9-0.3-8.5,4.7-14c4.1-4.5,9.3-5.5,11.5-6l0,0    c3.5-0.7,7.1-0.5,10.6,0.4l0.7,0.2l0.1,0.7c0.3,2,0.8,9-4,15c-1.9,2.4-6.1,6.5-12.7,7C82.7,33.9,82.3,33.9,81.9,33.9z M74.4,29.7    c1.7,1,4.8,2.2,8.6,1.9c5.7-0.4,9.4-4.1,11.1-6.2c3.8-4.7,3.8-10.2,3.6-12.5c-2.9-0.7-6-0.7-8.9-0.2l0,0    c-2.2,0.4-6.7,1.3-10.3,5.3C74.6,22.3,74.3,27.5,74.4,29.7z"/>
	</g>
	<g>
		<path class="st0" d="M73.8,30.9l-0.6-0.1c-1.3-0.3-5.5-1.7-8-6c-2-3.6-1.7-7-1.4-8.8c0.6-2.9,2.1-5,3.2-6.3l0.4-0.4l0.5,0    c0.9,0.1,5.8,0.6,8.7,4.9c2,2.8,2.5,6.4,1.4,10.2c-0.8,3-2.6,5-3.9,6.1L73.8,30.9z M68.4,11.6c-0.9,1-1.9,2.6-2.3,4.8    c-0.2,1.2-0.6,4.2,1.1,7.2c1.7,3.1,4.6,4.3,6,4.8c1-1,2.2-2.5,2.8-4.7c0.9-3.1,0.5-6-1.1-8.3C72.9,12.5,69.7,11.8,68.4,11.6z"/>
	</g>
</g>
</svg>