<svg xmlns="http://www.w3.org/2000/svg" xmlns:xlink="http://www.w3.org/1999/xlink" version="1.1" id="Слой_1" x="0px" y="0px" viewBox="0 0 100 100" style="enable-background:new 0 0 100 100;" xml:space="preserve">
<style type="text/css">
	.st0{fill:#907E41;}
</style>
<g>
	<g>
		<path class="st0" d="M15.6,19.8c-3.1,0-5.5-2.5-5.5-5.5s2.5-5.5,5.5-5.5s5.5,2.5,5.5,5.5S18.6,19.8,15.6,19.8z M15.6,11.8    c-1.4,0-2.5,1.1-2.5,2.5s1.1,2.5,2.5,2.5s2.5-1.1,2.5-2.5S17,11.8,15.6,11.8z"/>
	</g>
	<g>
		<path class="st0" d="M15.6,41.7l-1.3-2c-0.5-0.9-1.2-1.9-2-3.1c-5-7.8-9.6-15-10.4-18.2c-0.2-0.7-0.6-2.5-0.6-4.1    C1.3,6.4,7.7,0,15.6,0s14.3,6.4,14.3,14.3c0,1.1-0.2,2.5-0.6,4.2c-0.7,2.9-5,9.7-10.1,17.6c-0.9,1.3-1.7,2.6-2.3,3.6L15.6,41.7z     M15.6,3.1c-6.2,0-11.2,5-11.2,11.2c0,1.3,0.4,2.8,0.5,3.4c0.7,2.9,6.5,11.9,10,17.2c0.2,0.4,0.5,0.7,0.7,1.1    c0.3-0.5,0.7-1.1,1.1-1.6c3.6-5.6,9-14,9.7-16.7c0.4-1.7,0.5-2.8,0.5-3.4C26.8,8.1,21.8,3.1,15.6,3.1z"/>
	</g>
	<g>
		<path class="st0" d="M79.3,70c-5.3,0-9.6-4.3-9.6-9.6s4.3-9.6,9.6-9.6c5.3,0,9.6,4.3,9.6,9.6S84.6,70,79.3,70z M79.3,54    c-3.6,0-6.4,2.9-6.4,6.4c0,3.6,2.9,6.4,6.4,6.4c3.6,0,6.4-2.9,6.4-6.4C85.7,56.9,82.8,54,79.3,54z"/>
	</g>
	<g>
		<path class="st0" d="M79.3,100l-1.4-2.2c-0.8-1.2-1.7-2.7-2.8-4.5c-7-11.3-13.4-21.7-14.5-26.3c-0.3-1.1-0.8-3.5-0.8-5.9    C59.9,50,68.6,41,79.3,41S98.7,50,98.7,61.2c0,1.6-0.3,3.6-0.8,5.9c-1,4.2-6.9,14-14,25.4c-1.2,2-2.3,3.8-3.2,5.3L79.3,100z     M79.3,44.2c-8.9,0-16.2,7.6-16.2,17c0,2,0.5,4.2,0.8,5.1c1,4.4,9.2,17.5,14.1,25.3c0.5,0.8,1,1.6,1.4,2.3c0.6-1,1.2-2,1.9-3.1    c5-8.1,12.6-20.4,13.6-24.5c0.6-2.6,0.8-4.2,0.8-5.1C95.5,51.8,88.2,44.2,79.3,44.2z"/>
	</g>
	<g>
		<g>
			<path class="st0" d="M28.7,40.9C28.7,40.9,28.7,40.9,28.7,40.9l-4.5-0.1c-1,0-1.7-0.8-1.7-1.8c0-0.9,0.8-1.7,1.7-1.7c0,0,0,0,0,0     l4.5,0.1c1,0,1.7,0.8,1.7,1.8C30.4,40.2,29.6,40.9,28.7,40.9z"/>
		</g>
		<g>
			<path class="st0" d="M57.3,96c-0.3,0-0.7-0.1-1-0.3c-0.2-0.1-0.3-0.2-0.5-0.3c-1-0.7-3.6-2.7-5.9-6.2c-0.5-0.8-0.3-1.9,0.5-2.4     c0.8-0.5,1.9-0.3,2.4,0.5c2,3,4.2,4.7,5,5.3c0.1,0.1,0.3,0.2,0.4,0.3c0.8,0.5,1,1.6,0.5,2.4C58.4,95.8,57.9,96,57.3,96z      M48.1,82.2c-0.8,0-1.5-0.5-1.7-1.3c-0.2-0.8-0.4-1.7-0.6-2.5c-0.6-2.9-0.7-4.8-0.7-6.2c0-1,0.7-1.7,1.7-1.8c1,0,1.7,0.7,1.8,1.7     c0,1.4,0.1,3,0.6,5.6c0.2,0.8,0.3,1.6,0.5,2.3c0.2,0.9-0.3,1.9-1.3,2.1C48.4,82.2,48.3,82.2,48.1,82.2z M46.8,65.4     c-0.9,0-1.7-0.7-1.7-1.6c0-0.6-0.1-1.2-0.1-1.8c-0.3-2.9-0.5-4.7-0.8-6.5c-0.2-0.9,0.4-1.8,1.4-2c0.9-0.2,1.8,0.4,2,1.4     c0.4,2,0.6,4.3,0.8,6.8c0.1,0.6,0.1,1.2,0.2,1.8c0.1,1-0.7,1.8-1.6,1.9C46.9,65.4,46.8,65.4,46.8,65.4z M42.7,49.1     c-0.6,0-1.1-0.3-1.5-0.8c-1.1-1.8-2.5-3.3-4.1-4.5c-0.4-0.3-0.9-0.6-1.3-0.9c-0.8-0.5-1.1-1.6-0.6-2.4c0.5-0.8,1.6-1.1,2.4-0.6     c0.5,0.3,1.1,0.7,1.6,1.1c2,1.5,3.6,3.3,5,5.4c0.5,0.8,0.3,1.9-0.6,2.4C43.3,49,43,49.1,42.7,49.1z"/>
		</g>
		<g>
			<path class="st0" d="M69.8,98.5C69.8,98.5,69.8,98.5,69.8,98.5l-4.5-0.1c-1,0-1.7-0.8-1.7-1.8s0.8-1.7,1.8-1.7l4.5,0.1     c1,0,1.7,0.8,1.7,1.8C71.5,97.8,70.7,98.5,69.8,98.5z"/>
		</g>
	</g>
</g>
</svg>