<svg xmlns="http://www.w3.org/2000/svg" xmlns:xlink="http://www.w3.org/1999/xlink" version="1.1" id="Слой_1" x="0px" y="0px" viewBox="0 0 100 100" style="enable-background:new 0 0 100 100;" xml:space="preserve">
<style type="text/css">
	.st0{fill:#907E41;}
</style>
<g>
	<g>
		<polygon class="st0" points="7.4,95.4 4.7,94.7 9.6,74.9 2.2,50 4.9,49.2 12.5,74.8   "/>
	</g>
	<g>
		
			<rect x="28.6" y="74.5" transform="matrix(0.9701 -0.2425 0.2425 0.9701 -19.7011 9.8159)" class="st0" width="2.8" height="20.8"/>
	</g>
	<g>
		<rect x="11.1" y="74" class="st0" width="21.5" height="2.8"/>
	</g>
	<g>
		<polygon class="st0" points="92.8,95.4 87.6,74.8 95.3,49.2 98,50 90.5,74.9 95.5,94.7   "/>
	</g>
	<g>
		
			<rect x="59.7" y="83.5" transform="matrix(0.2425 -0.9701 0.9701 0.2425 -29.2604 132.3749)" class="st0" width="20.8" height="2.8"/>
	</g>
	<g>
		<rect x="67.6" y="74" class="st0" width="21.5" height="2.8"/>
	</g>
	<g>
		<rect x="48.6" y="31.3" class="st0" width="2.8" height="58.1"/>
	</g>
	<g>
		<rect x="31.7" y="65.2" class="st0" width="36.6" height="2.8"/>
	</g>
	<g>
		<path class="st0" d="M98.6,30.2H1.4c-0.5,0-1-0.3-1.3-0.8c-0.2-0.5-0.2-1.1,0.2-1.5c1.8-2.1,6.7-7.6,14.6-12.7    c4.8-3.1,9.9-5.6,15.1-7.3c6.4-2.1,13.1-3.2,20-3.2s13.5,1.1,20,3.2c5.2,1.7,10.3,4.2,15.1,7.3c7.9,5.1,12.8,10.6,14.6,12.7    c0.4,0.4,0.4,1,0.2,1.5C99.6,29.9,99.1,30.2,98.6,30.2z M4.6,27.4h90.8C89.5,21.2,73.7,7.5,50,7.5C26.3,7.5,10.5,21.2,4.6,27.4z"/>
	</g>
	<g>
		<path class="st0" d="M62,94.9H38c-0.5,0-0.9-0.3-1-0.7c-0.2-0.4,0-0.9,0.3-1.2c1.7-1.4,6.2-4.7,12.7-4.7c6.5,0,11.1,3.3,12.7,4.7    c0.4,0.3,0.5,0.8,0.3,1.2C62.9,94.6,62.5,94.9,62,94.9z M41.6,92.7h16.9c-2-1.1-4.9-2.2-8.4-2.2S43.6,91.5,41.6,92.7z"/>
	</g>
</g>
</svg>