<svg xmlns="http://www.w3.org/2000/svg" xmlns:xlink="http://www.w3.org/1999/xlink" version="1.1" id="Слой_1" x="0px" y="0px" viewBox="0 0 100 100" style="enable-background:new 0 0 100 100;" xml:space="preserve">
<style type="text/css">
	.st0{fill:#907E41;}
</style>
<g>
	<g>
		<path class="st0" d="M21,100H5.7c-0.7,0-1.3-0.6-1.3-1.3V1.3C4.4,0.6,5,0,5.7,0H21c0.7,0,1.3,0.6,1.3,1.3v97.3    C22.4,99.4,21.8,100,21,100z M7.1,97.3h12.6V2.7H7.1V97.3z"/>
	</g>
	<g>
		<path class="st0" d="M78,86.1H21c-0.7,0-1.3-0.6-1.3-1.3V27.3c0-0.5,0.3-1,0.8-1.2c0.5-0.2,1.1-0.1,1.5,0.3l57,57.4    c0.4,0.4,0.5,1,0.3,1.5C79.1,85.8,78.6,86.1,78,86.1z M22.4,83.4h52.4L22.4,30.6V83.4z"/>
	</g>
	<g>
		<path class="st0" d="M51.1,75.9H31.3c-0.7,0-1.3-0.6-1.3-1.3V54.7c0-0.5,0.3-1,0.8-1.2c0.5-0.2,1.1-0.1,1.5,0.3L52,73.7    c0.4,0.4,0.5,1,0.3,1.5C52.1,75.6,51.6,75.9,51.1,75.9z M32.7,73.3h15.2L32.7,58V73.3z"/>
	</g>
	<g>
		<path class="st0" d="M41.4,51.6l3.9-14l11,12.1L41.4,51.6z M46.6,43l-1.5,5.4l5.8-0.7L46.6,43z"/>
	</g>
	<g>
		<rect x="5.3" y="5.6" class="st0" width="5.3" height="2.7"/>
	</g>
	<g>
		<rect x="5.3" y="11.8" class="st0" width="5.3" height="2.7"/>
	</g>
	<g>
		<rect x="5.3" y="18.1" class="st0" width="5.3" height="2.7"/>
	</g>
	<g>
		<rect x="5.3" y="24.3" class="st0" width="5.3" height="2.7"/>
	</g>
	<g>
		<rect x="5.3" y="30.6" class="st0" width="5.3" height="2.7"/>
	</g>
	<g>
		<rect x="5.3" y="36.8" class="st0" width="5.3" height="2.7"/>
	</g>
	<g>
		<rect x="5.3" y="43.1" class="st0" width="5.3" height="2.7"/>
	</g>
	<g>
		<rect x="5.3" y="49.4" class="st0" width="5.3" height="2.7"/>
	</g>
	<g>
		<rect x="5.3" y="55.6" class="st0" width="5.3" height="2.7"/>
	</g>
	<g>
		<rect x="5.3" y="61.9" class="st0" width="5.3" height="2.7"/>
	</g>
	<g>
		<rect x="5.3" y="74.4" class="st0" width="5.3" height="2.7"/>
	</g>
	<g>
		<rect x="5.3" y="80.6" class="st0" width="5.3" height="2.7"/>
	</g>
	<g>
		<rect x="5.3" y="86.9" class="st0" width="5.3" height="2.7"/>
	</g>
	<g>
		<rect x="5.3" y="68.1" class="st0" width="5.3" height="2.7"/>
	</g>
	<g>
		<rect x="5.3" y="93.1" class="st0" width="5.3" height="2.7"/>
	</g>
	<g>
		<rect x="21.6" y="18.7" transform="matrix(0.724 -0.6898 0.6898 0.724 -2.6157 33.5387)" class="st0" width="38.1" height="2.7"/>
	</g>
	<g>
		
			<rect x="38.3" y="19.1" transform="matrix(0.7196 -0.6943 0.6943 0.7196 4.2417 51.4206)" class="st0" width="55.1" height="2.7"/>
	</g>
	<g>
		<rect x="24.4" y="36.8" transform="matrix(0.755 -0.6558 0.6558 0.755 -18.2767 27.4526)" class="st0" width="6.4" height="2.7"/>
	</g>
	<g>
		<rect x="28.6" y="41" transform="matrix(0.755 -0.6558 0.6558 0.755 -19.9898 31.2095)" class="st0" width="6.4" height="2.7"/>
	</g>
	<g>
		<rect x="32.8" y="45.2" transform="matrix(0.755 -0.6558 0.6558 0.755 -21.7028 34.9663)" class="st0" width="6.4" height="2.7"/>
	</g>
	<g>
		<rect x="37.7" y="49.8" transform="matrix(0.755 -0.6558 0.6558 0.755 -23.5366 39.3752)" class="st0" width="6.4" height="2.7"/>
	</g>
	<g>
		<rect x="42" y="54.8" transform="matrix(0.755 -0.6558 0.6558 0.755 -25.7781 43.3646)" class="st0" width="6.4" height="2.7"/>
	</g>
	<g>
		<rect x="46.7" y="58.9" transform="matrix(0.755 -0.6558 0.6558 0.755 -27.2618 47.4335)" class="st0" width="6.4" height="2.7"/>
	</g>
	<g>
		<rect x="50.7" y="63.7" transform="matrix(0.755 -0.6558 0.6558 0.755 -29.4856 51.2569)" class="st0" width="6.4" height="2.7"/>
	</g>
	<g>
		<rect x="54.4" y="67.3" transform="matrix(0.755 -0.6558 0.6558 0.755 -30.8668 54.5816)" class="st0" width="6.4" height="2.7"/>
	</g>
	<g>
		<rect x="59" y="72.1" transform="matrix(0.755 -0.6558 0.6558 0.755 -32.9034 58.775)" class="st0" width="6.4" height="2.7"/>
	</g>
	<g>
		<rect x="63.5" y="76.3" transform="matrix(0.755 -0.6558 0.6558 0.755 -34.5718 62.7847)" class="st0" width="6.4" height="2.7"/>
	</g>
	<g>
		<rect x="47.1" y="28.3" transform="matrix(0.7196 -0.6943 0.6943 0.7196 0.353 60.0871)" class="st0" width="55.1" height="2.7"/>
	</g>
	<g>
		
			<rect x="42.7" y="26.4" transform="matrix(0.7143 -0.6998 0.6998 0.7143 -0.412 54.5037)" class="st0" width="47.7" height="2.7"/>
	</g>
	<g>
		
			<rect x="88.3" y="-0.6" transform="matrix(0.6945 -0.7195 0.7195 0.6945 22.7286 66.4517)" class="st0" width="2.7" height="14.1"/>
	</g>
	<g>
		
			<rect x="83.6" y="5.2" transform="matrix(0.6959 -0.7181 0.7181 0.6959 17.5181 64.5512)" class="st0" width="2.7" height="12.8"/>
	</g>
	<g>
		
			<rect x="77.7" y="66.4" transform="matrix(0.7014 -0.7128 0.7128 0.7014 -37.3288 81.8682)" class="st0" width="2.7" height="38.1"/>
	</g>
</g>
</svg>