<svg width="30" height="16" viewBox="0 0 30 16" fill="none" xmlns="http://www.w3.org/2000/svg">
<path d="M28.8281 6.82811H4.01027L8.12144 2.73687C8.58017 2.28031 8.58193 1.53833 8.12536 1.0796C7.6688 0.620816 6.92677 0.619117 6.46804 1.07562L0.344757 7.16936C0.344347 7.16972 0.344054 7.17013 0.343703 7.17048C-0.113856 7.62704 -0.115321 8.37141 0.343585 8.8295C0.343996 8.82985 0.344289 8.83026 0.34464 8.83061L6.46792 14.9244C6.92659 15.3808 7.66862 15.3792 8.12525 14.9204C8.58181 14.4616 8.58005 13.7197 8.12132 13.2631L4.01027 9.17186H28.8281C29.4753 9.17186 30 8.64721 30 7.99999C30 7.35276 29.4753 6.82811 28.8281 6.82811Z" fill="#010A29"/>
</svg>
