<svg width="80" height="80" viewBox="0 0 80 80" fill="none" xmlns="http://www.w3.org/2000/svg">
<path d="M40 1.25C18.5989 1.25 1.25 18.5989 1.25 40C1.25 61.4011 18.5989 78.75 40 78.75C61.4011 78.75 78.75 61.4011 78.75 40C78.75 18.5989 61.4011 1.25 40 1.25ZM40 73.75C21.4587 73.75 6.25 58.7414 6.25 40C6.25 21.4589 21.2586 6.25 40 6.25C58.5413 6.25 73.75 21.2586 73.75 40C73.75 58.5411 58.7414 73.75 40 73.75ZM62.1297 30.7873L33.9297 58.7611C33.1945 59.4903 32.0073 59.4856 31.2781 58.7505L17.8597 45.2236C17.1305 44.4884 17.1352 43.3013 17.8703 42.572L19.2016 41.2516C19.9367 40.5223 21.1239 40.527 21.8531 41.2622L32.6306 52.1267L58.1683 26.7939C58.9034 26.0647 60.0906 26.0694 60.8198 26.8045L62.1403 28.1358C62.8697 28.8709 62.8648 30.0581 62.1297 30.7873Z" fill="#BBD99F"/>
</svg>
