<svg width="42" height="42" viewBox="0 0 42 42" fill="none" xmlns="http://www.w3.org/2000/svg">
<path d="M21 39.375C16.1266 39.375 11.4529 37.4391 8.00691 33.9931C4.56093 30.5471 2.625 25.8734 2.625 21C2.625 16.1266 4.56093 11.4529 8.00691 8.00691C11.4529 4.56093 16.1266 2.625 21 2.625C25.8734 2.625 30.5471 4.56093 33.9931 8.00691C37.4391 11.4529 39.375 16.1266 39.375 21C39.375 25.8734 37.4391 30.5471 33.9931 33.9931C30.5471 37.4391 25.8734 39.375 21 39.375ZM21 42C26.5695 42 31.911 39.7875 35.8492 35.8492C39.7875 31.911 42 26.5695 42 21C42 15.4305 39.7875 10.089 35.8492 6.15076C31.911 2.21249 26.5695 0 21 0C15.4305 0 10.089 2.21249 6.15076 6.15076C2.21249 10.089 0 15.4305 0 21C0 26.5695 2.21249 31.911 6.15076 35.8492C10.089 39.7875 15.4305 42 21 42Z" fill="#AA1E21"/>
<path d="M28.7963 13.0464C28.7776 13.0645 28.76 13.0838 28.7438 13.1041L19.6272 24.7197L14.133 19.223C13.7598 18.8752 13.2662 18.6859 12.7562 18.6949C12.2461 18.7039 11.7595 18.9105 11.3988 19.2712C11.0381 19.632 10.8314 20.1186 10.8225 20.6286C10.8135 21.1387 11.0028 21.6323 11.3505 22.0055L18.2963 28.9539C18.4834 29.1406 18.7062 29.2878 18.9514 29.3866C19.1967 29.4854 19.4593 29.5338 19.7236 29.5289C19.9879 29.524 20.2486 29.4659 20.49 29.3581C20.7314 29.2503 20.9486 29.095 21.1287 28.9014L31.6077 15.8026C31.9645 15.4281 32.1596 14.9282 32.1507 14.411C32.1419 13.8938 31.9299 13.4009 31.5605 13.0387C31.1912 12.6766 30.6941 12.4744 30.1769 12.4758C29.6596 12.4773 29.1636 12.6822 28.7963 13.0464Z" fill="#AA1E21"/>
</svg>
