<svg width="102" height="95" viewBox="0 0 102 95" fill="none" xmlns="http://www.w3.org/2000/svg">
<path d="M84.4024 68.6583L83.8258 68.695L83.6334 69.2397C81.2062 76.1091 77.0782 82.2472 71.6369 87.0783L69.9154 88.6068H72.2176H83.3294C84.0576 88.6068 84.7564 88.8968 85.272 89.4138C85.7877 89.9308 86.0779 90.6326 86.0779 91.3648C86.0779 92.097 85.7877 92.7988 85.272 93.3158C84.7564 93.8328 84.0576 94.1228 83.3294 94.1228H60.1511C60.134 94.1228 60.1187 94.1232 60.1058 94.1238C60.0929 94.1232 60.0783 94.1228 60.0624 94.1228H3.62302C2.89481 94.1228 2.19597 93.8328 1.68035 93.3158C1.16465 92.7988 0.874521 92.097 0.874521 91.3648C0.874521 90.6326 1.16465 89.9308 1.68035 89.4138C2.19597 88.8968 2.89481 88.6068 3.62302 88.6068H14.7348H17.0405L15.3148 87.0777C10.7856 83.0646 7.15664 78.134 4.66744 72.6111C2.17835 67.0885 0.885585 61.0993 0.874521 55.0388V33.2444C0.874521 32.5122 1.16465 31.8105 1.68035 31.2934C2.19597 30.7765 2.89481 30.4865 3.62302 30.4865H83.3284C87.8988 30.4916 92.281 32.3142 95.5135 35.5552C98.7461 38.7962 100.565 43.191 100.57 47.7755V51.406C100.564 55.8036 98.8898 60.0339 95.8868 63.238C92.8839 66.4421 88.7777 68.3797 84.4024 68.6583ZM80.5809 36.877V36.0025H79.7063H7.24603H6.37151V36.877L6.37151 55.0396L6.37151 55.0413C6.38552 62.0246 8.35343 68.864 12.0517 74.7819C15.75 80.6999 21.0304 85.459 27.2928 88.5181L27.4745 88.6068H27.6767H59.2757H59.4779L59.6596 88.518C64.3395 86.2312 68.4891 82.9864 71.8408 78.9929C75.1926 74.9995 77.6721 70.346 79.1195 65.3329L79.1254 65.3124L79.1303 65.2917C79.1492 65.2122 79.169 65.1399 79.1905 65.0743L79.1964 65.0564L79.2015 65.0383C80.1149 61.7844 80.579 58.4203 80.5809 55.0401V55.0396V36.877ZM95.0729 47.7745V47.7734C95.0699 45.3408 94.3162 42.9685 92.9149 40.9819C91.5137 38.9953 89.5334 37.4917 87.2455 36.6778L86.0779 36.2625V37.5018V55.0388C86.0759 57.2761 85.8974 59.5097 85.544 61.7188L85.3244 63.0914L86.6569 62.6952C89.0856 61.9729 91.2164 60.4839 92.7326 58.4502C94.2488 56.4165 95.0695 53.9467 95.0729 51.4082V51.4071V47.7745ZM26.2356 18.7144V4.18428C26.2356 3.45207 26.5258 2.75032 27.0415 2.23327C27.5571 1.71629 28.2559 1.42628 28.9841 1.42628C29.7123 1.42628 30.4112 1.71629 30.9268 2.23327C31.4425 2.75032 31.7326 3.45207 31.7326 4.18428V18.7144C31.7326 19.4466 31.4425 20.1483 30.9268 20.6654C30.4112 21.1824 29.7123 21.4724 28.9841 21.4724C28.2559 21.4724 27.5571 21.1824 27.0415 20.6654C26.5258 20.1483 26.2356 19.4466 26.2356 18.7144ZM45.4189 20.6654C44.9032 21.1824 44.2044 21.4724 43.4762 21.4724C42.748 21.4724 42.0491 21.1824 41.5335 20.6654C41.0178 20.1483 40.7277 19.4466 40.7277 18.7144V4.18428C40.7277 3.45208 41.0178 2.75032 41.5335 2.23327C42.0491 1.71629 42.748 1.42628 43.4762 1.42628C44.2044 1.42628 44.9032 1.71629 45.4189 2.23327C45.9346 2.75032 46.2247 3.45208 46.2247 4.18428V18.7144C46.2247 19.4466 45.9346 20.1483 45.4189 20.6654ZM59.9109 20.6654C59.3953 21.1824 58.6965 21.4724 57.9683 21.4724C57.24 21.4724 56.5412 21.1824 56.0256 20.6654C55.5099 20.1483 55.2198 19.4466 55.2198 18.7144V4.18428C55.2198 3.45207 55.5099 2.75032 56.0256 2.23327C56.5412 1.7163 57.24 1.42628 57.9683 1.42628C58.6965 1.42628 59.3953 1.71629 59.9109 2.23327C60.4266 2.75032 60.7168 3.45207 60.7168 4.18428V18.7144C60.7168 19.4466 60.4266 20.1483 59.9109 20.6654Z" fill="#AA1E21" stroke="#161616" stroke-width="1.74904"/>
</svg>
