<svg width="17" height="14" viewBox="0 0 17 14" fill="none" xmlns="http://www.w3.org/2000/svg">
<path d="M8.51147 0.00154304C9.67386 0.00154304 10.7751 0.0879533 11.8151 0.260774C12.8552 0.433594 13.7575 0.664022 14.5223 0.952056C15.287 1.24009 15.8911 1.57853 16.3347 1.96738C16.7782 2.35622 17 2.78107 17 3.24193C16.9082 5.25817 16.5565 7.05118 15.9447 8.62096C15.6847 9.29784 15.3482 9.95312 14.9352 10.5868C14.5223 11.2205 14.0175 11.7965 13.4211 12.315C12.8246 12.8335 12.121 13.2367 11.3104 13.5247C10.4998 13.8128 9.5668 13.9712 8.51147 14C7.44085 14 6.50023 13.8416 5.68961 13.5247C4.87899 13.2079 4.17544 12.8047 3.57895 12.315C2.98246 11.8253 2.47773 11.2493 2.06478 10.5868C1.65182 9.92432 1.31534 9.26904 1.05533 8.62096C0.443545 7.05118 0.0917679 5.25817 0 3.24193C0 2.79547 0.221772 2.37062 0.665317 1.96738C1.10886 1.56413 1.72065 1.22569 2.50067 0.952056C3.2807 0.678423 4.18309 0.447996 5.20783 0.260774C6.23257 0.0735516 7.33378 -0.0128587 8.51147 0.00154304ZM14.1781 3.50116C14.3005 3.44355 14.3617 3.35714 14.3617 3.24193C14.3617 3.12671 14.3005 3.0475 14.1781 3.0043C13.6734 2.75947 12.9469 2.52904 11.9987 2.31302C11.0504 2.09699 9.88799 1.98898 8.51147 1.98898C7.13495 1.98898 5.97256 2.09699 5.02429 2.31302C4.07602 2.52904 3.34188 2.75947 2.82186 3.0043C2.7148 3.0475 2.66127 3.12671 2.66127 3.24193C2.66127 3.35714 2.7148 3.44355 2.82186 3.50116C3.32659 3.73158 4.06073 3.95481 5.02429 4.17084C5.98785 4.38686 7.15025 4.49487 8.51147 4.49487C9.87269 4.49487 11.0351 4.38686 11.9987 4.17084C12.9622 3.95481 13.6887 3.73158 14.1781 3.50116Z" fill="black"/>
</svg>
