<svg width="76" height="83" viewBox="0 0 76 83" fill="none" xmlns="http://www.w3.org/2000/svg">
<path d="M62.2743 6.85191L62.2742 6.8518C53.396 0.63531 44.018 0.745522 35.4497 4.56628C26.9644 8.35002 19.257 15.7604 13.3233 24.2348C7.38956 32.7092 3.06128 42.4867 2.40694 51.7548C1.7462 61.1136 4.84911 69.9642 13.7275 76.1808C22.6058 82.3974 31.9839 82.286 40.5521 78.4642C49.0373 74.6795 56.7447 67.2681 62.6784 58.7937C68.6122 50.3213 72.9394 40.5447 73.5932 31.2772C74.2534 21.9191 71.1505 13.0685 62.2743 6.85191Z" stroke="#AA1E21" stroke-width="3.35802"/>
<path d="M56.6499 14.8835C50.9889 15.8833 35.0057 24.5352 34.6725 39.1854C34.3352 53.8316 23.3465 65.9826 19.3517 68.1445C26.6789 68.3152 40.9959 58.4929 41.3291 43.8426C41.6664 29.1965 52.6511 17.0455 56.6499 14.8835Z" fill="#AA1E21"/>
<path d="M56.6499 14.8835C50.9889 15.8833 35.0057 24.5352 34.6725 39.1854C34.3352 53.8316 23.3465 65.9826 19.3517 68.1445C26.6789 68.3152 40.9959 58.4929 41.3291 43.8426C41.6664 29.1965 52.6511 17.0455 56.6499 14.8835Z" stroke="#AA1E21"/>
</svg>
