<svg width="20" height="20" viewBox="0 0 20 20" fill="none" xmlns="http://www.w3.org/2000/svg">
<path d="M19.8436 18.8275L14.4156 13.3995C15.72 11.8336 16.3704 9.82504 16.2316 7.79175C16.0928 5.75845 15.1755 3.85694 13.6704 2.48278C12.1653 1.10862 10.1884 0.367615 8.15092 0.413911C6.11342 0.460207 4.1722 1.29024 2.7311 2.73134C1.29 4.17245 0.459963 6.11366 0.413667 8.15116C0.367371 10.1887 1.10838 12.1656 2.48254 13.6706C3.8567 15.1757 5.75821 16.0931 7.7915 16.2319C9.8248 16.3706 11.8333 15.7202 13.3993 14.4158L18.8273 19.8438L19.8436 18.8275ZM1.87482 8.34382C1.87482 7.06442 2.25421 5.81375 2.965 4.74997C3.6758 3.68619 4.68608 2.85708 5.86809 2.36747C7.0501 1.87787 8.35075 1.74977 9.60556 1.99936C10.8604 2.24896 12.013 2.86505 12.9177 3.76972C13.8223 4.67439 14.4384 5.82701 14.688 7.08183C14.9376 8.33664 14.8095 9.63729 14.3199 10.8193C13.8303 12.0013 13.0012 13.0116 11.9374 13.7224C10.8736 14.4332 9.62297 14.8126 8.34357 14.8126C6.62854 14.8107 4.98429 14.1285 3.77158 12.9158C2.55886 11.7031 1.87673 10.0589 1.87482 8.34382Z" fill="#8B8B8B"/>
</svg>
