<svg width="85" height="85" viewBox="0 0 85 85" fill="none" xmlns="http://www.w3.org/2000/svg">
<path d="M42.5005 0.522988H42.5C34.1977 0.522988 26.0819 2.9849 19.1788 7.59739C12.2758 12.2099 6.89546 18.7658 3.71832 26.4361C0.541176 34.1064 -0.290108 42.5466 1.32958 50.6893C2.94928 58.832 6.9472 66.3116 12.8178 72.1822C18.6884 78.0528 26.168 82.0507 34.3107 83.6704C42.4534 85.2901 50.8936 84.4588 58.5639 81.2817C66.2342 78.1045 72.7901 72.7243 77.4026 65.8212C82.0151 58.9181 84.477 50.8023 84.477 42.5V42.4995C84.4645 31.3704 80.0379 20.7008 72.1685 12.8314C64.2992 4.96204 53.6296 0.535515 42.5005 0.522988ZM61.9423 53.724L61.9525 53.7064C61.962 53.6903 61.9714 53.6741 61.9806 53.6578L62.3562 53.0083H62.2505C62.2836 52.89 62.3093 52.7696 62.3273 52.6476C62.384 52.2637 62.3635 51.8724 62.2671 51.4965C62.1707 51.1206 62.0002 50.7677 61.7658 50.4585C61.5314 50.1493 61.2376 49.8899 60.9017 49.6956C60.5658 49.5012 60.1945 49.3759 59.8096 49.3268C59.4247 49.2777 59.0338 49.3058 58.6599 49.4096C58.286 49.5134 57.9365 49.6907 57.632 49.9312C57.3287 50.1706 57.0761 50.4679 56.8887 50.8057C56.161 52.0619 55.2726 53.2177 54.2458 54.244L54.2454 54.2444C51.91 56.5845 48.9289 58.1736 45.6844 58.8081C42.4398 59.4426 39.0797 59.0934 36.0349 57.8054C32.7045 56.3921 29.9235 53.9351 28.1104 50.8044C27.9207 50.4695 27.6667 50.1755 27.363 49.9392C27.0586 49.7024 26.7102 49.5283 26.3382 49.4269C25.9661 49.3256 25.5776 49.299 25.1951 49.3487C24.8127 49.3984 24.4439 49.5234 24.11 49.7165C23.7762 49.9095 23.484 50.1669 23.2502 50.4736C23.0164 50.7804 22.8458 51.1304 22.7481 51.5035C22.6504 51.8766 22.6277 52.2653 22.6812 52.6472C22.7345 53.0283 22.8627 53.3951 23.0584 53.7264C25.0305 57.1363 27.8648 59.9675 31.2768 61.936C34.6895 63.9048 38.5601 64.9412 42.4999 64.9411C46.4398 64.9411 50.3103 63.9046 53.723 61.9357C57.1356 59.9668 59.9703 57.1348 61.9423 53.724ZM23.3073 34.3627L23.3073 34.3633C23.3086 35.5683 23.7879 36.7236 24.64 37.5757C25.4921 38.4278 26.6474 38.9071 27.8524 38.9084H27.853C28.752 38.9084 29.6308 38.6418 30.3784 38.1423C31.1259 37.6428 31.7085 36.9329 32.0526 36.1023C32.3966 35.2717 32.4866 34.3577 32.3112 33.4759C32.1359 32.5942 31.7029 31.7842 31.0672 31.1485C30.4315 30.5128 29.6215 30.0798 28.7398 29.9044C27.858 29.729 26.944 29.8191 26.1134 30.1631C25.2828 30.5072 24.5729 31.0898 24.0734 31.8373C23.5739 32.5848 23.3073 33.4637 23.3073 34.3627ZM52.6014 34.3627V34.3633C52.6027 35.5683 53.082 36.7236 53.9341 37.5757C54.7862 38.4278 55.9415 38.9071 57.1465 38.9084H57.1471C58.0461 38.9084 58.925 38.6418 59.6725 38.1423C60.42 37.6428 61.0026 36.9329 61.3467 36.1023C61.6907 35.2717 61.7808 34.3577 61.6054 33.4759C61.43 32.5942 60.997 31.7842 60.3613 31.1485C59.7256 30.5128 58.9156 30.0798 58.0339 29.9044C57.1521 29.729 56.2381 29.8191 55.4075 30.1631C54.5769 30.5072 53.867 31.0898 53.3675 31.8373C52.868 32.5848 52.6014 33.4637 52.6014 34.3627ZM42.4995 78.6406C35.3517 78.6405 28.3645 76.5209 22.4214 72.5498C16.4781 68.5786 11.8458 62.9342 9.11042 56.3304C6.37502 49.7266 5.65932 42.4599 7.05381 35.4493C8.44831 28.4387 11.8904 21.9991 16.9447 16.9447C21.9991 11.8903 28.4387 8.44829 35.4493 7.0538C42.4599 5.6593 49.7266 6.37501 56.3304 9.1104C62.9343 11.8458 68.5787 16.478 72.5498 22.4213C76.5209 28.3645 78.6405 35.3517 78.6406 42.4994C78.6298 52.0814 74.8186 61.2677 68.0432 68.0431C61.2677 74.8186 52.0814 78.6298 42.4995 78.6406Z" fill="#AA1E21" stroke="black" stroke-width="0.954023"/>
</svg>
