<svg width="80" height="80" fill="none" xmlns="http://www.w3.org/2000/svg"><path d="M40 1.25C18.599 1.25 1.25 18.599 1.25 40S18.599 78.75 40 78.75 78.75 61.401 78.75 40 61.401 1.25 40 1.25zm0 72.5C21.459 73.75 6.25 58.741 6.25 40 6.25 21.459 21.259 6.25 40 6.25c18.541 0 33.75 15.009 33.75 33.75 0 18.541-15.009 33.75-33.75 33.75zm22.13-42.963l-28.2 27.974a1.875 1.875 0 01-2.652-.01L17.86 45.224a1.875 1.875 0 01.01-2.652l1.332-1.32a1.875 1.875 0 012.651.01l10.778 10.865 25.537-25.333a1.875 1.875 0 012.652.01l1.32 1.332c.73.735.725 1.922-.01 2.651z" fill="#BBD99F"/></svg>