<svg width="69" height="47" viewBox="0 0 69 47" fill="none" xmlns="http://www.w3.org/2000/svg">
<path d="M53.6303 16H1.88416C1.18841 12.4 1.59426 8.5 1.88416 7H54.5C54.5 9.52 53.9202 14.05 53.6303 16Z" fill="#E6E6E6"/>
<path d="M51.0246 30H4.97541C3.2377 27.1304 1.93443 18.8043 1.5 15H54.5C54.5 18.6522 52.1831 26.5217 51.0246 30Z" fill="#FAFAFA"/>
<path d="M51.5 30H4.5C6.24074 41.1158 12.4784 44.7368 15.3796 46H41.0556C45.9296 43.9789 50.0494 35.0526 51.5 30Z" fill="#5B3B31"/>
<path d="M28.5 46H14.8278C2.83143 37.7714 1.00846 12.5714 1.59651 1H28.5" stroke="#5F5F5F" stroke-width="2"/>
<path d="M27.5 46H41.1722C53.1686 37.7714 54.9915 12.5714 54.4035 1H27.5" stroke="#5F5F5F" stroke-width="2"/>
<path d="M53.9868 13.1644C55.8616 10.3948 61.5266 8.35398 65.2356 11.8532C71.725 17.9758 63.4793 32.4276 50.5 31.9903" stroke="#5F5F5F" stroke-width="2"/>
</svg>
