<svg width="69" height="47" viewBox="0 0 69 47" fill="none" xmlns="http://www.w3.org/2000/svg">
<path d="M53.6303 24H1.88416C1.18841 19.6 1.59426 14.8333 1.88416 13H54.5C54.5 16.08 53.9202 21.6167 53.6303 24Z" fill="#E6E6E6"/>
<path d="M52.5 24H3.5C5.31481 39.2842 11.8179 44.2632 14.8426 46H41.6111C46.6926 43.2211 50.9877 30.9474 52.5 24Z" fill="#5B3B31"/>
<path d="M28.5 46H14.8278C2.83143 37.7714 1.00846 12.5714 1.59651 1H28.5" stroke="#5F5F5F" stroke-width="2"/>
<path d="M27.5 46H41.1722C53.1686 37.7714 54.9915 12.5714 54.4035 1H27.5" stroke="#5F5F5F" stroke-width="2"/>
<path d="M53.9868 13.1644C55.8616 10.3948 61.5266 8.35398 65.2356 11.8532C71.725 17.9758 63.4793 32.4276 50.5 31.9903" stroke="#5F5F5F" stroke-width="2"/>
</svg>
