<svg width="69" height="47" viewBox="0 0 69 47" fill="none" xmlns="http://www.w3.org/2000/svg">
<path d="M53.6303 23H1.88416C1.18841 17.8 1.59426 12.1667 1.88416 10H54.5C54.5 13.64 53.9202 20.1833 53.6303 23Z" fill="#E6E6E6"/>
<path d="M49.2213 35H5.77869C4.13934 32.7043 2.90984 26.0435 2.5 23H27.5H52.5C52.5 25.9217 50.3142 32.2174 49.2213 35Z" fill="#5B3B31"/>
<path d="M48.5 35H6.5C8.05556 42.6421 13.6296 45.1316 16.2222 46H39.1667C43.5222 44.6105 47.2037 38.4737 48.5 35Z" fill="#E3C9B1"/>
<path d="M28.5 46H14.8278C2.83143 37.7714 1.00846 12.5714 1.59651 1H28.5" stroke="#5F5F5F" stroke-width="2"/>
<path d="M27.5 46H41.1722C53.1686 37.7714 54.9915 12.5714 54.4035 1H27.5" stroke="#5F5F5F" stroke-width="2"/>
<path d="M53.9868 13.1644C55.8616 10.3948 61.5266 8.35398 65.2356 11.8532C71.725 17.9758 63.4793 32.4276 50.5 31.9903" stroke="#5F5F5F" stroke-width="2"/>
</svg>
