<svg width="24" height="18" viewBox="0 0 24 18" fill="none" xmlns="http://www.w3.org/2000/svg">
<path d="M3.39953 1C2.76313 1 2.15281 1.25281 1.70281 1.7028C1.25281 2.1528 1 2.76313 1 3.39952V8.19857C0.997956 10.3237 1.76513 12.3777 3.15977 13.9811C4.5544 15.5845 6.48226 16.629 8.58712 16.9215C10.692 17.2141 12.8316 16.7349 14.6106 15.5725C16.3896 14.4102 17.6878 12.6432 18.2654 10.5981H19.3963C20.457 10.5981 21.4742 10.1767 22.2242 9.42675C22.9742 8.67675 23.3955 7.65954 23.3955 6.59888C23.3955 5.53823 22.9742 4.52102 22.2242 3.77102C21.4742 3.02102 20.457 2.59968 19.3963 2.59968H18.4605C18.2951 2.13165 17.9885 1.72646 17.5831 1.43996C17.1777 1.15345 16.6934 0.99974 16.197 1H3.39953ZM18.5965 4.19936H19.3963C20.0327 4.19936 20.6431 4.45217 21.0931 4.90217C21.5431 5.35216 21.7959 5.96249 21.7959 6.59888C21.7959 7.23528 21.5431 7.8456 21.0931 8.2956C20.6431 8.7456 20.0327 8.99841 19.3963 8.99841H18.5613C18.5837 8.73446 18.5965 8.46891 18.5965 8.19857V4.19936ZM2.59969 3.39952C2.59969 3.18739 2.68395 2.98395 2.83395 2.83395C2.98395 2.68395 3.18739 2.59968 3.39953 2.59968H16.197C16.4091 2.59968 16.6126 2.68395 16.7625 2.83395C16.9125 2.98395 16.9968 3.18739 16.9968 3.39952V8.19857C16.9968 10.1077 16.2384 11.9387 14.8884 13.2887C13.5384 14.6387 11.7074 15.3971 9.79825 15.3971C7.88907 15.3971 6.05809 14.6387 4.7081 13.2887C3.3581 11.9387 2.59969 10.1077 2.59969 8.19857V3.39952Z" fill="black" stroke="black" stroke-width="0.5"/>
</svg>
