<svg width="72" height="94" viewBox="0 0 72 94" fill="none" xmlns="http://www.w3.org/2000/svg">
<path d="M55 91.1255H71.6012" stroke="black" stroke-width="2.5"/>
<path d="M57.0387 90.98L58.4949 78.6019L62.1356 77H64.0287L67.8149 78.6019L69.7081 90.98" stroke="black" stroke-width="2.5"/>
<path d="M49.7763 84.6555V25.5319C49.7763 18.6875 43.1067 5.29004 26.9132 5.29004C10.7197 5.29004 4.63263 18.6875 4.63263 25.5319V84.6555" stroke="black" stroke-width="2.5"/>
<path d="M10 47V84H44.5V47H10Z" stroke="black" stroke-width="2.5"/>
<path d="M16.1371 4.2514C19.6806 2.55244 28.9812 0.173901 37.8352 4.2514" stroke="black" stroke-width="2.5"/>
<path d="M27.3502 41.2209H24.5833C21.4766 38.8909 15.2633 32.2504 15.2633 24.3284C15.2633 14.4259 22.6902 11.8047 27.3502 11.8047" stroke="black" stroke-width="2.5"/>
<path d="M27.0589 41.2209H29.8258C32.9324 38.8909 39.1458 32.2504 39.1458 24.3284C39.1458 14.4259 31.7189 11.8047 27.0589 11.8047" stroke="black" stroke-width="2.5"/>
<path d="M9.58401 74.2969H45.4077" stroke="black" stroke-width="2.5"/>
<path d="M3.01449 84L2 92H52L51.1304 84H3.01449Z" stroke="black" stroke-width="2.5"/>
<path d="M32.2941 74.2968H19.3335C14.6735 66.8408 14.6735 60.3168 15.256 57.9868H36.8085C37.5366 65.5593 33.9445 71.4328 32.2941 74.2968Z" stroke="black" stroke-width="2.5"/>
<path d="M36.8352 60.1714C38.437 60.2199 41.4148 61.6276 40.9127 64.5401C40.4105 67.4526 37.272 67.8895 35.5245 67.4526" stroke="black" stroke-width="2.5"/>
</svg>
