<?xml version="1.0" encoding="utf-8"?>
<!-- Generator: Adobe Illustrator 24.2.3, SVG Export Plug-In . SVG Version: 6.00 Build 0)  -->
<svg version="1.1" id="Слой_1" xmlns="http://www.w3.org/2000/svg" xmlns:xlink="http://www.w3.org/1999/xlink" x="0px" y="0px"
	 viewBox="0 0 280 280" style="enable-background:new 0 0 280 280;" xml:space="preserve">
<style type="text/css">
	.st0{fill:#907E43;}
</style>
<g>
	<path class="st0" d="M202.8,254h-7.2v-18.4h-32V254h-7.2v-18.4h-32V254h-7.2v-18.4h-32V254H78v-18.4H46V280h188v-44.4h-32V254
		H202.8z M210.4,243.2h16.4v29.2H54v-29.2h16.4v18.4h22.8v-18.4h16.4v18.4h22.8v-18.4h16.4v18.4h22.8v-18.4H188v18.4h22.8v-18.4
		L210.4,243.2L210.4,243.2z"/>
	<path class="st0" d="M54.4,149.6c2.8,21.2,11.6,40,26.4,53.6c10.4,9.6,22.8,16.8,36.8,20.4l10.4,2.8l-6.4-8.8
		c-8-11.2-18-29.2-20.8-53.2c-0.8-8-3.2-28.8,6.4-51.6C110,106,116,92,130.8,81.2c2-1.2,4-2.8,6-4c-0.8,4.4-1.6,8.8-2,12.8
		c-2,16-3.2,28.4,2.4,41.2c2.8,6,6.8,11.6,12,16.4l6.4,6l0.4-8.4c0-6.8,2-13.2,5.2-19.2c0,0.8,0,1.6,0.4,2.4
		c1.2,7.2,3.2,11.6,6,16.8c1.2,2,2,4,3.2,6.4c3.6,7.6,8.4,18,7.6,30.8c-0.4,8.8-4,16.4-6.4,21.6c-2.4,5.2-5.6,10.4-9.2,15.2
		l-8.8,11.6l13.6-6c10.4-4.4,25.2-13.6,36.8-30.4c3.2-4.8,11.2-18,14.4-36.8c1.6-10,2.4-25.6-3.2-43.2c-1.6-4.8-3.6-9.2-28.4-46.8
		L186,66c-11.2-16.8-16.4-24.4-18.8-36.8c-2.4-6.4-2.8-14-2-21.2l0.8-8l-6.8,4.4c-7.6,4.8-14.8,9.6-22,14.8
		c-14.8,10.4-26.4,18.4-37.6,29.2c-9.6,8.8-23.6,22.4-34,44C60,104,51.2,123.6,54.4,149.6z M72.4,95.6c9.6-20.4,22.8-32.8,32.4-42
		c10.8-10.4,21.6-18,36.8-28.4c5.2-3.6,10.4-7.2,15.6-10.4c0,5.6,0.4,11.2,1.6,16.4c2.8,13.6,8.4,22.4,20,39.6l1.2,1.6
		c24,36.4,26,40.8,27.2,44.8c5.6,16.8,4.4,32,3.2,39.6c-2.8,17.2-10,29.2-13.2,33.6c-6.4,9.2-14,16-20.8,20.4
		c0.8-1.2,1.2-2.4,1.6-3.6c2.8-6,6.4-14,7.2-24.4c0.8-14.4-4.4-26.4-8.4-34.4c-1.2-2.4-2.4-4.8-3.2-6.8c-2.4-4.8-4.4-8.4-5.2-14.4
		c-0.4-4-0.4-8,0-12L170,104l-8,8c-3.2,3.2-6,6.4-8,10.4c-2.4,4.4-4.4,9.2-5.2,14c-2-2.4-3.6-5.2-4.8-8c-4.8-10.4-3.6-20.4-1.6-37.2
		c0.8-6.8,2-13.6,3.6-20l2-7.6l-7.6,3.2c-5.2,2.4-10,5.2-14.4,8.4c-16,12-22.8,27.2-26,34.8c-10.8,24.8-8,47.2-7.2,55.6
		c2.4,19.6,9.2,35.6,16,47.6c-8.4-4-16.4-9.2-22.8-15.2c-13.2-12.4-21.6-29.6-24-49.2C58.8,124.8,67.6,106.4,72.4,95.6z"/>
</g>
</svg>
