<?xml version="1.0" encoding="utf-8"?>
<!-- Generator: Adobe Illustrator 24.2.3, SVG Export Plug-In . SVG Version: 6.00 Build 0)  -->
<svg version="1.1" id="Слой_1" xmlns="http://www.w3.org/2000/svg" xmlns:xlink="http://www.w3.org/1999/xlink" x="0px" y="0px"
	 viewBox="0 0 280 280" style="enable-background:new 0 0 280 280;" xml:space="preserve">
<style type="text/css">
	.st0{fill:#907E43;}
</style>
<g>
	<path class="st0" d="M251.2,73.4H240c-11.6,0-23.2,0-34.8,0c-4,0-8.8,0-13.2,1.2c-22.8,5.2-37.6,19.2-44,41.6
		c-1.6,5.2-2,10.8-1.6,16.8l0.4,2.8H186l0.4-3.6c0-0.4,0-0.8,0-1.6c0.4-10.8,7.2-17.2,17.6-17.2c10.8,0,21.2,0,32,0h20.8V73.8
		l-3.6-0.4C252.4,73.4,251.6,73.4,251.2,73.4z M250.4,107H236c-10.8,0-21.2,0-32,0c-14,0-23.2,8.8-24,22.4h-27.6c0-4,0.4-8,1.6-11.6
		c5.6-20.4,18.8-32.8,39.2-37.2c4-0.8,8.4-0.8,12-0.8c11.6,0,23.2,0,34.4,0H250V107H250.4z"/>
	<path class="st0" d="M61.2,93.4h39.2l0.4-3.2c0-0.4,0-0.8,0-1.2c0.8-26.8-18.4-51.6-44.4-56.4c-6.4-1.2-12.8-1.2-19.2-1.2
		c-2.8,0-5.6,0-8.4,0c-0.8,0-1.6,0-2,0h-3.6V71H32c4,0,8,0,12,0c9.6,0,16,6.8,16.8,16L61.2,93.4z M44.4,64.6c-4,0-8,0-12.4,0h-2.4
		V37.4c2.4,0,5.2,0,7.6,0c6.4,0,12.4,0,18,1.2c22.4,4,39.2,25.2,39.2,48.4H66.8v-0.4C66.4,73.8,56.8,65,44.4,64.6z"/>
	<path class="st0" d="M100.8,188.6c0-21.2,0-42.4,0-63.2c0-1.2,0-3.2-1.6-4.4c-1.2-1.2-2.8-1.2-4-1.2c-6.8,0-33.6,0.4-33.6,0.4
		s-0.4,34-0.4,43.2c0.4,16,6.4,29.6,18.4,40.8c5.2,4.8,10.4,8,16.8,10.4l4,1.6L100.8,188.6z M94.8,188.6v18c-4-2-7.6-4.4-10.8-7.6
		c-10.8-10-16.4-22-16.4-36.4c0-8.8,0-18,0-26.8c0-3.2,0-6.8,0-10h8c6.4,0,12.8,0,19.2,0C94.8,147,94.8,167.8,94.8,188.6z"/>
	<path class="st0" d="M143.6,163.4l-5.6,7.2c-4,5.2-8.8,7.6-14.4,7.6l0,0c-5.6,0-10-2.4-14-7.6l-5.6-6.8v60h39.6V163.4z
		 M137.2,217.4H110v-37.2c4,2.8,8.4,4.4,13.6,4.4l0,0c5.2,0,9.6-1.6,13.6-4.4V217.4z"/>
	<path class="st0" d="M186,162.2h-39.2v60l4.4-1.6c25.6-10.4,36.8-35.6,35.2-55.2L186,162.2z M153.2,212.6v-44H180
		C180.4,184.2,171.6,203,153.2,212.6z"/>
	<path class="st0" d="M100.4,230.2c0,1.2,0,2,0,3.2c0,2.8,0,5.2,0,8c0.4,2.4,2.4,4,4,5.2c0.4,0.4,0.8,0.4,1.6,0.8
		c0.4,2,1.6,5.2,6,5.2l0,0c6.4,0,12.8,0,18.8,0h4.4l0,0c3.2,0,5.6-2,6-5.2c2.4-0.8,5.2-2,5.2-6c0-2.4,0-5.2,0-7.6v-6.4h-46
		C100.4,227.4,100.4,230.2,100.4,230.2z M140.8,241.4c-0.4,0-5.2,0-5.2,0s-0.4,4-0.4,4.4c0,0-16.8,0-23.2,0c0-0.4,0-4.8,0-4.8
		s-4.8-0.1-5.2-0.1c0,0,0-5.5,0-7.9l0,0h34C140.8,233,141,238.8,140.8,241.4z"/>
	<path class="st0" d="M183.2,139c-11.2-0.4-22.4,0-33.6,0c-2.8,0-6,2.8-6,5.6c-0.4,2.8-0.4,5.6-0.4,8.4c0,1.2,0,2,0,3.2v3.2h46.4
		v-3.2c0-1.2,0-2,0-3.2c0-2.8,0-5.6-0.4-8.4C189.2,141.8,186,139,183.2,139z M183.2,153L183.2,153h-34l0,0c0-2.4,0-4.8,0-7.2
		l0.4-0.4c10.8-0.4,22-0.4,32.8,0l0.4,0.4C183.6,147.8,183.6,150.2,183.2,153z"/>
	<path class="st0" d="M104,116.6c0,0,0-12,0-14.8c-0.4-2.4-3.6-5.6-6-5.6c-11.2,0-22.4-0.4-33.6,0c-2.4,0-6,2.4-6,5.2
		c-0.4,2.8,0,15.2,0,15.2H104z M64,103C64,103,64.4,102.6,64,103c11.2-0.4,22.4-0.4,33.2-0.4l0.4,0.4c0.4,2.4,0,4.8,0,7.2l0,0H64
		l0,0C64,107.8,63.6,105.4,64,103z"/>
	<path class="st0" d="M14.4,27.4c-2.8,0-5.2,0-8,0c-1.2,0-2,0-3.2,0H0v46.4h6.4c1.2,0,2,0,3.2,0c1.6,0,2.8,0,4.4,0
		c3.6,0,6-2.8,6.4-6.4c0-11.2,0-22.4,0-33.2C20.4,30.6,17.6,27.8,14.4,27.4z M14,67.4c-2.4,0-4.8,0-7.6,0l0,0V33.8l0,0
		c2.4,0,5.2,0,7.6,0c0,0,0,0,0,0.4C14,45,14,56.2,14,67.4z"/>
	<path class="st0" d="M273.6,70.2c-2.8,0-5.6,0-8.4,0.4s-5.6,3.6-5.6,6.4c-0.4,11.2-0.4,22.4,0,33.2c0,2.4,2.8,6,5.6,6.4
		c1.6,0,3.6,0.4,5.2,0.4c1.2,0,2,0,3.2,0s2,0,3.2,0h3.2V70.2h-3.2C276,70.2,274.8,70.2,273.6,70.2z M273.6,110.2L273.6,110.2
		c-2.8,0-5.2,0-7.2,0l-0.4-0.4c0-10.8,0-21.6,0-32.4l0.4-0.4c2.4-0.4,4.8,0,7.2,0l0,0V110.2z"/>
</g>
</svg>
