<?xml version="1.0" encoding="utf-8"?>
<!-- Generator: Adobe Illustrator 24.2.3, SVG Export Plug-In . SVG Version: 6.00 Build 0)  -->
<svg version="1.1" id="Слой_1" xmlns="http://www.w3.org/2000/svg" xmlns:xlink="http://www.w3.org/1999/xlink" x="0px" y="0px"
	 viewBox="0 0 280 280" style="enable-background:new 0 0 280 280;" xml:space="preserve">
<style type="text/css">
	.st0{fill:#907E43;}
</style>
<g>
	<path class="st0" d="M58,199.4c-5.6-7.6-12-14.4-17.6-20l-2.8-2.8l-5.2,5.6c-1.6,1.6-3.2,3.6-4.8,5.2c-5.2,5.6-11.2,12.4-16,20.8
		c-2.8,4.8-5.2,9.6-5.2,15.6c0,14.4,11.2,27.2,25.2,30c2,0.4,4,0.4,6,0.4c10.4,0,20.4-5.2,26-14.4c6-9.2,6.8-18.4,2.4-27.2
		C64,208.6,61.6,204.2,58,199.4z M57.2,235.8c-4.8,8-14.4,12-24,10.4c-10.4-2-18.8-12-18.8-22.4c0-4,1.6-7.6,4-11.6
		c4.4-7.6,10-14,14.8-19.2c1.6-1.6,2.8-3.2,4.4-4.8c4.8,4.8,9.6,10,14,16c3.2,4.4,5.6,8.4,7.6,12.4
		C62.4,222.2,61.6,228.6,57.2,235.8z"/>
	<path class="st0" d="M263.6,208.6h-0.8V83c0-7.6-5.6-13.6-13.2-14.4V42.2V41c-0.8-8.4-8-15.2-16.8-15.2H90.4c-3.2,0-6,2.8-6,6v10.8
		c0,3.2,2.8,6,6,6h70.8c0.4,0,10-0.4,14.4,6c0.8,1.6,1.6,3.2,1.6,4.8v10c-5.2,2.4-8.8,7.6-8.8,13.6v0.8H48c-26.4,0-48,21.2-48,47.6
		l0,0v0.4v7.2v10.4c0,3.6,2.8,6.4,6.4,6.4h12.8v3.6c0,2.8,2.4,5.2,5.2,5.2h25.2c2.8,0,5.2-2.4,5.2-5.2v-3.6H68
		c3.6,0,6.4-2.8,6.4-6.4V139h46c6.8,0.4,16.8,2,27.2,8.4c10.4,6.4,16.8,14.8,20.4,20.8v40.4h-1.2c-9.2,0-16.4,7.2-16.4,16.4v16.8
		H280V225C280,215.8,272.8,208.6,263.6,208.6z M46.8,156.6h-20v-0.4h20V156.6z M66.8,147.8H7.6V139h58.8v8.8H66.8z M161.2,40.6H92
		V33h140.8c4.8,0,8.4,3.6,8.8,8v26.8h-56.8V59v-0.4c-0.4-3.2-1.2-6-2.8-8.4C175.6,40.2,162.4,40.6,161.2,40.6z M151.6,141
		c-11.6-7.2-23.2-9.2-31.2-9.6h-46H7.6c0.4-22,18.4-40,40.4-40h120.4V155C164.4,150.2,158.8,145,151.6,141z M176,181.8V83.4v-0.8
		c0-3.6,3.2-6.8,6.8-6.8h62.8h2.4c3.6,0,6.8,3.2,6.8,6.8v125.6H176V181.8z M272.4,233.8h-114v-9.2c0-4.8,4-8.4,8.4-8.4h1.2h94.8h0.8
		c4.8,0,8.4,4,8.4,8.4v9.2H272.4z"/>
	<rect x="242" y="85" class="st0" width="7.6" height="117.2"/>
</g>
</svg>
