<?xml version="1.0" encoding="utf-8"?>
<!-- Generator: Adobe Illustrator 24.2.3, SVG Export Plug-In . SVG Version: 6.00 Build 0)  -->
<svg version="1.1" id="Слой_1" xmlns="http://www.w3.org/2000/svg" xmlns:xlink="http://www.w3.org/1999/xlink" x="0px" y="0px"
	 viewBox="0 0 280 280" style="enable-background:new 0 0 280 280;" xml:space="preserve">
<style type="text/css">
	.st0{fill:#907E43;}
</style>
<g>
	<path class="st0" d="M136.2,22.4H67v102.4v7.6v102.4h69.2h8h69.6v-102v-7.6V22.4h-69.6H136.2z M74.6,30.4h61.6v94.8H74.6V30.4z
		 M136.2,227.2H85.8l28.8-34.8l-6.4-4.8l-28.8,35.2l5.6,4.8H74.6v-94.8h61.6V227.2z M205.8,227.2h-61.6v-94.4h61.6L205.8,227.2
		L205.8,227.2z M185,30.4L157.4,64l6,4.8l28.8-35.2l-4-3.2h17.6v94.8h-61.6V30.4H185z"/>
	<path class="st0" d="M237,0H43.4v248h-18v32h229.2v-32H237V0z M51,7.6h178.4V246H51V7.6z M247,272.4H33.4V256h214v16.4H247z"/>
	
		<rect x="155" y="62.4" transform="matrix(0.6338 -0.7735 0.7735 0.6338 13.8913 161.7759)" class="st0" width="45.6" height="7.6"/>
	
		<rect x="70.8" y="186.1" transform="matrix(0.6338 -0.7735 0.7735 0.6338 -112.6198 141.9137)" class="st0" width="45.6" height="7.6"/>
</g>
</svg>
