<?xml version="1.0" encoding="utf-8"?>
<!-- Generator: Adobe Illustrator 24.2.3, SVG Export Plug-In . SVG Version: 6.00 Build 0)  -->
<svg version="1.1" id="Слой_1" xmlns="http://www.w3.org/2000/svg" xmlns:xlink="http://www.w3.org/1999/xlink" x="0px" y="0px"
	 viewBox="0 0 280 280" style="enable-background:new 0 0 280 280;" xml:space="preserve">
<style type="text/css">
	.st0{fill:#907E43;}
</style>
<g>
	<path class="st0" d="M16,266.8h264v-95.6h-54L67.6,13.2L0,81.6l88.8,89.2H16V266.8z M23.6,178.8h83.6L10.8,81.6l56.8-57.2L222,178
		l1.2,1.2h49.2v80.4H23.6V178.8z"/>
	<rect x="254.8" y="216" class="st0" width="15.2" height="6"/>
	<rect x="229.6" y="216" class="st0" width="15.2" height="6"/>
	<rect x="204" y="216" class="st0" width="15.2" height="6"/>
	<rect x="178.4" y="216" class="st0" width="15.2" height="6"/>
	<rect x="153.2" y="216" class="st0" width="15.2" height="6"/>
	<rect x="127.6" y="216" class="st0" width="15.2" height="6"/>
	<rect x="102.4" y="216" class="st0" width="15.2" height="6"/>
	<rect x="76.8" y="216" class="st0" width="15.2" height="6"/>
	<rect x="51.2" y="216" class="st0" width="15.2" height="6"/>
	<rect x="26" y="216" class="st0" width="15.2" height="6"/>
	
		<rect x="153.6" y="161.3" transform="matrix(0.7154 -0.6987 0.6987 0.7154 -73.4326 157.4809)" class="st0" width="6" height="15.2"/>
	
		<rect x="136.1" y="143.1" transform="matrix(0.7154 -0.6987 0.6987 0.7154 -65.6895 140.0684)" class="st0" width="6" height="15.2"/>
	
		<rect x="118" y="124.9" transform="matrix(0.7154 -0.6987 0.6987 0.7154 -58.1327 122.2357)" class="st0" width="6" height="15.2"/>
	
		<rect x="100.5" y="106.8" transform="matrix(0.7154 -0.6988 0.6988 0.7154 -50.485 104.915)" class="st0" width="6" height="15.2"/>
	<rect x="82.4" y="88.6" transform="matrix(0.7154 -0.6987 0.6987 0.7154 -42.9189 87.0563)" class="st0" width="6" height="15.2"/>
	<rect x="64.9" y="70.4" transform="matrix(0.7154 -0.6987 0.6987 0.7154 -35.1763 69.6452)" class="st0" width="6" height="15.2"/>
	<rect x="47.1" y="51.9" transform="matrix(0.7154 -0.6987 0.6987 0.7154 -27.3147 51.9292)" class="st0" width="6" height="15.2"/>
</g>
</svg>
