<?xml version="1.0" encoding="utf-8"?>
<!-- Generator: Adobe Illustrator 24.2.3, SVG Export Plug-In . SVG Version: 6.00 Build 0)  -->
<svg version="1.1" id="Слой_1" xmlns="http://www.w3.org/2000/svg" xmlns:xlink="http://www.w3.org/1999/xlink" x="0px" y="0px"
	 viewBox="0 0 280 280" style="enable-background:new 0 0 280 280;" xml:space="preserve">
<style type="text/css">
	.st0{fill:#907E43;}
</style>
<g>
	<path class="st0" d="M275.6,74l-134-74L4.4,74L8,204.8L140,280l134.8-75.2L275.6,74z M196.4,110.4l-55.6,31.2L84,110.4l56-30.8
		L196.4,110.4z M200.8,117.2v49.2l-56.4,32v-49.6L200.8,117.2z M135.6,148v50l-56.4-32v-49.2L135.6,148z M12.8,78.4l122.8-66.8v61.2
		l-65.2,36.8V166L14,198L12.8,78.4z M140,270.8L18,205.2l56.8-32l65.2,36.4l65.2-36.8l56.8,32L140,270.8z M266,198l-56.4-32v-55.6
		l-65.2-37.6V11.6l122.8,66.8L266,198z"/>
</g>
</svg>
