<?xml version="1.0" encoding="utf-8"?>
<!-- Generator: Adobe Illustrator 24.2.3, SVG Export Plug-In . SVG Version: 6.00 Build 0)  -->
<svg version="1.1" id="Слой_1" xmlns="http://www.w3.org/2000/svg" xmlns:xlink="http://www.w3.org/1999/xlink" x="0px" y="0px"
	 viewBox="0 0 280 280" style="enable-background:new 0 0 280 280;" xml:space="preserve">
<style type="text/css">
	.st0{fill:#907E43;}
</style>
<g>
	<path class="st0" d="M211.1,65.2c0-36-31.6-65.2-70.8-65.2S69.5,29.2,69.5,65.2v44.4H42.7v19.6v8.8v113.6v7.6V280h193.6v-20.4V252
		V138v-8.8v-19.6h-25.2V65.2z M77.5,65.2c0-31.6,28.4-57.6,63.2-57.6c34.4,0,62.8,26,62.8,57.6v44.4h-15.6V65.2
		c0-24.4-21.2-44-47.6-44s-47.6,19.6-47.6,44v44.4H77.1L77.5,65.2z M180.3,109.6h-79.6V65.2c0-20,18-36.4,40-36.4s40,16.4,40,36.4
		v44.4H180.3z M228.3,272.4H50.7v-12.8h178v12.8H228.3z M228.3,251.6H50.7V138h178v113.6H228.3z M228.3,129.2H50.7v-12h178v12H228.3
		z"/>
	<path class="st0" d="M125.9,199.6v13.2c0,7.6,6.4,13.6,14,13.6c7.2,0,13.6-5.6,14-12.8v-13.2c4-3.6,6.4-8.8,6.4-14.4
		c0-11.2-8.8-20-20-20s-20,8.8-20,20C120.3,190.8,122.3,196,125.9,199.6z M140.3,173.6c6.8,0,12,5.6,12,12c0,3.6-1.6,7.2-4.8,9.6
		l-1.6,1.2v16.4c-0.4,3.2-3.2,5.6-6.4,5.6c-3.6,0-6.4-2.8-6.4-6V196l-1.2-1.2c-2.4-2.4-4-5.6-4-9.2
		C128.3,179.2,133.5,173.6,140.3,173.6z"/>
</g>
</svg>
