<?xml version="1.0" encoding="utf-8"?>
<!-- Generator: Adobe Illustrator 24.2.3, SVG Export Plug-In . SVG Version: 6.00 Build 0)  -->
<svg version="1.1" id="Слой_1" xmlns="http://www.w3.org/2000/svg" xmlns:xlink="http://www.w3.org/1999/xlink" x="0px" y="0px"
	 viewBox="0 0 280 280" style="enable-background:new 0 0 280 280;" xml:space="preserve">
<style type="text/css">
	.st0{fill:#907E43;}
</style>
<g>
	<path class="st0" d="M47.9,43.2L40.7,58l0,0L9.5,123.6l72.8,34.8L70.7,182H39.9c-0.8-4.4-3.2-8.4-6.4-11.6
		c-4.4-4.4-10.4-6.8-16.4-6.8l0,0H-0.5l0.4,93.6h17.6l0,0c12.8,0,23.6-10.4,23.6-23.6v-8h54.8l4.4-3.2l22-45.2l65.6,31.6l8.8-18.4
		l30,14.4l33.2-67.2c7.6-4.8,14-11.6,18-20l1.6-3.6L95.9,26.4C77.9,17.6,56.3,25.2,47.9,43.2z M32.7,233.6c0,8.8-7.2,15.6-15.6,16
		h-10v-78h10l0,0c4,0,8,1.6,11.2,4.4c2.8,2.8,4.8,6.8,4.8,11.2V208v18l0,0L32.7,233.6z M93.9,216.4l-2,1.6H40.3v-28h35.2l13.6-27.6
		l25.6,12L93.9,216.4z M183.9,198.4L19.9,120l27.2-57.6l164,78.4L183.9,198.4z M222.7,194.4l-22.8-10.8l18.8-39.2
		c6.8,1.6,16,2.4,26.4-0.4c1.2-0.4,2.4-0.8,3.2-1.2L222.7,194.4z M257.9,129.2l-3.2,2c-2,1.2-3.6,2-5.6,3.2c0,0,0,0-0.4,0
		c-0.4,0.4-1.2,0.4-1.6,0.8c-10.4,3.6-21.6,3.2-31.6-1.6L50.7,54.8l4-8c6.8-14,24-20,38-13.2l176,84.4
		C265.9,122,262.3,126,257.9,129.2z"/>
	<path class="st0" d="M53.5,89.6L53.5,89.6c-6.8,0-12.4,5.6-12.4,12.4s5.6,12.4,12.4,12.4l0,0c3.2,0,6.4-1.2,8.8-3.6
		c2.4-2.4,3.6-5.2,3.6-8.8C65.9,94.8,60.3,89.6,53.5,89.6z M56.7,104.8c-0.8,0.8-2,1.2-3.2,1.2l0,0c-2.4,0-4.4-2-4.4-4.4
		s2-4.4,4.4-4.4l0,0c2.4,0,4.4,2,4.4,4.4C57.9,102.8,57.5,104,56.7,104.8z"/>
	<path class="st0" d="M83.9,103.2C83.9,103.2,83.5,103.2,83.9,103.2c-3.2,0-6.4,1.2-8.8,3.6s-3.6,5.2-3.6,8.8
		c0,6.8,5.6,12.4,12.4,12.4l0,0c6.8,0,12.4-5.6,12.4-12.4C95.9,108.8,90.3,103.2,83.9,103.2z M83.9,120c-2.4,0-4.4-2-4.4-4.4
		c0-1.2,0.4-2.4,1.2-3.2c0.8-0.8,2-1.2,3.2-1.2l0,0c2.4,0,4.4,2,4.4,4.4C88.3,118,86.3,120,83.9,120z"/>
	<path class="st0" d="M175.9,148.4l-27.2-13.2c-4.8-2.4-10.8-0.4-13.2,4.8c-1.2,2.4-1.2,5.2-0.4,7.6c0.8,2.4,2.8,4.4,5.2,5.6
		l27.2,13.2c1.2,0.8,2.8,0.8,4.4,0.8c3.6,0,7.2-2,9.2-5.6C183.1,156.8,180.7,150.8,175.9,148.4z M173.5,158.4
		c-0.4,1.2-2,1.6-3.2,1.2l-27.2-13.2c-0.4-0.4-0.8-0.8-1.2-1.2s0-1.2,0-1.6c0.4-0.8,1.2-1.2,2-1.2c0.4,0,0.8,0,0.8,0.4l27.2,13.2
		C173.5,156,174.3,157.6,173.5,158.4z"/>
</g>
</svg>
