<?xml version="1.0" encoding="utf-8"?>
<!-- Generator: Adobe Illustrator 24.2.3, SVG Export Plug-In . SVG Version: 6.00 Build 0)  -->
<svg version="1.1" id="Слой_1" xmlns="http://www.w3.org/2000/svg" xmlns:xlink="http://www.w3.org/1999/xlink" x="0px" y="0px"
	 viewBox="0 0 280 280" style="enable-background:new 0 0 280 280;" xml:space="preserve">
<style type="text/css">
	.st0{fill:#907E43;}
</style>
<g>
	<path class="st0" d="M217.9,92.9h16.4c4,0,7.6-0.8,10.4-2.4c3.2-1.6,5.2-4,6.8-7.2s2.4-6.8,2.4-10.8s-0.8-7.6-2.4-10.8
		c-1.6-3.2-4-5.6-6.8-7.2c-3.2-1.6-6.4-2.4-10.4-2.4h-16.4h-4.4h-4.8v66.4h9.2V92.9z M234.3,61.3c2,0,3.6,0.4,5.2,1.6
		c1.6,1.2,2.8,2.4,3.6,4s1.2,3.6,1.2,6s-0.4,4.4-1.2,6s-2,3.2-3.6,4s-3.2,1.6-5.2,1.6h-16.8V61.7h16.8V61.3z"/>
	<path class="st0" d="M71.9,161.3c0,8.8,2.4,16,7.2,22c3.6,4.8,8.4,7.2,14,7.2l0,0c29.2,0,58,0,87.2,0c4.4,0,8-1.2,10.8-4
		c8.8-7.6,10-17.2,10.4-25.2v-4H71.9V161.3z M193.5,165.3c-0.8,7.2-3.2,11.6-7.2,15.6l0,0c-1.6,1.2-3.6,2-6,2c-29.2,0-58,0-87.2,0
		l0,0c-3.2,0-6-1.2-8-4c-2.8-3.6-4.8-8-5.2-13.2h113.6V165.3z"/>
	<path class="st0" d="M61.5,154.9c-7.6-6.8-16.4-12.4-26.4-16c-6.8-2.4-13.6-1.2-18.8,4c-5.6,5.6-7.2,12.4-4.8,20
		c2.4,7.2,7.6,11.6,14.8,12.4c2.8,0.4,6,0.4,8.8,0.4c1.2,0,2.4,0,3.6,0c0,0,7.6,0,9.6-0.4c3.2-0.4,7.6-0.8,12-2s6-4,6.8-5.6
		c0.8-2.8,0.4-6-1.6-8.8C64.3,157.7,62.7,156.5,61.5,154.9z M58.3,166.5c-3.6,1.2-7.6,1.6-10.8,2c-2,0-11.2,0.4-11.2,0.4
		c-0.4,0-6.4-0.4-8.8-0.4c-4-0.4-6.8-2.8-8.4-7.2l0,0c-1.6-4.8-0.8-8.4,2.8-12c2-2,4.4-3.2,6.8-3.2c1.2,0,2.4,0.4,4,0.8
		c8.8,3.2,16.8,8,23.6,14.4c1.2,0.8,2,2,2.8,3.2s0.8,1.6,0.8,1.6C59.5,165.7,59.1,166.1,58.3,166.5z"/>
	<path class="st0" d="M211.1,173.3c1.2,0.4,2.4,1.2,4,1.6c4.8,0.8,9.6,1.2,14.4,1.6h8c0.4,0,6.4-0.4,9.6-0.8
		c7.2-0.8,12.4-5.6,14.8-12.4c2.4-7.2,0.8-14.4-4.8-19.6c-5.2-5.2-12-6.8-18.8-4.4c-8,2.8-15.6,7.2-22.4,12.8
		c-3.2,2.4-6,5.6-8.4,9.2c-2,2.8-2,5.2-1.6,6.8C206.7,168.9,207.9,171.3,211.1,173.3z M220.7,157.7c6-4.8,12.8-8.8,20.4-11.2
		c4.4-1.6,7.6-0.8,10.8,2.4s4.4,7.2,2.8,12c-1.6,4.4-4,6.8-8.4,7.2c-2.4,0.4-5.2,0.4-8,0.4c-1.2,0-7.6,0-7.6,0
		c-4.8-0.4-9.6-1.2-14.4-1.6c-0.4,0-1.2-0.4-1.6-0.8c-0.4-0.4-0.8-0.4-0.8-0.4l0,0C213.5,165.7,218.3,159.7,220.7,157.7z"/>
	<path class="st0" d="M173.9,66.5c-27.6,0-55.2,0-82.8,0c-9.6,0-18.4,3.6-25.6,10.4c-3.6,3.6-7.6,7.2-11.2,10.8l-5.6,5.6
		c-0.4,0.4-1.2,0.8-1.6,1.6c-1.6-3.6-4.8-6-8.8-6.8c-7.6-1.2-14.8-0.4-21.6,3.2c-3.2,2-5.6,4.8-6.4,8c-0.8,3.2,0,6.8,2,10
		c1.6,2.4,3.6,4.4,5.6,5.6c1.6,1.2,3.2,2,4.8,2.8l-7.2,7.6c-10,10.4-15.2,22.4-15.6,36c-0.4,10-0.4,19.6-0.4,29.2v6.8
		c0,6.8,1.6,12.4,5.2,16.8c2.8,3.6,4,7.6,3.2,13.2c0,0.8,0,1.6,0,2.4v0.4c0.4,10.8,6.8,18,17.6,18.8c2.8,0,5.6,0.4,8.8,0.4
		c3.6,0,7.6,0,11.6-0.4c8.4-0.4,15.2-7.2,16-15.6c0-0.4,0-0.8,0-1.6h148.8c0.8,10,7.6,16.4,17.2,17.2c6.4,0.4,13.2,0.4,20.8,0
		c8-0.4,14.8-7.2,15.6-15.2c0.4-2.8,0.4-5.6,0.4-8.4c0-1.6,0-3.6,0-5.2c0-0.4,0-0.8,0.4-0.8c5.6-6.8,8.4-14.8,8.4-23.2
		c0-3.6,0-7.2,0-10.8c0-7.2,0-14.4,0-21.6c0-9.6-2.8-18.8-7.6-26.8h13.6V30.5H173.9V66.5z M173.9,116.1H55.5l2-2
		c7.2-7.2,14.4-14,21.6-21.2c3.2-3.2,7.2-4.8,11.6-4.8c27.6,0,55.2,0,82.8,0v28H173.9z M265.9,162.9c0,7.2,0,14.4,0,21.6
		c0,3.6,0,7.2,0,11.2c0,6.8-2,12.8-6.4,18.4c-1.2,1.6-2,3.6-2,5.6s0,3.6,0,5.6c0,2.8,0,5.2-0.4,7.6c-0.4,4.4-4,8-8.4,8.4
		c-7.6,0.4-14,0.4-20,0s-9.6-4-10-10.4c0-0.4,0-1.2,0-1.6v-5.2H55.1l-0.4,5.2c0,1.2,0,2-0.4,3.2c-0.4,4.8-4.4,8.4-8.8,8.8
		c-7.6,0.4-13.6,0.4-19.6,0c-6.4-0.4-10-4.4-10-11.2v-0.4c0-0.4,0-0.8,0-1.2c0.8-7.6-0.8-13.6-5.2-18.8c-2.4-2.8-3.2-6.8-3.2-12
		v-6.8c0-9.6-0.4-19.2,0-28.8c0.4-11.6,4.8-22,13.6-30.8l14-14.8l-4.4-2.4c-0.8-0.4-1.6-0.8-2.8-1.6c-2-1.2-4.4-2.4-6-3.6
		c-1.2-0.8-2.4-2-3.2-3.6c-0.8-0.8-1.2-2.4-0.8-4c0.4-1.6,1.6-2.4,2.4-2.8c3.6-2,7.2-2.8,11.6-2.8c1.6,0,3.2,0,4.8,0.4
		s2.8,0.8,3.6,4c0,0.8,0.4,1.2,0.4,2l1.2,8.8l7.6-7.2c1.6-1.6,2.8-2.8,4.4-4l5.6-5.6c3.6-3.6,7.2-7.2,11.2-10.8
		c5.6-5.6,12.8-8,20.4-8.4c27.6,0,55.2,0,82.8,0v6.4c-27.6,0-55.2,0-82.8,0c-6.4,0-12.4,2.4-17.2,6.8c-7.2,6.8-14.4,14-22,21.2
		l-6.8,6.4c-0.4,0.4-0.8,0.8-1.2,1.6l-5.6,6.8h135.6v12h82.8C262.7,144.1,265.9,152.9,265.9,162.9z M181.9,38.1h90v90h-11.2h-78.8
		v-12V88.5v-22L181.9,38.1L181.9,38.1z"/>
</g>
</svg>
