<?xml version="1.0" encoding="utf-8"?>
<!-- Generator: Adobe Illustrator 24.2.3, SVG Export Plug-In . SVG Version: 6.00 Build 0)  -->
<svg version="1.1" id="Слой_1" xmlns="http://www.w3.org/2000/svg" xmlns:xlink="http://www.w3.org/1999/xlink" x="0px" y="0px"
	 viewBox="0 0 280 280" style="enable-background:new 0 0 280 280;" xml:space="preserve">
<style type="text/css">
	.st0{fill:#907E43;}
</style>
<g>
	<path class="st0" d="M243.4,34.4L269,280l8-0.8L247.8,3.6V0H141h-2.4H31.8L3,279.2l8,0.8L36.2,34.4H65v122.8
		c-6.8,2.8-12,9.2-12,17.2v20h-5.6v8H53v5.2c-5.6,2-9.6,7.6-9.6,13.6c0,8,6.8,14.8,14.8,14.8h57.6c8,0,14.8-6.8,14.8-14.8
		c0-6.4-4-11.6-9.6-13.6v-5.2h5.6v-8H121v-20c0-6.8-4-12.8-9.6-16v-124h27.2h2.4h29.6v122.8c-6.8,2.8-12,9.2-12,17.2v20H153v8h5.6
		v5.2c-5.6,2-9.6,7.6-9.6,13.6c0,8,6.8,14.8,14.8,14.8h57.6c8,0,14.8-6.8,14.8-14.8c0-6.4-4-11.6-9.6-13.6v-5.2h5.6v-8h-5.6v-20
		c0-6.8-4-12.8-9.6-16v-124C217,34.4,243.4,34.4,243.4,34.4z M115.8,227.6H58.2c-3.6,0-6.8-3.2-6.8-6.8s3.2-6.8,6.8-6.8h57.6
		c3.6,0,6.8,3.2,6.8,6.8S119.8,227.6,115.8,227.6z M113,206H61v-32c0-6,4.8-10.8,10.8-10.8h30.8c6,0,10.8,4.8,10.8,10.8v32H113z
		 M103.4,156c-0.4,0-0.8,0-1.2,0H72.6V34.4H103V156H103.4z M141,26.4h-2.4h-27.2v-8h-8v8H73v-8h-8v8H37L39,8h99.6h2.4h99.6l2,18.4
		H217v-8h-8v8h-30.4v-8h-8v8H141z M221.4,227.6h-57.6c-3.6,0-6.8-3.2-6.8-6.8s3.2-6.8,6.8-6.8h57.6c3.6,0,6.8,3.2,6.8,6.8
		S225,227.6,221.4,227.6z M218.6,206h-52v-32c0-6,4.8-10.8,10.8-10.8h30.4c6,0,10.8,4.8,10.8,10.8V206z M209,156c-0.4,0-0.8,0-1.2,0
		h-29.6V34.4h30.4V156H209z"/>
</g>
</svg>
