<?xml version="1.0" encoding="utf-8"?>
<!-- Generator: Adobe Illustrator 24.2.3, SVG Export Plug-In . SVG Version: 6.00 Build 0)  -->
<svg version="1.1" id="Слой_1" xmlns="http://www.w3.org/2000/svg" xmlns:xlink="http://www.w3.org/1999/xlink" x="0px" y="0px"
	 viewBox="0 0 280 280" style="enable-background:new 0 0 280 280;" xml:space="preserve">
<style type="text/css">
	.st0{fill:#907E43;}
</style>
<g>
	<path class="st0" d="M150.6,149.5v-45.2H79.1h-7.6H0v45.2v7.6v37.6v7.6v45.6h71.5h7.6h63.5h7.6h71.5v-53.1h-38v-45.2L150.6,149.5z
		 M176.2,157.1v37.6h-25.6H143h-30.4v-37.6h38H176.2z M41.2,157.1h30.4h7.6h25.6v37.6H79.1h-7.6H41.2
		C41.2,194.7,41.2,157.1,41.2,157.1z M79.1,112h63.5v37.6h-30.4h-7.6H79.1C79.1,149.5,79.1,112,79.1,112z M7.6,112h63.5v37.6H40.8
		h-7.2h-26C7.6,149.6,7.6,112,7.6,112z M7.6,157.1h25.6v37.6H7.6V157.1z M71.5,239.8H7.6v-37.6h25.6h7.6h30.4v37.6L71.5,239.8
		L71.5,239.8z M143,239.8H79.1v-37.6h25.6h7.6h30.4v37.6L143,239.8L143,239.8z M214.2,239.9h-63.5v-37.6h33.6h30L214.2,239.9z"/>
	<path class="st0" d="M236.9,87.6c-2-2-5.2-2-7.2,0l-1.2,1.2l-2.4-2.4c5.6-12,3.6-26.8-6-36.4c-3.2-3.2-7.6-5.6-7.6-5.6
		c-3.2-2-7.2-3.2-10.8-4l-32.4-8c-3.6-0.8-7.2,0-9.6,2.4c-2.4,2.4-3.6,6-2.4,9.6l9.6,36.4l2,6.4c0,0,4,5.2,6.4,7.6
		c6.4,6.4,14.4,9.2,22.4,9.2c4.8,0,9.6-1.2,14-3.2l2.4,2.4l-1.2,1.2c-0.8,0.8-1.6,2.4-1.6,3.6s0.4,2.8,1.6,3.6l38,38
		c3.2,3.2,7.6,4.8,12,4.8s8.8-1.6,12-4.8c6.8-6.8,6.8-17.6,0-24L236.9,87.6z M180.6,89.6c-2.8-2.8-5.2-6.4-6-10.4l-1.2-3.6
		l-8.8-32.8c-0.4-1.2,0.4-2,0.4-2c0.4-0.4,1.2-0.8,2.4-0.4l32.4,8l0,0c3.2,0.8,6,1.6,8.8,3.2c0,0,3.6,2,6,4.4
		c6.8,6.8,8.4,16.4,5.6,24.8l-0.4-0.4c-4-4-10.8-4-14.4,0c-4,4-4,10.4,0,14.4l0.4,0.4C197,98,187.4,96.4,180.6,89.6z M212.6,91.2
		l-2-2c-0.8-0.8-0.8-2.8,0-3.6c0.4-0.4,1.2-0.8,1.6-0.8c0.4,0,1.2,0.4,1.6,0.8l2,2c-0.4,0.8-0.8,1.2-1.6,2
		C214.2,90,213.4,90.8,212.6,91.2z M218.2,96.8c0.8-0.4,1.2-1.2,2-1.6c0.8-0.8,1.2-1.2,1.6-2l1.2,1.2l-3.6,3.6L218.2,96.8z
		 M269.3,144.3c-3.6,3.6-9.6,3.6-13.2,0l-36-36l13.2-13.2l36,36C272.9,134.8,272.9,140.7,269.3,144.3z"/>
</g>
</svg>
