<?xml version="1.0" encoding="utf-8"?>
<!-- Generator: Adobe Illustrator 24.2.3, SVG Export Plug-In . SVG Version: 6.00 Build 0)  -->
<svg version="1.1" id="Слой_1" xmlns="http://www.w3.org/2000/svg" xmlns:xlink="http://www.w3.org/1999/xlink" x="0px" y="0px"
	 viewBox="0 0 280 280" style="enable-background:new 0 0 280 280;" xml:space="preserve">
<style type="text/css">
	.st0{fill:#907E43;}
</style>
<g>
	<path class="st0" d="M227.6,151.4v-47.6c-1.2-17.2-10.8-32.4-25.6-39.2c-0.8-0.4-20-9.2-38.4,0.8c-9.2,4.8-14,12.4-16.8,17.2
		c-4.8,7.6-8,16-8.8,25.2l-1.6,106.8c-0.4,4-3.2,15.6-14,23.6c-9.6,7.2-19.6,6.8-23.2,6.8c-4.4,0-19.2-1.6-28.4-14
		c-3.2-4.4-5.2-9.2-6.4-14.4L64,149c31.2-2.4,56-28,56-59.6V68.2c0-11.2-9.2-20.4-20.4-20.4h-5.2v-32h-24v32H47.2v-32h-24v32h-2.8
		C9.2,47.8,0,57,0,68.2v21.2c0,32,25.2,57.6,56.8,59.2l0.4,68v0.8c1.2,6.8,3.6,12.8,7.6,18C76,250.6,94,252.2,99.2,252.2
		c0.8,0,1.2,0,2,0c10,0,18.8-2.8,26-8c13.2-9.6,16-23.6,16.8-29.2l1.6-107.2c1.2-8,3.6-15.2,7.6-21.6c2.8-4.4,6.8-10.4,14-14.4
		c14.8-8,31.2-0.8,31.2-0.4c12.4,5.6,20.4,18,21.2,32.4v47.6c-29.6,2-52.8,26.4-52.8,56.4c0,31.2,25.2,56.4,56.4,56.4
		c31.6,0,56.8-25.6,56.8-56.4C280,177.8,256.8,153.4,227.6,151.4z M77.6,23.4h8.8v24.4h-8.8V23.4z M30.4,23.4h8.8v24.4h-8.8
		C30.4,47.8,30.4,23.4,30.4,23.4z M7.6,89.4V68.2c0-7.2,5.6-12.8,12.8-12.8h2.4h24H70h24h5.2c7.2,0,12.8,5.6,12.8,12.8v21.2
		c0,28.4-23.2,51.6-51.6,51.6h-1.2C30.8,141,7.6,117.8,7.6,89.4z M223.6,256.2c-26.8,0-48.8-22-48.8-48.8s22-48.8,48.8-48.8
		s48.8,22,48.8,49.2S250.4,256.2,223.6,256.2z"/>
	<path class="st0" d="M244,200.6h-11.2l5.6-21.2c0.4-1.2,0-2.4-0.8-3.2s-2-1.6-3.2-1.6h-24c-2,0-3.6,1.6-4,3.2l-5.6,40.8
		c0,1.2,0,2.4,0.8,3.2s1.6,1.2,2.8,1.2l8,0.4l-6,22.4c-0.4,1.6,0.4,3.6,2,4.4c0.4,0.4,1.2,0.4,1.6,0.4c1.2,0,2.4-0.4,3.2-1.6
		l33.6-42c0.8-1.2,1.2-2.8,0.4-4C246.8,201.4,245.6,200.6,244,200.6z M219.2,229.4l2.4-8.8c0.4-1.2,0-2.4-0.8-3.2s-2-1.6-3.2-1.6
		l-8.8-0.4l4.8-33.2h15.6l-5.2,21.2c-0.4,1.2,0,2.4,0.8,3.2s2,1.6,3.2,1.6h8L219.2,229.4z"/>
</g>
</svg>
