<svg width="116" height="106" fill="none" xmlns="http://www.w3.org/2000/svg"><path d="M76.23 7.984c9.15 0 16.57 43.452 16.57 97.054h13.258C106.058 47.311 92.702.517 76.231.517c-9.372 0-17.734 14.063-23.2 36.055C47.563 14.58 39.2.517 29.828.517 13.358.517 0 47.31 0 105.038h13.26c0-53.602 7.42-97.054 16.569-97.054 9.152 0 16.574 40.11 16.574 89.59h13.255c0-49.48 7.42-89.59 16.572-89.59zm36.464 89.59c1.799 0 3.306 1.605 3.306 3.715 0 2.143-1.507 3.748-3.306 3.748-1.804 0-3.324-1.606-3.324-3.748 0-2.11 1.52-3.714 3.324-3.714zm0 6.918c1.523 0 2.706-1.378 2.706-3.202 0-1.792-1.183-3.169-2.706-3.169-1.542 0-2.723 1.377-2.723 3.169-.001 1.823 1.181 3.202 2.723 3.202zm-1.289-5.37h1.494c.914 0 1.345.41 1.345 1.245 0 .789-.437 1.118-1.009 1.187l1.099 1.929h-.645l-1.048-1.877h-.634v1.877h-.601l-.001-4.361zm.602 1.937h.626c.527 0 1.013-.03 1.013-.721 0-.58-.44-.67-.846-.67h-.792l-.001 1.391z" fill="#999"/></svg>