<svg width="153" height="95" fill="none" xmlns="http://www.w3.org/2000/svg"><path fill-rule="evenodd" clip-rule="evenodd" d="M11.219 94.684c31.202-14.87 74.983-28.346 132.968-14.852l.608-16.353C83.619 56.052 39.722 77.717 11.219 93.072v1.612zm32.628-43.122L57.371 1.98h12.066L55.913 51.56H43.847zM38.453 1.994L27.6 23.012c-2.763 5.504-4.378 8.285-5.155 11.763h-.165c.192-4.41-.361-9.823-.413-12.883l-1.2-19.898H.356L.147 3.328c5.218 0 8.313 2.915 9.164 8.877l3.96 39.357h12.5L51.047 1.994H38.453zm93.836 49.568l-.333-7.374-15.067-.014-3.081 7.387h-13.1l23.753-49.486h16.079l4.023 49.486h-12.274zm-1.383-29.246c-.134-3.665-.247-8.638-.022-11.648h-.179c-.734 2.461-3.888 9.853-5.275 13.488l-4.49 10.868h10.58l-.614-12.709zM82.105 52.97c-8.519 0-14.172-3.005-18.209-5.684l5.748-9.76c3.624 2.253 6.469 4.853 13.014 4.853 2.105 0 4.133-.608 5.285-2.825 1.678-3.226-.387-4.96-5.101-7.927l-2.328-1.683c-6.987-5.31-10.01-10.352-6.72-19.154C75.899 5.16 81.45.893 90.608.893c6.316 0 12.237 3.037 15.688 6.005l-6.609 8.618c-3.366-3.028-6.157-4.56-9.35-4.56-2.547 0-4.482 1.092-5.15 2.565-1.256 2.769.407 4.656 4.079 7.191l2.767 1.957c8.483 5.95 10.505 12.189 8.378 18.021-3.656 10.04-10.816 12.28-18.306 12.28zm65.758-43.32h-.794V4.275h1.834c1.167 0 1.763.454 1.763 1.545 0 .973-.539 1.375-1.262 1.466l1.354 2.364h-.898l-1.249-2.298h-.748V9.65zm.887-3.051c.596 0 1.121-.065 1.121-.845 0-.649-.572-.727-1.05-.727h-.958V6.6h.887zm-.024 5.128c-2.509 0-4.295-2.09-4.295-4.856 0-2.921 1.984-4.855 4.295-4.855 2.29 0 4.274 1.934 4.274 4.855 0 2.92-1.984 4.856-4.274 4.856zm0-8.867c-1.891 0-3.361 1.648-3.361 4.011 0 2.207 1.284 4.012 3.361 4.012 1.868 0 3.34-1.636 3.34-4.012 0-2.363-1.472-4.011-3.34-4.011z" fill="#999"/></svg>