<svg width="135" height="72" fill="none" xmlns="http://www.w3.org/2000/svg"><path fill-rule="evenodd" clip-rule="evenodd" d="M110.646 55.465l1.311-4.798-.597.24-.763.212-.88.212-1.002.212-2.335.371-2.646.319-2.837.265-2.883.185-2.837.132-2.646.053h-9.844l-.572-.026-.524-.053-.478-.08-.429-.106-.357-.16-.31-.184-.286-.212-.216-.265-.166-.292-.095-.345-.073-.372-.023-.397.023-.478.049-.477.261-1.139 5.697-18.102.453-1.14.24-.503.26-.45.286-.424.31-.372.334-.318.357-.318.359-.239.404-.238.43-.185.477-.132.477-.132.523-.08.573-.026.596-.027h.5l1.717.027 1.55.106 1.357.185 1.193.265.977.345.453.185.38.212.334.238.312.265.261.265.214.292 1.693-11.105h-20.38l-1.216.027-1.143.106-1.12.159-1.073.238-1.024.292-1.002.344-.93.398-.88.45-.86.53-.81.557-.786.61-.715.689-.716.689-.643.77-.62.794-.571.848-.048-.848-.119-.795-.166-.769-.263-.69-.312-.69-.38-.61-.454-.556-.524-.53-.62-.45-.668-.398-.762-.345-.858-.292-.93-.238-1.001-.159-1.12-.106-1.192-.027H42.5l-.668.027-.643.08-.572.132-.549.186-.524.212-.453.265-.453.292-.406.318-.381.318-.357.345-.62.742-.524.742-.43.69h-.166L42.188.707h-16.16l-.524.026-.477.08-.453.106-.429.159-.405.185-.404.239-.358.239-.334.291-.62.636-.549.716-.476.742-.405.796-.334.769-.263.767-.238.69-.166.635-.191.954-.072.372L5.458 53.238l-.525 1.59-.548 1.379-.524 1.193-.549 1.033-.524.928-.548.795-.549.742-.572.69h20.237l2.765-4.77.167 1.139.214.98.239.822.143.345.166.317.168.266.214.238.238.212.238.16.287.132.31.08.357.053.381.026h17.02l1.215-.026 1.168-.106 1.097-.16 1.072-.239 1.025-.29 1-.346.93-.398.907-.45.834-.53.81-.556.786-.636.74-.663.69-.716.644-.742.62-.822.572-.847.047.847.12.822.19.742.238.716.31.663.382.636.453.557.525.53.62.45.667.397.786.345.834.291.93.24 1.025.159 1.096.105 1.192.027h34.562l1.239-.08 1.097-.185 1-.292.883-.397.786-.478.667-.504.597-.556.476-.556.43-.583.334-.556.261-.504.216-.477.237-.69.073-.265zM46.956 29.04l-6.412 20.381-.31.874-.358.716-.404.582-.43.478-.5.345-.573.265-.62.132-.714.053h-8.01l-.666-.053-.55-.132-.213-.106-.191-.16-.166-.158-.12-.185-.095-.212-.047-.266-.024-.264v-.319l.095-.715.239-.874 6.412-20.382.31-.874.333-.716.405-.61.453-.45.5-.371.549-.238.643-.132.692-.053h8.033l.667.053.549.132.215.106.19.132.143.159.12.212.095.212.072.238.023.292v.318l-.118.716-.217.874zm78.443-6.335l-.166.768-.31 1.166-.43 1.404-.5 1.485-.572 1.457-.286.636-.31.583-.286.478-.31.397-.286.239-.143.08-.143.026h-.095l-.096-.027-.12-.159-.094-.21-.023-.213.023-.504v-.503l-.096-.556-.166-.583-.238-.637-.286-.61-.643-1.192-.62-1.007-.93.451-.93.477-.93.53-.906.583-.881.61-.882.636-1.644 1.352-.549.53-.571.636-.549.715-.524.77-.523.847-.502.902-.475.928-.43.953-.43.981-.381.98-.335.98-.309.955-.239.954-.214.901-.143.875-.096.795.143.053.191.159.405.477.477.69.477.794.453.848.381.796.286.662.119.424-.023.318-.096.291-.071.106-.12.106-.119.053-.143.053-.143-.027-.167-.106-.404-.37-.525-.557-.62-.61-.714-.61-.383-.266-.428-.238-.453-.185-.453-.133-.501-.052h-.5l-.645.132-.547.185-.524.239-.43.265-.691.477-.239.16-.166.079-.238-.026-.216-.133-.143-.212-.07-.239.023-.238.12-.292.166-.291.237-.345.597-.716.739-.689.763-.636.714-.504.573-.318.214-.052h.167l-.215-.742-.143-.768-.119-.796-.071-.796-.073-1.166-.023-1.219v-1.192l.071-1.247.119-1.219.191-1.219.239-1.193.286-1.193.357-1.166.406-1.14.5-1.085.548-1.035.596-1.006.691-.928.763-.874.834-.795-.5-.716-.31-.398-.334-.37-.357-.346-.358-.265-.382-.185-.19-.053h-.191l-.357-.026-.286-.132-.143-.106-.096-.158-.072-.186-.023-.212v-.186l.023-.185.072-.159.096-.132.237-.212.311-.159.358-.132.334-.053.62-.08.81-.079.882-.027.929.027.954.053.953.132.906.16.859.212.761.264 1.836-.768.93-.371.953-.318.954-.291.977-.24.977-.211.978-.133 1.74-.132 1.048-.027h1.097l1.073.027 1.025.079.929.16.762.212.239.132.238.159.477.45.405.504.334.504.716-.053 1.072.026.525.053.452.132.192.08.143.106.094.132.047.16.025.211-.025.133-.047.132-.214.292-.358.265-.476.292-.573.265-.667.265-1.43.504-1.527.45-1.406.397-1.144.291-.738.238zm2.479-5.036l-.476.106-.62.212-.286.16-.214.185-.143.212-.047.133v.132l.023.132.047.106.191.185.262.159.286.08.644.08h.5l.477-.106.596-.212.285-.16.215-.184.143-.239.047-.106v-.16l-.023-.105-.073-.106-.166-.186-.262-.133-.286-.105-.619-.08h-.501zm.215 1.617l-.311.027-.476-.027-.238-.053-.192-.08-.142-.132-.072-.16.023-.185.143-.132.167-.133.215-.105.452-.133.335-.053h.357l.454.027.237.053.191.08.143.132.073.16-.049.158-.118.16-.166.105-.216.106-.453.133-.357.052zM2.073 68.16h3.503l.215.026.143.106.072.186.024.318v1.829l-.024.291-.072.212-.143.08-.215.026H2.073V68.16zM.977 70.678l-.024.663-.072.53H5.6l.404-.027.31-.052.263-.08.214-.133.144-.212.118-.239.048-.345.023-.397v-1.67l-.047-.212-.072-.185-.095-.106-.143-.106-.167-.053-.406-.08v-.026l.406-.053.167-.053.143-.106.095-.133.072-.159.047-.212v-1.537l-.023-.397-.048-.318-.118-.265-.144-.212-.214-.133-.262-.08-.31-.052-.405-.027H.88l.072.53.024.689v5.248zm1.096-5.83h3.503l.215.026.143.106.072.185.024.291v1.537l-.024.318-.072.186-.143.08-.215.026H2.073v-2.755zm16.566-.637l.048.715-.43-.052-.905-.026h-2.813v2.888h2.55l.906-.027.5-.052v.794l-.5-.079-.905-.026h-2.55v2.888h2.812l.906-.026.429-.053-.048.716h-5.292l.072-.53.024-.663v-5.274l-.024-.663-.072-.53h5.292zm10.536 4.692h-3.17l1.549-3.632 1.62 3.632zM31.7 71.87l-.358-.61-.333-.769-2.765-6.281h-1.383l.191.239.167.239-2.742 6.36-.238.424-.262.398h.905l.072-.398.238-.662.549-1.272h3.67l.478 1.087.238.609.095.318.048.318h1.43zm10.797-7.66l.048.769-.286-.08-.357-.026-1.025-.026h-2.026l-.239.026-.143.106-.072.185-.024.291v5.169l.024.291.072.212.143.08.239.026h3.05l.406-.052.358-.08-.072.77h-3.79l-.405-.028-.31-.052-.263-.08-.215-.133-.142-.212-.12-.239-.047-.345-.024-.397v-4.692l.024-.397.048-.318.12-.265.142-.212.214-.133.263-.08.31-.052.405-.027h3.694zm7.27 4.082v2.385l.025.663.072.53h-1.288l.072-.53.024-.663v-5.274l-.024-.663-.072-.53h1.288l-.072.53-.024.663v2.253h4.028v-2.253l-.024-.663-.071-.53h1.287l-.071.53-.024.663v5.274l.024.663.071.53h-1.287l.071-.53.024-.663v-2.385H49.77zM75.32 64.21l.072.769-.31-.08-.358-.026-1-.026h-2.05l-.24.026-.142.106-.071.185v5.751l.07.212.144.08.239.026h3.074l.382-.052.357-.08-.072.77h-3.79l-.381-.028-.334-.052-.262-.08-.19-.133-.168-.212-.096-.239-.07-.345-.024-.397v-4.692l.023-.397.072-.318.096-.265.166-.212.19-.133.263-.08.334-.052.38-.027h3.697zm6.174 7.66l.071-.53.025-.663v-5.274l-.025-.663-.071-.53h1.287l-.07.53-.024.663v5.83h3.05l.906-.026.428-.053-.047.716h-5.53zm16.494-.637l.24-.026.142-.08.071-.212.024-.291v-5.116l-.047-.662-.047-.637h.763l-.097.874-.023.77v4.93l-.047.317-.096.265-.12.185-.143.16-.214.08-.262.052-.31.026H94.39l-.358-.026-.31-.053-.238-.08-.19-.159-.144-.185-.096-.265-.047-.318-.023-.397v-4.983l-.024-.663-.072-.53h1.287l-.071.53-.024.663v5.222l.024.291.07.212.12.08.214.026h3.48zm8.558-3.074h3.504l.237.026.12.106.072.186.024.318v1.829l-.024.291-.072.212-.12.08-.237.026h-3.504V68.16zm-1.097 2.518l-.023.663-.073.53h4.744l.382-.027.31-.052.261-.08.216-.133.166-.212.095-.239.072-.345v-2.066l-.048-.213-.071-.185-.096-.106-.143-.106-.143-.053-.429-.08v-.026l.429-.053.143-.053.143-.106.096-.133.071-.159.048-.212v-1.934l-.072-.318-.095-.265-.166-.212-.216-.133-.261-.08-.31-.052-.382-.027h-4.744l.073.53.023.689v5.248zm1.097-5.83h3.504l.237.026.12.106.072.185.024.291v1.537l-.024.318-.072.186-.12.08-.237.026h-3.504v-2.755z" fill="#999"/></svg>