<svg width="69" height="47" fill="none" xmlns="http://www.w3.org/2000/svg"><path d="M53.63 18H1.884c-.696-5.2-.29-10.833 0-13H54.5c0 3.64-.58 10.183-.87 13z" fill="#E6E6E6"/><path d="M51.025 30H4.975c-1.737-2.296-3.04-8.956-3.475-12h53c0 2.922-2.317 9.217-3.475 12z" fill="#FAFAFA"/><path d="M51.5 30h-47c1.74 11.116 7.978 14.737 10.88 16h25.676c4.874-2.021 8.993-10.947 10.444-16z" fill="#5B3B31"/><path d="M28.5 46H14.828C2.83 37.771 1.008 12.571 1.597 1H28.5" stroke="#5F5F5F" stroke-width="2"/><path d="M27.5 46h13.672c11.997-8.229 13.82-33.429 13.232-45H27.5" stroke="#5F5F5F" stroke-width="2"/><path d="M53.987 13.164c1.875-2.77 7.54-4.81 11.249-1.31 6.489 6.122-1.757 20.574-14.736 20.136" stroke="#5F5F5F" stroke-width="2"/></svg>