<svg width="69" height="47" fill="none" xmlns="http://www.w3.org/2000/svg"><path d="M51.025 30H4.975C3.238 26.174 1.935 15.072 1.5 10h53c0 4.87-2.317 15.362-3.475 20z" fill="#FAFAFA"/><path d="M51.5 30h-47c1.74 11.116 7.978 14.737 10.88 16h25.676c4.874-2.021 8.993-10.947 10.444-16z" fill="#5B3B31"/><path d="M28.5 46H14.828C2.83 37.771 1.008 12.571 1.597 1H28.5" stroke="#5F5F5F" stroke-width="2"/><path d="M27.5 46h13.672c11.997-8.229 13.82-33.429 13.232-45H27.5" stroke="#5F5F5F" stroke-width="2"/><path d="M53.987 13.164c1.875-2.77 7.54-4.81 11.249-1.31 6.489 6.122-1.757 20.574-14.736 20.136" stroke="#5F5F5F" stroke-width="2"/></svg>