<svg width="69" height="47" fill="none" xmlns="http://www.w3.org/2000/svg"><path d="M53.63 24H1.884c-.696-4.4-.29-9.167 0-11H54.5c0 3.08-.58 8.617-.87 11z" fill="#E6E6E6"/><path d="M52.5 24h-49c1.815 15.284 8.318 20.263 11.343 22H41.61c5.082-2.779 9.377-15.053 10.889-22z" fill="#5B3B31"/><path d="M28.5 46H14.828C2.83 37.771 1.008 12.571 1.597 1H28.5" stroke="#5F5F5F" stroke-width="2"/><path d="M27.5 46h13.672c11.997-8.229 13.82-33.429 13.232-45H27.5" stroke="#5F5F5F" stroke-width="2"/><path d="M53.987 13.164c1.875-2.77 7.54-4.81 11.249-1.31 6.489 6.122-1.757 20.574-14.736 20.136" stroke="#5F5F5F" stroke-width="2"/></svg>